%FSLAX34Y34*%
%MOMM*%
%LNSMDMASK_TOP*%
G71*
G01*
%ADD10R,0.640X2.200*%
%ADD11R,2.200X0.640*%
%ADD12R,0.640X2.100*%
%ADD13R,2.100X0.640*%
%ADD14R,0.450X1.800*%
%ADD15R,1.800X0.450*%
%ADD16R,2.200X0.500*%
%ADD17R,0.500X2.200*%
%ADD18R,0.700X1.900*%
%ADD19R,1.900X0.700*%
%ADD20R,1.200X1.700*%
%ADD21R,1.700X1.200*%
%ADD22R,1.800X1.400*%
%ADD23R,2.300X1.900*%
%ADD24R,1.400X3.400*%
%ADD25R,2.600X1.300*%
%ADD26R,1.300X2.600*%
%ADD27R,0.700X2.800*%
%ADD28R,1.900X2.300*%
%ADD29R,2.400X2.600*%
%ADD30R,2.000X2.200*%
%ADD31R,2.200X2.000*%
%ADD32R,1.450X0.750*%
%ADD33R,2.600X3.600*%
%LPD*%
X2041848Y1428822D02*
G54D10*
D03*
X2054548Y1428822D02*
G54D10*
D03*
X2067248Y1428822D02*
G54D10*
D03*
X2079949Y1428822D02*
G54D10*
D03*
X2092650Y1428822D02*
G54D10*
D03*
X2105350Y1428822D02*
G54D10*
D03*
X2123445Y1447116D02*
G54D11*
D03*
X2123445Y1459816D02*
G54D11*
D03*
X2123445Y1472516D02*
G54D11*
D03*
X2123445Y1485216D02*
G54D11*
D03*
X2123445Y1497916D02*
G54D11*
D03*
X2123445Y1510616D02*
G54D11*
D03*
X2123445Y1523316D02*
G54D11*
D03*
X2123445Y1536016D02*
G54D11*
D03*
X2123445Y1548716D02*
G54D11*
D03*
X2123445Y1561416D02*
G54D11*
D03*
X2123445Y1574116D02*
G54D11*
D03*
X2105350Y1592211D02*
G54D10*
D03*
X2092650Y1592211D02*
G54D10*
D03*
X2079949Y1592211D02*
G54D10*
D03*
X2067248Y1592211D02*
G54D10*
D03*
X2054548Y1592211D02*
G54D10*
D03*
X2041848Y1592211D02*
G54D10*
D03*
X2029148Y1592211D02*
G54D10*
D03*
X2016448Y1592211D02*
G54D10*
D03*
X2003748Y1592211D02*
G54D10*
D03*
X1991048Y1592211D02*
G54D10*
D03*
X1978348Y1592211D02*
G54D10*
D03*
X1960054Y1574116D02*
G54D11*
D03*
X1960054Y1561416D02*
G54D11*
D03*
X1960054Y1548716D02*
G54D11*
D03*
X1960054Y1536016D02*
G54D11*
D03*
X1960054Y1523316D02*
G54D11*
D03*
X1960054Y1510616D02*
G54D11*
D03*
X1960054Y1497916D02*
G54D11*
D03*
X1960054Y1485216D02*
G54D11*
D03*
X1960054Y1472516D02*
G54D11*
D03*
X1960054Y1459816D02*
G54D11*
D03*
X1960054Y1447116D02*
G54D11*
D03*
X1978348Y1428822D02*
G54D10*
D03*
X1991048Y1428822D02*
G54D10*
D03*
X2003748Y1428822D02*
G54D10*
D03*
X2016448Y1428822D02*
G54D10*
D03*
X2029148Y1428822D02*
G54D10*
D03*
X1068301Y1333188D02*
G54D12*
D03*
X1081001Y1333188D02*
G54D12*
D03*
X1093701Y1333188D02*
G54D12*
D03*
X1106401Y1333188D02*
G54D12*
D03*
X1119101Y1333188D02*
G54D12*
D03*
X1131801Y1333188D02*
G54D12*
D03*
X1144501Y1333188D02*
G54D12*
D03*
X1157201Y1333188D02*
G54D12*
D03*
X1169901Y1333188D02*
G54D12*
D03*
X1187698Y1350786D02*
G54D13*
D03*
X1187698Y1363486D02*
G54D13*
D03*
X1187698Y1376186D02*
G54D13*
D03*
X1187698Y1388886D02*
G54D13*
D03*
X1187698Y1401586D02*
G54D13*
D03*
X1187698Y1414286D02*
G54D13*
D03*
X1187698Y1426986D02*
G54D13*
D03*
X1187698Y1439686D02*
G54D13*
D03*
X1187698Y1452386D02*
G54D13*
D03*
X1187698Y1465086D02*
G54D13*
D03*
X1187698Y1477786D02*
G54D13*
D03*
X1187698Y1490486D02*
G54D13*
D03*
X1187698Y1503186D02*
G54D13*
D03*
X1187698Y1515886D02*
G54D13*
D03*
X1187698Y1528586D02*
G54D13*
D03*
X1187698Y1541286D02*
G54D13*
D03*
X1187698Y1553986D02*
G54D13*
D03*
X1169901Y1571783D02*
G54D12*
D03*
X1157201Y1571783D02*
G54D12*
D03*
X1144501Y1571783D02*
G54D12*
D03*
X1131801Y1571783D02*
G54D12*
D03*
X1119101Y1571783D02*
G54D12*
D03*
X1106401Y1571783D02*
G54D12*
D03*
X1093701Y1571783D02*
G54D12*
D03*
X1081001Y1571783D02*
G54D12*
D03*
X1068301Y1571783D02*
G54D12*
D03*
X1055601Y1571783D02*
G54D12*
D03*
X1042901Y1571783D02*
G54D12*
D03*
X1030201Y1571783D02*
G54D12*
D03*
X1017501Y1571783D02*
G54D12*
D03*
X1004801Y1571783D02*
G54D12*
D03*
X992101Y1571783D02*
G54D12*
D03*
X979401Y1571783D02*
G54D12*
D03*
X966701Y1571783D02*
G54D12*
D03*
X948904Y1553986D02*
G54D13*
D03*
X948904Y1541286D02*
G54D13*
D03*
X948904Y1528586D02*
G54D13*
D03*
X948904Y1515886D02*
G54D13*
D03*
X948904Y1503186D02*
G54D13*
D03*
X948904Y1490486D02*
G54D13*
D03*
X948904Y1477786D02*
G54D13*
D03*
X948904Y1465086D02*
G54D13*
D03*
X948904Y1452386D02*
G54D13*
D03*
X948904Y1439686D02*
G54D13*
D03*
X948904Y1426986D02*
G54D13*
D03*
X948904Y1414286D02*
G54D13*
D03*
X948904Y1401586D02*
G54D13*
D03*
X948904Y1388886D02*
G54D13*
D03*
X948904Y1376186D02*
G54D13*
D03*
X948904Y1363486D02*
G54D13*
D03*
X948904Y1350786D02*
G54D13*
D03*
X966701Y1333188D02*
G54D12*
D03*
X979401Y1333188D02*
G54D12*
D03*
X992101Y1333188D02*
G54D12*
D03*
X1004801Y1333188D02*
G54D12*
D03*
X1017501Y1333188D02*
G54D12*
D03*
X1030201Y1333188D02*
G54D12*
D03*
X1042901Y1333188D02*
G54D12*
D03*
X1055601Y1333188D02*
G54D12*
D03*
X285588Y1567072D02*
G54D11*
D03*
X285588Y1579772D02*
G54D11*
D03*
X285588Y1592472D02*
G54D11*
D03*
X285588Y1605172D02*
G54D11*
D03*
X267688Y1623072D02*
G54D10*
D03*
X254988Y1623072D02*
G54D10*
D03*
X242288Y1623072D02*
G54D10*
D03*
X229588Y1623072D02*
G54D10*
D03*
X216888Y1623072D02*
G54D10*
D03*
X204188Y1623072D02*
G54D10*
D03*
X191488Y1623072D02*
G54D10*
D03*
X173588Y1605172D02*
G54D11*
D03*
X173588Y1592472D02*
G54D11*
D03*
X173588Y1579772D02*
G54D11*
D03*
X173588Y1567072D02*
G54D11*
D03*
X173588Y1554372D02*
G54D11*
D03*
X173588Y1541672D02*
G54D11*
D03*
X173588Y1528972D02*
G54D11*
D03*
X191488Y1511072D02*
G54D10*
D03*
X204188Y1511072D02*
G54D10*
D03*
X216888Y1511072D02*
G54D10*
D03*
X229588Y1511072D02*
G54D10*
D03*
X242288Y1511072D02*
G54D10*
D03*
X254988Y1511072D02*
G54D10*
D03*
X267688Y1511072D02*
G54D10*
D03*
X285588Y1528972D02*
G54D11*
D03*
X285588Y1541672D02*
G54D11*
D03*
X285588Y1554372D02*
G54D11*
D03*
X294479Y952223D02*
G54D14*
D03*
X300879Y952223D02*
G54D14*
D03*
X307179Y952223D02*
G54D14*
D03*
X313479Y952223D02*
G54D14*
D03*
X319879Y952223D02*
G54D14*
D03*
X326279Y952223D02*
G54D14*
D03*
X332579Y952223D02*
G54D14*
D03*
X338879Y952223D02*
G54D14*
D03*
X345279Y952223D02*
G54D14*
D03*
X351679Y952223D02*
G54D14*
D03*
X357979Y952223D02*
G54D14*
D03*
X364279Y952223D02*
G54D14*
D03*
X370679Y952223D02*
G54D14*
D03*
X377079Y952223D02*
G54D14*
D03*
X383379Y952223D02*
G54D14*
D03*
X389679Y952223D02*
G54D14*
D03*
X396079Y952223D02*
G54D14*
D03*
X402479Y952223D02*
G54D14*
D03*
X408779Y952223D02*
G54D14*
D03*
X415079Y952223D02*
G54D14*
D03*
X421479Y952223D02*
G54D14*
D03*
X427879Y952223D02*
G54D14*
D03*
X434179Y952223D02*
G54D14*
D03*
X440479Y952223D02*
G54D14*
D03*
X446879Y952223D02*
G54D14*
D03*
X453279Y952223D02*
G54D14*
D03*
X459579Y952223D02*
G54D14*
D03*
X465879Y952223D02*
G54D14*
D03*
X472279Y952223D02*
G54D14*
D03*
X478679Y952223D02*
G54D14*
D03*
X484979Y952223D02*
G54D14*
D03*
X491279Y952223D02*
G54D14*
D03*
X497679Y952223D02*
G54D14*
D03*
X528079Y982623D02*
G54D15*
D03*
X528079Y989023D02*
G54D15*
D03*
X528079Y995323D02*
G54D15*
D03*
X528079Y1001623D02*
G54D15*
D03*
X528079Y1008023D02*
G54D15*
D03*
X528079Y1014423D02*
G54D15*
D03*
X528079Y1020723D02*
G54D15*
D03*
X528079Y1027023D02*
G54D15*
D03*
X528079Y1033423D02*
G54D15*
D03*
X528079Y1039823D02*
G54D15*
D03*
X528079Y1046123D02*
G54D15*
D03*
X528079Y1052423D02*
G54D15*
D03*
X528079Y1058823D02*
G54D15*
D03*
X528079Y1065223D02*
G54D15*
D03*
X528079Y1071523D02*
G54D15*
D03*
X528079Y1077823D02*
G54D15*
D03*
X528079Y1084223D02*
G54D15*
D03*
X528079Y1090623D02*
G54D15*
D03*
X528079Y1096923D02*
G54D15*
D03*
X528079Y1103223D02*
G54D15*
D03*
X528079Y1109623D02*
G54D15*
D03*
X528079Y1116023D02*
G54D15*
D03*
X528079Y1122323D02*
G54D15*
D03*
X528079Y1128623D02*
G54D15*
D03*
X528079Y1135023D02*
G54D15*
D03*
X528079Y1141423D02*
G54D15*
D03*
X528079Y1147723D02*
G54D15*
D03*
X528079Y1154023D02*
G54D15*
D03*
X528079Y1160423D02*
G54D15*
D03*
X528079Y1166823D02*
G54D15*
D03*
X528079Y1173123D02*
G54D15*
D03*
X528079Y1179423D02*
G54D15*
D03*
X528079Y1185823D02*
G54D15*
D03*
X497679Y1216223D02*
G54D14*
D03*
X491279Y1216223D02*
G54D14*
D03*
X484979Y1216223D02*
G54D14*
D03*
X478679Y1216223D02*
G54D14*
D03*
X472279Y1216223D02*
G54D14*
D03*
X465879Y1216223D02*
G54D14*
D03*
X459579Y1216223D02*
G54D14*
D03*
X453279Y1216223D02*
G54D14*
D03*
X446879Y1216223D02*
G54D14*
D03*
X440479Y1216223D02*
G54D14*
D03*
X434179Y1216223D02*
G54D14*
D03*
X427879Y1216223D02*
G54D14*
D03*
X421479Y1216223D02*
G54D14*
D03*
X415079Y1216223D02*
G54D14*
D03*
X408779Y1216223D02*
G54D14*
D03*
X402479Y1216223D02*
G54D14*
D03*
X396079Y1216223D02*
G54D14*
D03*
X389679Y1216223D02*
G54D14*
D03*
X383379Y1216223D02*
G54D14*
D03*
X377079Y1216223D02*
G54D14*
D03*
X370679Y1216223D02*
G54D14*
D03*
X364279Y1216223D02*
G54D14*
D03*
X357979Y1216223D02*
G54D14*
D03*
X351679Y1216223D02*
G54D14*
D03*
X345279Y1216223D02*
G54D14*
D03*
X338879Y1216223D02*
G54D14*
D03*
X332579Y1216223D02*
G54D14*
D03*
X326279Y1216223D02*
G54D14*
D03*
X319879Y1216223D02*
G54D14*
D03*
X313479Y1216223D02*
G54D14*
D03*
X307179Y1216223D02*
G54D14*
D03*
X300879Y1216223D02*
G54D14*
D03*
X294479Y1216223D02*
G54D14*
D03*
X264079Y1185823D02*
G54D15*
D03*
X264079Y1179423D02*
G54D15*
D03*
X264079Y1173123D02*
G54D15*
D03*
X264079Y1166823D02*
G54D15*
D03*
X264079Y1160423D02*
G54D15*
D03*
X264079Y1154023D02*
G54D15*
D03*
X264079Y1147723D02*
G54D15*
D03*
X264079Y1141423D02*
G54D15*
D03*
X264079Y1135023D02*
G54D15*
D03*
X264079Y1128623D02*
G54D15*
D03*
X264079Y1122323D02*
G54D15*
D03*
X264079Y1116023D02*
G54D15*
D03*
X264079Y1109623D02*
G54D15*
D03*
X264079Y1103223D02*
G54D15*
D03*
X264079Y1096923D02*
G54D15*
D03*
X264079Y1090623D02*
G54D15*
D03*
X264079Y1084223D02*
G54D15*
D03*
X264079Y1077823D02*
G54D15*
D03*
X264079Y1071523D02*
G54D15*
D03*
X264079Y1065223D02*
G54D15*
D03*
X264079Y1058823D02*
G54D15*
D03*
X264079Y1052423D02*
G54D15*
D03*
X264079Y1046123D02*
G54D15*
D03*
X264079Y1039823D02*
G54D15*
D03*
X264079Y1033423D02*
G54D15*
D03*
X264079Y1027023D02*
G54D15*
D03*
X264079Y1020723D02*
G54D15*
D03*
X264079Y1014423D02*
G54D15*
D03*
X264079Y1008023D02*
G54D15*
D03*
X264079Y1001623D02*
G54D15*
D03*
X264079Y995323D02*
G54D15*
D03*
X264079Y989023D02*
G54D15*
D03*
X264079Y982623D02*
G54D15*
D03*
X1349570Y1419404D02*
G54D10*
D03*
X1336870Y1419404D02*
G54D10*
D03*
X1324170Y1419404D02*
G54D10*
D03*
X1306570Y1401804D02*
G54D11*
D03*
X1306570Y1389104D02*
G54D11*
D03*
X1306570Y1376404D02*
G54D11*
D03*
X1306570Y1363704D02*
G54D11*
D03*
X1306570Y1351004D02*
G54D11*
D03*
X1324170Y1333404D02*
G54D10*
D03*
X1336870Y1333404D02*
G54D10*
D03*
X1349570Y1333404D02*
G54D10*
D03*
X1362270Y1333404D02*
G54D10*
D03*
X1374970Y1333404D02*
G54D10*
D03*
X1392570Y1351004D02*
G54D11*
D03*
X1392570Y1363704D02*
G54D11*
D03*
X1392570Y1376404D02*
G54D11*
D03*
X1392570Y1389104D02*
G54D11*
D03*
X1392570Y1401804D02*
G54D11*
D03*
X1374970Y1419404D02*
G54D10*
D03*
X1362270Y1419404D02*
G54D10*
D03*
X1348775Y1498416D02*
G54D10*
D03*
X1361475Y1498416D02*
G54D10*
D03*
X1374175Y1498416D02*
G54D10*
D03*
X1391775Y1516016D02*
G54D11*
D03*
X1391775Y1528716D02*
G54D11*
D03*
X1391775Y1541416D02*
G54D11*
D03*
X1391775Y1554116D02*
G54D11*
D03*
X1391775Y1566816D02*
G54D11*
D03*
X1374175Y1584416D02*
G54D10*
D03*
X1361475Y1584416D02*
G54D10*
D03*
X1348775Y1584416D02*
G54D10*
D03*
X1336075Y1584416D02*
G54D10*
D03*
X1323375Y1584416D02*
G54D10*
D03*
X1305775Y1566816D02*
G54D11*
D03*
X1305775Y1554116D02*
G54D11*
D03*
X1305775Y1541416D02*
G54D11*
D03*
X1305775Y1528716D02*
G54D11*
D03*
X1305775Y1516016D02*
G54D11*
D03*
X1323375Y1498416D02*
G54D10*
D03*
X1336075Y1498416D02*
G54D10*
D03*
X1120626Y941421D02*
G54D16*
D03*
X1120626Y933421D02*
G54D16*
D03*
X1120626Y925421D02*
G54D16*
D03*
X1120626Y917421D02*
G54D16*
D03*
X1120626Y909421D02*
G54D16*
D03*
X1120626Y901421D02*
G54D16*
D03*
X1120626Y893421D02*
G54D16*
D03*
X1120626Y885421D02*
G54D16*
D03*
X1120626Y877421D02*
G54D16*
D03*
X1120626Y869421D02*
G54D16*
D03*
X1120626Y861421D02*
G54D16*
D03*
X1120626Y853421D02*
G54D16*
D03*
X1120626Y845421D02*
G54D16*
D03*
X1120626Y837421D02*
G54D16*
D03*
X1120626Y829421D02*
G54D16*
D03*
X1120626Y821421D02*
G54D16*
D03*
X1120626Y813421D02*
G54D16*
D03*
X1120626Y805421D02*
G54D16*
D03*
X1120626Y797421D02*
G54D16*
D03*
X1120626Y789420D02*
G54D16*
D03*
X1120626Y781420D02*
G54D16*
D03*
X1120626Y773420D02*
G54D16*
D03*
X1120626Y765420D02*
G54D16*
D03*
X1120626Y757420D02*
G54D16*
D03*
X1120626Y749421D02*
G54D16*
D03*
X1120626Y741421D02*
G54D16*
D03*
X1120626Y733421D02*
G54D16*
D03*
X1120626Y725421D02*
G54D16*
D03*
X1120626Y717421D02*
G54D16*
D03*
X1120626Y709421D02*
G54D16*
D03*
X1120626Y701421D02*
G54D16*
D03*
X1120626Y693421D02*
G54D16*
D03*
X1150007Y664039D02*
G54D17*
D03*
X1158007Y664039D02*
G54D17*
D03*
X1166007Y664039D02*
G54D17*
D03*
X1174007Y664039D02*
G54D17*
D03*
X1182007Y664039D02*
G54D17*
D03*
X1190007Y664039D02*
G54D17*
D03*
X1198007Y664039D02*
G54D17*
D03*
X1206007Y664039D02*
G54D17*
D03*
X1214007Y664039D02*
G54D17*
D03*
X1222007Y664039D02*
G54D17*
D03*
X1230007Y664039D02*
G54D17*
D03*
X1238007Y664039D02*
G54D17*
D03*
X1246007Y664039D02*
G54D17*
D03*
X1254007Y664039D02*
G54D17*
D03*
X1262007Y664039D02*
G54D17*
D03*
X1270007Y664039D02*
G54D17*
D03*
X1278007Y664039D02*
G54D17*
D03*
X1286007Y664039D02*
G54D17*
D03*
X1294007Y664039D02*
G54D17*
D03*
X1302007Y664039D02*
G54D17*
D03*
X1310007Y664039D02*
G54D17*
D03*
X1318007Y664039D02*
G54D17*
D03*
X1326007Y664039D02*
G54D17*
D03*
X1334007Y664039D02*
G54D17*
D03*
X1342007Y664039D02*
G54D17*
D03*
X1350007Y664039D02*
G54D17*
D03*
X1358007Y664039D02*
G54D17*
D03*
X1366007Y664039D02*
G54D17*
D03*
X1374007Y664039D02*
G54D17*
D03*
X1382007Y664039D02*
G54D17*
D03*
X1390007Y664039D02*
G54D17*
D03*
X1398007Y664039D02*
G54D17*
D03*
X1427389Y693421D02*
G54D16*
D03*
X1427389Y701421D02*
G54D16*
D03*
X1427389Y709421D02*
G54D16*
D03*
X1427389Y717421D02*
G54D16*
D03*
X1427389Y725421D02*
G54D16*
D03*
X1427389Y733421D02*
G54D16*
D03*
X1427389Y741421D02*
G54D16*
D03*
X1427389Y749421D02*
G54D16*
D03*
X1427389Y757420D02*
G54D16*
D03*
X1427389Y765420D02*
G54D16*
D03*
X1427389Y773420D02*
G54D16*
D03*
X1427389Y781420D02*
G54D16*
D03*
X1427389Y789420D02*
G54D16*
D03*
X1427389Y797421D02*
G54D16*
D03*
X1427389Y805421D02*
G54D16*
D03*
X1427389Y813421D02*
G54D16*
D03*
X1427389Y821421D02*
G54D16*
D03*
X1427389Y829421D02*
G54D16*
D03*
X1427389Y837421D02*
G54D16*
D03*
X1427389Y845421D02*
G54D16*
D03*
X1427389Y853421D02*
G54D16*
D03*
X1427389Y861421D02*
G54D16*
D03*
X1427389Y869421D02*
G54D16*
D03*
X1427389Y877421D02*
G54D16*
D03*
X1427389Y885421D02*
G54D16*
D03*
X1427389Y893421D02*
G54D16*
D03*
X1427389Y901421D02*
G54D16*
D03*
X1427389Y909421D02*
G54D16*
D03*
X1427389Y917421D02*
G54D16*
D03*
X1427389Y925421D02*
G54D16*
D03*
X1427389Y933421D02*
G54D16*
D03*
X1427389Y941421D02*
G54D16*
D03*
X1398007Y970802D02*
G54D17*
D03*
X1390007Y970802D02*
G54D17*
D03*
X1382007Y970802D02*
G54D17*
D03*
X1374007Y970802D02*
G54D17*
D03*
X1366007Y970802D02*
G54D17*
D03*
X1358007Y970802D02*
G54D17*
D03*
X1350007Y970802D02*
G54D17*
D03*
X1342007Y970802D02*
G54D17*
D03*
X1334007Y970802D02*
G54D17*
D03*
X1326007Y970802D02*
G54D17*
D03*
X1318007Y970802D02*
G54D17*
D03*
X1310007Y970802D02*
G54D17*
D03*
X1302007Y970802D02*
G54D17*
D03*
X1294007Y970802D02*
G54D17*
D03*
X1286007Y970802D02*
G54D17*
D03*
X1278007Y970802D02*
G54D17*
D03*
X1270007Y970802D02*
G54D17*
D03*
X1262007Y970802D02*
G54D17*
D03*
X1254007Y970802D02*
G54D17*
D03*
X1246007Y970802D02*
G54D17*
D03*
X1238007Y970802D02*
G54D17*
D03*
X1230007Y970802D02*
G54D17*
D03*
X1222007Y970802D02*
G54D17*
D03*
X1214007Y970802D02*
G54D17*
D03*
X1206007Y970802D02*
G54D17*
D03*
X1198007Y970802D02*
G54D17*
D03*
X1190007Y970802D02*
G54D17*
D03*
X1182007Y970802D02*
G54D17*
D03*
X1174007Y970802D02*
G54D17*
D03*
X1166007Y970802D02*
G54D17*
D03*
X1158007Y970802D02*
G54D17*
D03*
X1150007Y970802D02*
G54D17*
D03*
X1456305Y1490735D02*
G54D18*
D03*
X1469005Y1490735D02*
G54D18*
D03*
X1481705Y1490735D02*
G54D18*
D03*
X1494405Y1490735D02*
G54D18*
D03*
X1507105Y1490735D02*
G54D18*
D03*
X1519805Y1490735D02*
G54D18*
D03*
X1532505Y1490735D02*
G54D18*
D03*
X1545205Y1490735D02*
G54D18*
D03*
X1557905Y1490735D02*
G54D18*
D03*
X1570605Y1490735D02*
G54D18*
D03*
X1570605Y1592260D02*
G54D18*
D03*
X1557905Y1592260D02*
G54D18*
D03*
X1545205Y1592260D02*
G54D18*
D03*
X1532505Y1592260D02*
G54D18*
D03*
X1519805Y1592260D02*
G54D18*
D03*
X1507105Y1592260D02*
G54D18*
D03*
X1494405Y1592260D02*
G54D18*
D03*
X1481705Y1592260D02*
G54D18*
D03*
X1469005Y1592260D02*
G54D18*
D03*
X1456305Y1592260D02*
G54D18*
D03*
X2092438Y1323527D02*
G54D18*
D03*
X2105138Y1323527D02*
G54D18*
D03*
X2117838Y1323527D02*
G54D18*
D03*
X2130538Y1323527D02*
G54D18*
D03*
X2130538Y1379877D02*
G54D18*
D03*
X2117838Y1379877D02*
G54D18*
D03*
X2105138Y1379877D02*
G54D18*
D03*
X2092438Y1379877D02*
G54D18*
D03*
X1503989Y1331786D02*
G54D19*
D03*
X1503989Y1344486D02*
G54D19*
D03*
X1503989Y1357185D02*
G54D19*
D03*
X1503989Y1369885D02*
G54D19*
D03*
X1503989Y1382585D02*
G54D19*
D03*
X1503989Y1395285D02*
G54D19*
D03*
X1503989Y1407985D02*
G54D19*
D03*
X1503989Y1420685D02*
G54D19*
D03*
X1447639Y1420685D02*
G54D19*
D03*
X1447639Y1407985D02*
G54D19*
D03*
X1447639Y1395285D02*
G54D19*
D03*
X1447639Y1382585D02*
G54D19*
D03*
X1447639Y1369885D02*
G54D19*
D03*
X1447639Y1357185D02*
G54D19*
D03*
X1447639Y1344486D02*
G54D19*
D03*
X1447639Y1331786D02*
G54D19*
D03*
X2087650Y303801D02*
G54D11*
D03*
X2087650Y316501D02*
G54D11*
D03*
X2087650Y329201D02*
G54D11*
D03*
X2087650Y341902D02*
G54D11*
D03*
X2087650Y354602D02*
G54D11*
D03*
X2087650Y367302D02*
G54D11*
D03*
X2070148Y384802D02*
G54D10*
D03*
X2057448Y384802D02*
G54D10*
D03*
X2044748Y384802D02*
G54D10*
D03*
X2032048Y384802D02*
G54D10*
D03*
X2019348Y384802D02*
G54D10*
D03*
X2006648Y384802D02*
G54D10*
D03*
X1993948Y384802D02*
G54D10*
D03*
X1981248Y384802D02*
G54D10*
D03*
X1968548Y384802D02*
G54D10*
D03*
X1955848Y384802D02*
G54D10*
D03*
X1943148Y384802D02*
G54D10*
D03*
X1925648Y367302D02*
G54D11*
D03*
X1925648Y354602D02*
G54D11*
D03*
X1925648Y341902D02*
G54D11*
D03*
X1925648Y329201D02*
G54D11*
D03*
X1925648Y316501D02*
G54D11*
D03*
X1925648Y303801D02*
G54D11*
D03*
X1925648Y291101D02*
G54D11*
D03*
X1925648Y278401D02*
G54D11*
D03*
X1925648Y265701D02*
G54D11*
D03*
X1925648Y253001D02*
G54D11*
D03*
X1925648Y240301D02*
G54D11*
D03*
X1943148Y222801D02*
G54D10*
D03*
X1955848Y222801D02*
G54D10*
D03*
X1968548Y222801D02*
G54D10*
D03*
X1981248Y222801D02*
G54D10*
D03*
X1993948Y222801D02*
G54D10*
D03*
X2006648Y222801D02*
G54D10*
D03*
X2019348Y222801D02*
G54D10*
D03*
X2032048Y222801D02*
G54D10*
D03*
X2044748Y222801D02*
G54D10*
D03*
X2057448Y222801D02*
G54D10*
D03*
X2070148Y222801D02*
G54D10*
D03*
X2087650Y240301D02*
G54D11*
D03*
X2087650Y253001D02*
G54D11*
D03*
X2087650Y265701D02*
G54D11*
D03*
X2087650Y278401D02*
G54D11*
D03*
X2087650Y291101D02*
G54D11*
D03*
X1609342Y1490944D02*
G54D18*
D03*
X1622042Y1490944D02*
G54D18*
D03*
X1634742Y1490944D02*
G54D18*
D03*
X1647442Y1490944D02*
G54D18*
D03*
X1660142Y1490944D02*
G54D18*
D03*
X1672842Y1490944D02*
G54D18*
D03*
X1685542Y1490944D02*
G54D18*
D03*
X1698242Y1490944D02*
G54D18*
D03*
X1710942Y1490944D02*
G54D18*
D03*
X1723642Y1490944D02*
G54D18*
D03*
X1723642Y1592470D02*
G54D18*
D03*
X1710942Y1592470D02*
G54D18*
D03*
X1698242Y1592470D02*
G54D18*
D03*
X1685542Y1592470D02*
G54D18*
D03*
X1672842Y1592470D02*
G54D18*
D03*
X1660142Y1592470D02*
G54D18*
D03*
X1647442Y1592470D02*
G54D18*
D03*
X1634742Y1592470D02*
G54D18*
D03*
X1622042Y1592470D02*
G54D18*
D03*
X1609342Y1592470D02*
G54D18*
D03*
X1292745Y1147620D02*
G54D18*
D03*
X1305445Y1147620D02*
G54D18*
D03*
X1318145Y1147620D02*
G54D18*
D03*
X1330845Y1147620D02*
G54D18*
D03*
X1343545Y1147620D02*
G54D18*
D03*
X1356245Y1147620D02*
G54D18*
D03*
X1368945Y1147620D02*
G54D18*
D03*
X1381645Y1147620D02*
G54D18*
D03*
X1394345Y1147620D02*
G54D18*
D03*
X1407045Y1147620D02*
G54D18*
D03*
X1407045Y1249146D02*
G54D18*
D03*
X1394345Y1249146D02*
G54D18*
D03*
X1381645Y1249146D02*
G54D18*
D03*
X1368945Y1249146D02*
G54D18*
D03*
X1356245Y1249146D02*
G54D18*
D03*
X1343545Y1249146D02*
G54D18*
D03*
X1330845Y1249146D02*
G54D18*
D03*
X1318145Y1249146D02*
G54D18*
D03*
X1305445Y1249146D02*
G54D18*
D03*
X1292745Y1249146D02*
G54D18*
D03*
X1089545Y1147620D02*
G54D18*
D03*
X1102245Y1147620D02*
G54D18*
D03*
X1114945Y1147620D02*
G54D18*
D03*
X1127645Y1147620D02*
G54D18*
D03*
X1140345Y1147620D02*
G54D18*
D03*
X1153045Y1147620D02*
G54D18*
D03*
X1165745Y1147620D02*
G54D18*
D03*
X1178445Y1147620D02*
G54D18*
D03*
X1191145Y1147620D02*
G54D18*
D03*
X1203845Y1147620D02*
G54D18*
D03*
X1203845Y1249146D02*
G54D18*
D03*
X1191145Y1249146D02*
G54D18*
D03*
X1178445Y1249146D02*
G54D18*
D03*
X1165745Y1249146D02*
G54D18*
D03*
X1153045Y1249146D02*
G54D18*
D03*
X1140345Y1249146D02*
G54D18*
D03*
X1127645Y1249146D02*
G54D18*
D03*
X1114945Y1249146D02*
G54D18*
D03*
X1102245Y1249146D02*
G54D18*
D03*
X1089545Y1249146D02*
G54D18*
D03*
X814253Y1141187D02*
G54D19*
D03*
X814253Y1153887D02*
G54D19*
D03*
X814253Y1166587D02*
G54D19*
D03*
X814253Y1179287D02*
G54D19*
D03*
X814253Y1191987D02*
G54D19*
D03*
X814253Y1204687D02*
G54D19*
D03*
X814253Y1217387D02*
G54D19*
D03*
X814253Y1230087D02*
G54D19*
D03*
X814253Y1242787D02*
G54D19*
D03*
X814253Y1255487D02*
G54D19*
D03*
X814253Y1268187D02*
G54D19*
D03*
X814253Y1280886D02*
G54D19*
D03*
X814253Y1293585D02*
G54D19*
D03*
X814253Y1306285D02*
G54D19*
D03*
X713491Y1306285D02*
G54D19*
D03*
X713491Y1293585D02*
G54D19*
D03*
X713491Y1280886D02*
G54D19*
D03*
X713491Y1268187D02*
G54D19*
D03*
X713491Y1255487D02*
G54D19*
D03*
X713491Y1242787D02*
G54D19*
D03*
X713491Y1230087D02*
G54D19*
D03*
X713491Y1217387D02*
G54D19*
D03*
X713491Y1204687D02*
G54D19*
D03*
X713491Y1191987D02*
G54D19*
D03*
X713491Y1179287D02*
G54D19*
D03*
X713491Y1166587D02*
G54D19*
D03*
X713491Y1153887D02*
G54D19*
D03*
X713491Y1141187D02*
G54D19*
D03*
X719363Y1347840D02*
G54D18*
D03*
X732063Y1347840D02*
G54D18*
D03*
X744763Y1347840D02*
G54D18*
D03*
X757463Y1347840D02*
G54D18*
D03*
X757463Y1404190D02*
G54D18*
D03*
X744763Y1404190D02*
G54D18*
D03*
X732063Y1404190D02*
G54D18*
D03*
X719363Y1404190D02*
G54D18*
D03*
X554140Y1423895D02*
G54D18*
D03*
X566840Y1423895D02*
G54D18*
D03*
X579540Y1423895D02*
G54D18*
D03*
X592240Y1423895D02*
G54D18*
D03*
X592240Y1480245D02*
G54D18*
D03*
X579540Y1480245D02*
G54D18*
D03*
X566840Y1480245D02*
G54D18*
D03*
X554140Y1480245D02*
G54D18*
D03*
X465382Y1492442D02*
G54D18*
D03*
X452682Y1492442D02*
G54D18*
D03*
X439982Y1492442D02*
G54D18*
D03*
X427282Y1492442D02*
G54D18*
D03*
X427282Y1436092D02*
G54D18*
D03*
X439982Y1436092D02*
G54D18*
D03*
X452682Y1436092D02*
G54D18*
D03*
X465382Y1436092D02*
G54D18*
D03*
X108968Y1569958D02*
G54D18*
D03*
X96268Y1569958D02*
G54D18*
D03*
X83568Y1569958D02*
G54D18*
D03*
X70868Y1569958D02*
G54D18*
D03*
X70868Y1513608D02*
G54D18*
D03*
X83568Y1513608D02*
G54D18*
D03*
X96268Y1513608D02*
G54D18*
D03*
X108968Y1513608D02*
G54D18*
D03*
X678824Y995850D02*
G54D20*
D03*
G36*
X692824Y1004350D02*
X704824Y1004350D01*
X704824Y987350D01*
X692824Y987350D01*
X692824Y1004350D01*
G37*
X688824Y1020612D02*
G54D20*
D03*
X729624Y995850D02*
G54D20*
D03*
G36*
X743624Y1004350D02*
X755624Y1004350D01*
X755624Y987350D01*
X743624Y987350D01*
X743624Y1004350D01*
G37*
X739624Y1020612D02*
G54D20*
D03*
X704224Y1059350D02*
G54D20*
D03*
G36*
X718224Y1067850D02*
X730224Y1067850D01*
X730224Y1050850D01*
X718224Y1050850D01*
X718224Y1067850D01*
G37*
X714224Y1084112D02*
G54D20*
D03*
X460432Y1399036D02*
G54D21*
D03*
X460432Y1379036D02*
G54D21*
D03*
X485194Y1389036D02*
G54D21*
D03*
X725688Y1475164D02*
G54D21*
D03*
X725688Y1455164D02*
G54D21*
D03*
X750450Y1465164D02*
G54D21*
D03*
X597844Y1594805D02*
G54D22*
D03*
X597844Y1563630D02*
G54D22*
D03*
X1055021Y930022D02*
G54D22*
D03*
X1055021Y898847D02*
G54D22*
D03*
X1055021Y858584D02*
G54D22*
D03*
X1055021Y827409D02*
G54D22*
D03*
X281026Y1394353D02*
G54D23*
D03*
X281026Y1434253D02*
G54D23*
D03*
X814341Y1467430D02*
G54D24*
D03*
X814341Y1411868D02*
G54D24*
D03*
X660884Y1594364D02*
G54D24*
D03*
X660884Y1538802D02*
G54D24*
D03*
X344586Y1454787D02*
G54D24*
D03*
X344586Y1399224D02*
G54D24*
D03*
X529617Y1376523D02*
G54D25*
D03*
X567717Y1376523D02*
G54D25*
D03*
X648893Y1433836D02*
G54D26*
D03*
G36*
X642392Y1484936D02*
X655392Y1484936D01*
X655393Y1458936D01*
X642393Y1458936D01*
X642392Y1484936D01*
G37*
X510060Y1483968D02*
G54D26*
D03*
X510060Y1445868D02*
G54D26*
D03*
X378393Y1507999D02*
G54D25*
D03*
X340293Y1507999D02*
G54D25*
D03*
X470868Y1584697D02*
G54D26*
D03*
X470868Y1546597D02*
G54D26*
D03*
X417686Y1555274D02*
G54D25*
D03*
X379585Y1555274D02*
G54D25*
D03*
X417686Y1602899D02*
G54D25*
D03*
X379585Y1602899D02*
G54D25*
D03*
X121346Y1617319D02*
G54D25*
D03*
X83246Y1617319D02*
G54D25*
D03*
X84249Y1465478D02*
G54D25*
D03*
X122349Y1465478D02*
G54D25*
D03*
X1247486Y1370613D02*
G54D23*
D03*
X1247486Y1330713D02*
G54D23*
D03*
X1254866Y1066080D02*
G54D23*
D03*
X1254866Y1026180D02*
G54D23*
D03*
X1287953Y555980D02*
G54D23*
D03*
X1287953Y595880D02*
G54D23*
D03*
X2105370Y1275098D02*
G54D23*
D03*
X2105370Y1235199D02*
G54D23*
D03*
X2134381Y328746D02*
G54D23*
D03*
X2134381Y368646D02*
G54D23*
D03*
X1565570Y1336166D02*
G54D27*
D03*
X1578270Y1336166D02*
G54D27*
D03*
X1590970Y1336166D02*
G54D27*
D03*
X1603670Y1336166D02*
G54D27*
D03*
X1616370Y1336166D02*
G54D27*
D03*
X1667170Y1336166D02*
G54D27*
D03*
X1679870Y1336166D02*
G54D27*
D03*
X1692570Y1336166D02*
G54D27*
D03*
X1705270Y1336166D02*
G54D27*
D03*
X1717970Y1336166D02*
G54D27*
D03*
X1717970Y1416103D02*
G54D27*
D03*
X1705270Y1416103D02*
G54D27*
D03*
X1692570Y1416103D02*
G54D27*
D03*
X1679870Y1416103D02*
G54D27*
D03*
X1667170Y1416103D02*
G54D27*
D03*
X1616370Y1416103D02*
G54D27*
D03*
X1603670Y1416103D02*
G54D27*
D03*
X1590970Y1416103D02*
G54D27*
D03*
X1578270Y1416103D02*
G54D27*
D03*
X1565570Y1416103D02*
G54D27*
D03*
X1565570Y1209166D02*
G54D27*
D03*
X1578270Y1209166D02*
G54D27*
D03*
X1590970Y1209166D02*
G54D27*
D03*
X1603670Y1209166D02*
G54D27*
D03*
X1616370Y1209166D02*
G54D27*
D03*
X1667170Y1209166D02*
G54D27*
D03*
X1679870Y1209166D02*
G54D27*
D03*
X1692570Y1209166D02*
G54D27*
D03*
X1705270Y1209166D02*
G54D27*
D03*
X1717970Y1209166D02*
G54D27*
D03*
X1717970Y1289103D02*
G54D27*
D03*
X1705270Y1289103D02*
G54D27*
D03*
X1692570Y1289103D02*
G54D27*
D03*
X1679870Y1289103D02*
G54D27*
D03*
X1667170Y1289103D02*
G54D27*
D03*
X1616370Y1289103D02*
G54D27*
D03*
X1603670Y1289103D02*
G54D27*
D03*
X1590970Y1289103D02*
G54D27*
D03*
X1578270Y1289103D02*
G54D27*
D03*
X1565570Y1289103D02*
G54D27*
D03*
X1565570Y1082166D02*
G54D27*
D03*
X1578270Y1082166D02*
G54D27*
D03*
X1590970Y1082166D02*
G54D27*
D03*
X1603670Y1082166D02*
G54D27*
D03*
X1616370Y1082166D02*
G54D27*
D03*
X1667170Y1082166D02*
G54D27*
D03*
X1679870Y1082166D02*
G54D27*
D03*
X1692570Y1082166D02*
G54D27*
D03*
X1705270Y1082166D02*
G54D27*
D03*
X1717970Y1082166D02*
G54D27*
D03*
X1717970Y1162103D02*
G54D27*
D03*
X1705270Y1162103D02*
G54D27*
D03*
X1692570Y1162103D02*
G54D27*
D03*
X1679870Y1162103D02*
G54D27*
D03*
X1667170Y1162103D02*
G54D27*
D03*
X1616370Y1162103D02*
G54D27*
D03*
X1603670Y1162103D02*
G54D27*
D03*
X1590970Y1162103D02*
G54D27*
D03*
X1578270Y1162103D02*
G54D27*
D03*
X1565570Y1162103D02*
G54D27*
D03*
X1565570Y955166D02*
G54D27*
D03*
X1578270Y955166D02*
G54D27*
D03*
X1590970Y955166D02*
G54D27*
D03*
X1603670Y955166D02*
G54D27*
D03*
X1616370Y955166D02*
G54D27*
D03*
X1667170Y955166D02*
G54D27*
D03*
X1679870Y955166D02*
G54D27*
D03*
X1692570Y955166D02*
G54D27*
D03*
X1705270Y955166D02*
G54D27*
D03*
X1717970Y955166D02*
G54D27*
D03*
X1717970Y1035103D02*
G54D27*
D03*
X1705270Y1035103D02*
G54D27*
D03*
X1692570Y1035103D02*
G54D27*
D03*
X1679870Y1035103D02*
G54D27*
D03*
X1667170Y1035103D02*
G54D27*
D03*
X1616370Y1035103D02*
G54D27*
D03*
X1603670Y1035103D02*
G54D27*
D03*
X1590970Y1035103D02*
G54D27*
D03*
X1578270Y1035103D02*
G54D27*
D03*
X1565570Y1035103D02*
G54D27*
D03*
X1565570Y828166D02*
G54D27*
D03*
X1578270Y828166D02*
G54D27*
D03*
X1590970Y828166D02*
G54D27*
D03*
X1603670Y828166D02*
G54D27*
D03*
X1616370Y828166D02*
G54D27*
D03*
X1667170Y828166D02*
G54D27*
D03*
X1679870Y828166D02*
G54D27*
D03*
X1692570Y828166D02*
G54D27*
D03*
X1705270Y828166D02*
G54D27*
D03*
X1717970Y828166D02*
G54D27*
D03*
X1717970Y908103D02*
G54D27*
D03*
X1705270Y908103D02*
G54D27*
D03*
X1692570Y908103D02*
G54D27*
D03*
X1679870Y908103D02*
G54D27*
D03*
X1667170Y908103D02*
G54D27*
D03*
X1616370Y908103D02*
G54D27*
D03*
X1603670Y908103D02*
G54D27*
D03*
X1590970Y908103D02*
G54D27*
D03*
X1578270Y908103D02*
G54D27*
D03*
X1565570Y908103D02*
G54D27*
D03*
X1565570Y701166D02*
G54D27*
D03*
X1578270Y701166D02*
G54D27*
D03*
X1590970Y701166D02*
G54D27*
D03*
X1603670Y701166D02*
G54D27*
D03*
X1616370Y701166D02*
G54D27*
D03*
X1667170Y701166D02*
G54D27*
D03*
X1679870Y701166D02*
G54D27*
D03*
X1692570Y701166D02*
G54D27*
D03*
X1705270Y701166D02*
G54D27*
D03*
X1717970Y701166D02*
G54D27*
D03*
X1717970Y781103D02*
G54D27*
D03*
X1705270Y781103D02*
G54D27*
D03*
X1692570Y781103D02*
G54D27*
D03*
X1679870Y781103D02*
G54D27*
D03*
X1667170Y781103D02*
G54D27*
D03*
X1616370Y781103D02*
G54D27*
D03*
X1603670Y781103D02*
G54D27*
D03*
X1590970Y781103D02*
G54D27*
D03*
X1578270Y781103D02*
G54D27*
D03*
X1565570Y781103D02*
G54D27*
D03*
X1565570Y574166D02*
G54D27*
D03*
X1578270Y574166D02*
G54D27*
D03*
X1590970Y574166D02*
G54D27*
D03*
X1603670Y574166D02*
G54D27*
D03*
X1616370Y574166D02*
G54D27*
D03*
X1667170Y574166D02*
G54D27*
D03*
X1679870Y574166D02*
G54D27*
D03*
X1692570Y574166D02*
G54D27*
D03*
X1705270Y574166D02*
G54D27*
D03*
X1717970Y574166D02*
G54D27*
D03*
X1717970Y654103D02*
G54D27*
D03*
X1705270Y654103D02*
G54D27*
D03*
X1692570Y654103D02*
G54D27*
D03*
X1679870Y654103D02*
G54D27*
D03*
X1667170Y654103D02*
G54D27*
D03*
X1616370Y654103D02*
G54D27*
D03*
X1603670Y654103D02*
G54D27*
D03*
X1590970Y654103D02*
G54D27*
D03*
X1578270Y654103D02*
G54D27*
D03*
X1565570Y654103D02*
G54D27*
D03*
X1565570Y447166D02*
G54D27*
D03*
X1578270Y447166D02*
G54D27*
D03*
X1590970Y447166D02*
G54D27*
D03*
X1603670Y447166D02*
G54D27*
D03*
X1616370Y447166D02*
G54D27*
D03*
X1667170Y447166D02*
G54D27*
D03*
X1679870Y447166D02*
G54D27*
D03*
X1692570Y447166D02*
G54D27*
D03*
X1705270Y447166D02*
G54D27*
D03*
X1717970Y447166D02*
G54D27*
D03*
X1717970Y527103D02*
G54D27*
D03*
X1705270Y527103D02*
G54D27*
D03*
X1692570Y527103D02*
G54D27*
D03*
X1679870Y527103D02*
G54D27*
D03*
X1667170Y527103D02*
G54D27*
D03*
X1616370Y527103D02*
G54D27*
D03*
X1603670Y527103D02*
G54D27*
D03*
X1590970Y527103D02*
G54D27*
D03*
X1578270Y527103D02*
G54D27*
D03*
X1565570Y527103D02*
G54D27*
D03*
X2181570Y1643001D02*
G54D23*
D03*
X2181570Y1603102D02*
G54D23*
D03*
X463422Y225607D02*
G54D28*
D03*
X503321Y225607D02*
G54D28*
D03*
X1261342Y1630357D02*
G54D29*
D03*
X1308966Y1630357D02*
G54D29*
D03*
X1909977Y1636902D02*
G54D30*
D03*
X1956474Y1636942D02*
G54D30*
D03*
X1992527Y1636902D02*
G54D30*
D03*
X2039024Y1636942D02*
G54D30*
D03*
X2075077Y1636902D02*
G54D30*
D03*
X2121574Y1636942D02*
G54D30*
D03*
X1462302Y449452D02*
G54D30*
D03*
X1508799Y449492D02*
G54D30*
D03*
X1051262Y694321D02*
G54D31*
D03*
X1051302Y647824D02*
G54D31*
D03*
X2131752Y1019309D02*
G54D24*
D03*
X2131752Y1074871D02*
G54D24*
D03*
X2133554Y630818D02*
G54D24*
D03*
X2133554Y575256D02*
G54D24*
D03*
X2133554Y503818D02*
G54D24*
D03*
X2133554Y448256D02*
G54D24*
D03*
X1823469Y1636910D02*
G54D32*
D03*
X1823469Y1598810D02*
G54D32*
D03*
X1823469Y1611510D02*
G54D32*
D03*
X1823469Y1624210D02*
G54D32*
D03*
X1823469Y1573410D02*
G54D32*
D03*
X1823469Y1586110D02*
G54D32*
D03*
X1863157Y1636910D02*
G54D32*
D03*
X1863157Y1598810D02*
G54D32*
D03*
X1863157Y1611510D02*
G54D32*
D03*
X1863157Y1624210D02*
G54D32*
D03*
X1863157Y1573410D02*
G54D32*
D03*
X1863157Y1586110D02*
G54D32*
D03*
X915617Y310950D02*
G54D33*
D03*
X622326Y310950D02*
G54D33*
D03*
M02*
