; Drill file
; Format: 2.4 (00.0000)
M48
INCH
T01C0.0157
T02C0.0283
T03C0.0394
T04C0.0425
T05C0.0472
T06C0.063
T07C0.0709
T08C0.0827
T09C0.0945
T10C0.0984
T11C0.1378
%
G05
G90
T01
X003100Y005820
X003100Y006990
X005130Y008030
X008170Y008020
X010370Y007240
X011570Y008020
X011170Y005650
X010370Y003620
X014570Y008020
X017460Y008880
X020670Y008880
X020790Y007820
X020200Y012740
X021200Y015210
X021590Y018210
X018180Y016450
X017180Y017040
X013570Y018230
X010150Y019620
X010170Y020620
X010760Y021240
X011350Y021620
X010570Y022210
X010950Y023210
X010950Y024210
X010950Y025210
X011130Y027210
X016130Y031210
X016130Y032200
X016130Y033210
X016520Y035010
X015740Y035400
X014920Y035820
X013580Y038210
X016320Y038210
X018170Y038210
X018880Y038210
X019730Y038400
X019760Y039210
X018920Y039400
X018130Y039620
X018130Y040400
X018320Y041210
X018950Y040210
X016920Y040210
X016920Y041210
X015920Y041430
X015920Y042210
X015920Y042990
X015880Y043800
X015880Y044590
X015920Y045400
X014730Y045400
X014700Y044590
X014730Y043800
X014700Y042990
X014700Y042210
X014700Y041430
X015920Y040620
X012320Y041210
X009450Y041450
X010320Y037990
X010510Y034400
X018340Y032590
X019130Y032590
X019950Y032590
X019340Y034210
X018560Y034210
X021950Y032620
X021950Y031620
X021950Y030620
X024130Y031210
X024130Y032210
X024130Y033210
X026130Y033230
X026130Y032230
X026130Y031230
X026130Y030230
X026170Y029210
X027950Y029620
X027950Y030620
X028170Y032430
X028170Y033210
X028130Y035020
X027520Y035410
X028900Y035340
X029680Y034840
X033120Y035130
X035950Y033430
X036170Y032620
X035950Y031620
X037530Y030400
X035760Y029210
X035760Y027650
X035570Y026620
X035380Y025620
X041170Y028430
X042370Y027430
X043560Y026410
X044760Y026020
X045670Y027710
X045670Y028710
X044980Y029370
X045670Y029710
X045670Y030710
X045670Y031740
X045670Y032960
X045670Y033960
X045200Y034460
X045630Y035210
X044980Y036800
X046850Y037370
X048450Y037400
X049570Y036800
X050760Y036800
X051670Y035460
X050760Y034620
X050350Y033900
X049760Y034430
X049170Y033800
X048700Y032960
X049760Y030870
X050350Y031210
X050380Y030520
X049170Y030490
X048670Y029210
X049700Y027710
X050700Y027680
X051380Y027430
X050950Y024870
X050130Y025090
X049790Y023300
X049630Y022590
X049040Y021870
X046570Y022210
X046570Y020240
X043790Y020240
X046480Y024990
X047820Y025270
X046540Y027020
X043150Y029230
X042880Y030930
X041560Y031800
X041540Y034620
X042700Y034430
X040570Y035430
X039700Y035400
X039200Y034870
X036480Y034240
X036150Y037200
X036540Y037800
X036930Y037210
X037340Y037800
X037340Y038400
X038150Y038410
X038340Y039010
X037950Y037800
X040540Y039620
X040540Y040430
X040540Y041020
X040730Y041990
X041540Y041620
X041540Y040990
X041540Y040400
X041540Y039590
X041340Y037400
X043950Y039430
X044950Y039430
X044950Y040020
X044950Y040620
X045730Y040620
X045730Y041240
X045730Y041990
X048170Y041210
X048350Y042020
X048170Y040180
X049350Y039430
X051760Y042020
X052570Y042020
X053350Y042020
X053570Y040210
X053790Y037400
X054670Y036960
X054670Y035960
X052510Y037400
X051670Y034210
X051700Y032960
X054920Y032460
X055170Y031210
X057380Y030120
X057760Y031620
X057450Y032490
X057790Y033430
X057290Y034590
X058980Y034210
X061380Y034430
X062170Y034430
X061200Y035800
X064200Y035840
X064230Y035020
X065420Y034620
X066070Y034620
X066820Y034620
X067820Y034020
X068200Y032620
X068980Y032650
X068200Y031650
X068200Y030800
X067600Y029590
X066790Y029620
X066180Y028990
X065420Y029020
X064820Y028430
X064420Y028020
X063790Y028650
X063170Y028620
X062600Y028620
X062980Y029210
X064230Y030020
X064230Y030870
X065070Y031840
X064420Y033020
X061200Y030800
X061200Y025800
X061260Y024840
X062200Y024620
X062820Y024620
X062040Y023840
X061420Y023620
X061200Y020840
X063170Y018710
X064230Y020050
X064230Y020840
X064230Y021710
X065020Y022020
X064190Y025020
X064230Y025840
X068200Y025800
X068230Y026620
X068230Y027650
X069230Y023800
X068230Y022650
X068230Y020840
X069040Y020550
X068290Y017840
X071850Y017210
X073040Y018240
X073850Y020050
X074260Y020840
X073040Y020870
X076230Y021210
X077850Y021430
X078540Y023710
X078540Y024740
X080230Y025240
X080230Y026210
X080230Y024210
X077820Y026740
X077230Y027210
X077230Y029430
X078230Y029620
X078510Y031710
X078510Y032740
X078510Y033870
X080200Y034210
X080200Y033240
X080200Y032210
X080200Y036210
X080200Y037210
X078480Y040620
X078480Y041710
X078480Y042710
X078480Y044620
X081200Y044210
X081200Y043210
X081200Y042210
X080170Y041210
X083920Y043400
X082980Y044620
X083380Y045020
X083760Y045400
X083980Y045990
X084130Y046650
X084570Y047210
X084980Y047710
X085230Y048300
X085600Y046020
X085380Y045210
X081170Y048210
X081170Y049210
X081760Y050210
X081380Y051180
X083880Y051210
X083950Y050430
X081980Y053620
X081880Y055210
X082760Y055210
X083540Y056020
X082700Y058400
X081730Y058400
X080520Y058400
X079640Y059300
X078920Y058710
X078920Y057740
X077320Y056210
X077770Y053800
X078450Y051930
X078450Y050770
X078450Y049740
X074170Y045210
X072130Y047210
X068980Y047620
X068200Y046430
X068170Y045620
X066600Y044240
X066010Y044620
X065350Y044620
X064790Y044210
X064170Y044990
X064200Y045800
X063380Y044400
X062570Y044620
X061980Y044620
X062130Y043800
X061380Y043800
X059570Y042990
X058170Y042620
X058170Y043400
X058170Y043990
X059170Y044990
X059630Y045490
X059170Y045990
X057980Y045990
X057760Y047770
X058570Y047800
X057980Y048990
X057130Y049020
X056010Y049180
X056760Y047800
X055760Y046020
X054950Y046210
X054350Y046210
X053760Y046210
X052200Y046710
X051540Y046550
X050920Y046210
X049700Y047180
X047810Y046900
X047380Y046120
X046900Y046410
X046380Y045990
X045880Y046380
X045380Y046020
X044880Y046430
X044430Y045960
X043880Y046300
X043380Y046010
X042510Y045990
X040930Y045900
X040920Y044400
X040950Y043400
X041510Y042620
X043130Y043990
X042320Y049210
X041670Y049590
X042100Y050400
X042600Y050790
X043120Y050400
X043590Y050840
X044310Y050350
X044670Y050840
X045230Y050540
X046130Y050630
X046880Y050840
X046930Y051790
X047950Y052590
X049130Y051590
X049950Y050990
X049540Y049210
X050350Y049210
X052200Y049960
X051540Y052210
X052320Y053710
X052320Y054990
X052630Y056840
X052760Y057840
X052100Y057990
X051320Y058180
X049700Y059400
X048100Y059370
X048100Y058370
X048100Y057210
X048130Y056180
X048130Y055210
X048130Y054180
X049730Y055210
X050320Y055930
X049130Y056770
X045730Y057180
X044100Y056210
X045920Y055180
X045920Y053590
X042710Y053800
X042120Y053380
X041290Y053800
X038710Y053710
X038200Y054200
X038680Y054700
X038210Y055200
X038680Y055700
X038240Y056200
X039100Y056600
X038680Y057210
X038200Y057700
X038680Y058180
X038180Y058680
X038700Y059200
X038180Y059710
X038570Y060200
X038200Y060680
X038670Y061070
X039070Y060590
X039560Y061090
X040060Y060550
X040560Y061090
X041070Y060570
X042070Y059680
X041290Y057990
X044100Y059700
X044060Y061070
X045700Y060800
X045900Y059680
X048100Y060400
X048100Y061400
X046920Y061990
X048520Y063910
X050700Y062400
X050320Y061620
X052310Y060790
X052950Y061020
X053600Y061620
X053790Y060710
X053600Y059770
X054920Y058590
X055730Y058430
X055730Y057770
X056570Y057840
X056540Y058430
X056510Y059400
X058370Y059960
X058390Y061730
X056510Y061620
X055880Y062990
X054880Y062590
X054880Y063430
X054070Y063430
X059450Y063800
X061860Y061730
X063390Y061730
X063390Y059640
X061860Y059640
X062130Y057180
X061130Y057180
X059920Y056800
X060130Y055960
X061130Y055800
X061760Y054620
X062170Y054020
X062950Y053800
X063130Y054800
X062540Y054800
X061320Y053800
X060170Y053960
X060170Y053300
X061100Y052270
X060760Y051620
X061130Y050800
X061170Y050020
X060350Y050590
X059760Y050800
X056920Y051800
X055920Y051770
X054950Y051180
X056130Y052930
X056130Y054430
X056130Y055210
X056130Y055960
X057010Y056870
X057730Y056870
X058350Y056770
X059130Y057240
X058920Y057770
X058320Y057770
X057700Y057770
X054100Y057680
X060170Y054710
X063130Y057180
X064130Y057180
X064170Y055800
X064170Y055020
X064540Y052990
X064730Y051800
X064170Y050800
X064170Y050020
X065170Y050020
X068170Y050590
X068170Y051430
X069130Y052020
X069130Y052590
X069130Y053990
X068130Y055840
X069130Y056180
X068320Y057590
X067540Y057590
X066540Y057590
X065540Y057590
X068540Y058590
X069320Y058300
X069730Y058960
X071130Y058340
X072730Y058620
X073510Y058620
X073510Y057800
X074100Y059710
X074100Y060800
X075100Y061710
X076100Y061710
X075920Y062400
X074070Y062430
X074010Y063200
X074010Y064020
X074010Y064800
X072700Y061990
X071320Y061120
X068510Y062620
X066010Y063800
X073100Y054800
X077880Y061710
X078880Y061710
X079850Y061710
X080540Y061800
X081380Y060700
X084730Y061210
X085070Y062370
X084760Y063400
X084760Y064180
X079760Y065620
X078320Y065240
X061170Y047430
X060570Y047430
X059980Y047020
X060570Y046620
X061170Y045800
X061170Y040800
X061380Y039840
X061170Y039050
X062790Y039240
X063420Y039240
X064200Y039430
X064200Y040020
X064200Y040800
X064980Y039620
X065560Y039620
X064790Y038840
X067170Y039620
X067980Y039400
X068200Y040800
X069200Y041840
X068200Y042620
X068200Y037620
X068790Y036620
X068200Y035870
X069010Y035430
X072170Y035840
X071980Y039210
X074010Y028740
X075670Y018710
X077350Y016180
X079010Y016180
X079820Y016180
X082670Y016180
X083850Y015270
X085480Y017430
X082450Y018430
X082040Y019430
X082450Y020020
X081450Y020020
X081450Y019020
X084010Y021210
X083980Y025870
X085630Y033430
X083510Y011990
X080730Y012020
X079260Y012490
X076600Y012480
X076670Y011650
X076990Y009650
X078980Y009650
X074450Y012990
X074070Y013650
X074260Y014430
X075450Y003020
X078040Y003020
X058040Y018770
X057100Y018840
X056510Y018680
X056670Y019340
X055600Y019340
X055040Y018840
X055380Y018090
X054700Y017930
X054100Y017930
X053510Y017930
X052920Y017930
X052200Y017770
X051540Y017880
X050950Y018340
X050450Y018650
X051600Y021770
X051600Y022590
X051600Y023180
X053200Y021870
X054600Y020960
X054820Y020240
X056260Y021020
X056450Y021650
X056980Y022020
X056730Y022590
X056880Y023240
X057420Y023590
X057760Y022590
X057700Y019740
X056760Y017870
X054100Y018520
X054380Y027020
X048670Y035460
X050950Y044400
X051540Y044400
X052170Y044400
X052760Y044400
X053350Y044400
X056170Y042430
X056570Y042990
X057570Y041590
X057570Y040620
X056980Y040620
X058980Y041210
X041710Y051050
X040570Y051290
X040060Y050990
X039560Y050590
X038950Y050590
X038350Y050590
X037510Y050070
X036920Y051990
X034920Y054710
X034700Y055400
X033880Y055400
X033880Y056210
X035480Y058370
X035480Y058990
X035480Y059590
X035480Y060180
X035040Y060800
X035040Y061400
X035040Y062210
X034480Y062990
X033670Y063210
X033630Y063990
X033630Y064590
X032850Y062400
X031920Y060770
X030290Y061680
X027450Y061770
X024230Y063400
X023540Y063680
X020670Y063210
X018260Y064770
X016850Y064770
X016510Y063800
X017600Y062650
X017070Y060680
X017070Y059680
X016290Y058590
X016570Y057680
X017570Y057680
X018570Y057680
X020070Y059370
X021880Y060590
X023540Y060680
X023540Y059680
X023850Y058400
X024040Y057210
X024070Y056180
X023570Y055180
X023570Y054180
X023700Y052550
X024670Y052550
X024880Y051620
X025700Y051620
X026480Y050800
X025100Y050400
X024920Y048590
X026100Y048400
X027320Y048590
X026700Y046620
X029380Y046710
X029730Y048590
X029730Y049210
X030700Y048990
X030700Y049590
X030700Y050210
X031290Y050400
X031320Y051430
X032700Y052210
X033310Y052570
X032880Y053220
X033100Y050340
X033320Y048620
X033130Y047370
X033130Y046770
X031320Y047460
X032130Y043680
X032130Y042800
X033170Y040400
X030230Y040930
X029920Y040210
X029510Y041400
X029320Y043120
X026730Y042680
X026730Y041710
X026730Y043680
X022540Y042240
X019730Y042210
X020730Y038020
X021730Y037590
X026920Y038400
X028730Y038400
X029540Y038400
X021510Y048620
X021100Y049180
X021510Y049800
X021100Y051180
X020100Y051180
X020100Y050180
X018880Y047180
X016600Y047180
X015100Y046990
X014100Y046990
X013070Y046990
X012260Y046990
X011570Y046990
X011290Y046400
X013100Y045800
X013290Y049770
X016100Y049800
X016350Y048800
X017090Y054480
X017090Y055200
X016100Y055200
X015070Y055180
X012100Y055210
X012100Y056590
X010260Y058180
X009570Y057680
X008570Y057680
X007570Y055180
X005460Y055010
X005480Y056210
X004570Y056200
X003270Y056410
X005070Y058770
X003290Y060370
X004040Y062590
X005040Y062210
X005950Y064400
X005040Y064680
X005040Y065680
X008040Y065180
X009040Y062680
X010040Y062680
X010040Y061680
X010040Y060680
X009040Y060680
X008040Y061270
X007830Y060390
X012200Y060180
X013070Y061180
X014200Y060610
X013040Y062680
X013850Y063090
X011540Y064180
X020700Y055590
X019920Y054700
X019310Y053790
X022700Y052180
X025570Y053590
X027290Y054770
X027700Y053180
X028820Y053990
X029820Y053990
X030320Y055740
X030480Y056400
X027730Y057270
X027260Y056770
X027260Y057960
X028700Y051990
X036100Y057990
X037370Y061710
X037090Y062200
X030230Y064590
X040570Y050590
X039370Y048290
X009900Y048180
X007090Y051790
X006950Y018240
X007510Y017870
X006950Y016840
X008130Y016800
X008730Y015620
X008650Y013230
X011670Y014460
X014980Y012740
X025680Y012240
X027770Y013450
X027370Y015840
X028180Y016730
X029570Y018230
X030070Y014980
X030790Y011240
X030790Y010450
X030340Y010020
X031100Y009650
X030790Y008840
X031700Y008770
X029820Y008650
X027790Y008650
X030040Y010840
X031040Y003840
X031790Y003240
X032630Y003240
X027920Y003240
X023260Y003240
X039570Y003020
X039570Y004650
X037270Y012230
X037600Y018240
T02
X030630Y039180
X032630Y039180
X070140Y040200
X070140Y041200
X070140Y042200
X070140Y043200
X070140Y044200
X070140Y045200
X070140Y046200
X070140Y047200
X070140Y048200
X070140Y049200
X070140Y050200
X070140Y051200
X070140Y052200
X070140Y053200
X070140Y054200
X070140Y055200
X070140Y056200
X071140Y055700
X071140Y054700
X071140Y053700
X071140Y052700
X071140Y051700
X071140Y050700
X071140Y049700
X071140Y048700
X071140Y047700
X071140Y046700
X071140Y045700
X071140Y044700
X071140Y043700
X071140Y042700
X071140Y041700
X071140Y040700
X071140Y037700
X071140Y036700
X071140Y035700
X071140Y034700
X071140Y033700
X071140Y032700
X071140Y031700
X071140Y030700
X071140Y029700
X071140Y028700
X071140Y027700
X071140Y026700
X071140Y025700
X071140Y024700
X071140Y023700
X071140Y022700
X071140Y021700
X070140Y021200
X070140Y022200
X070140Y023200
X070140Y024200
X070140Y025200
X070140Y026200
X070140Y027200
X070140Y028200
X070140Y029200
X070140Y030200
X070140Y031200
X070140Y032200
X070140Y033200
X070140Y034200
X070140Y035200
X070140Y036200
X070140Y037200
X075130Y037240
X075130Y036240
X075130Y035240
X075130Y034240
X075130Y033240
X075130Y032240
X075130Y031240
X075130Y030240
X075130Y029240
X075130Y028240
X075130Y027240
X075130Y026240
X075130Y025240
X075130Y024240
X075130Y023240
X075130Y022240
X075130Y021240
X079130Y021240
X079130Y022240
X079130Y023240
X079130Y024240
X079130Y025240
X079130Y026240
X079130Y027240
X079130Y028240
X079130Y029240
X079130Y030240
X079130Y031240
X079130Y032240
X079130Y033240
X079130Y034240
X079130Y035240
X079130Y036240
X079130Y037240
X079130Y038240
X079130Y039240
X079130Y040240
X079130Y041240
X079130Y042240
X079130Y043240
X079130Y044240
X079130Y045240
X079130Y046240
X079130Y047240
X079130Y048240
X079130Y049240
X079130Y050240
X075130Y050240
X075130Y049240
X075130Y048240
X075130Y047240
X075130Y046240
X075130Y045240
X075130Y044240
X075130Y043240
X075130Y042240
X075130Y041240
X075130Y040240
X075130Y039240
X075130Y038240
X071140Y056700
T03
X012790Y004840
X013790Y004840
X014790Y004840
X015790Y004840
X015790Y005840
X014790Y005840
X013790Y005840
X012790Y005840
X016790Y005840
X017790Y005840
X018790Y005840
X018790Y004840
X017790Y004840
X016790Y004840
X019790Y004840
X020790Y004840
X021790Y004840
X022790Y004840
X023790Y004840
X024790Y004840
X025790Y004840
X026790Y004840
X027790Y004840
X028790Y004840
X029790Y004840
X030790Y004840
X031790Y004840
X032790Y004840
X033790Y004840
X034790Y004840
X035790Y004840
X036790Y004840
X036790Y005840
X035790Y005840
X034790Y005840
X033790Y005840
X032790Y005840
X031790Y005840
X030790Y005840
X029790Y005840
X028790Y005840
X027790Y005840
X026790Y005840
X025790Y005840
X024790Y005840
X023790Y005840
X022790Y005840
X021790Y005840
X020790Y005840
X019790Y005840
X013550Y010220
X012550Y010220
X011550Y010220
X011550Y011220
X012550Y011220
X013550Y011220
X010550Y011220
X009550Y011220
X009550Y010220
X010550Y010220
X008550Y010220
X007550Y010220
X007550Y011220
X006550Y011220
X006550Y010220
X005550Y010220
X005550Y011220
X004550Y011220
X004550Y010220
X008550Y011220
X009120Y018220
X009120Y019220
X009120Y020220
X009120Y021220
X009120Y022220
X009120Y023220
X009120Y024220
X009120Y025220
X009120Y026220
X009120Y027220
X009120Y028220
X009120Y029220
X009120Y030220
X009120Y031220
X009120Y032220
X009120Y033220
X005510Y033240
X005510Y032240
X005510Y031240
X005510Y030240
X005510Y029240
X005510Y028240
X005510Y027240
X005510Y026240
X005510Y025240
X005510Y024240
X005510Y023240
X004510Y023240
X004510Y024240
X004510Y025240
X004510Y026240
X004510Y027240
X004510Y028240
X004510Y029240
X004510Y030240
X004510Y031240
X004510Y032240
X004510Y033240
X004510Y034240
X005510Y034240
X005510Y035240
X005510Y036240
X005510Y037240
X004510Y037240
X004510Y036240
X004510Y035240
X003510Y035240
X003510Y034240
X003510Y033240
X003510Y032240
X003510Y031240
X003510Y030240
X003510Y029240
X003510Y028240
X003510Y027240
X003510Y026240
X003510Y025240
X003510Y024240
X003510Y023240
X003510Y022240
X004510Y022240
X005510Y022240
X005510Y021240
X004510Y021240
X003510Y021240
X015120Y021220
X015120Y020220
X015120Y019220
X015120Y018220
X017120Y018220
X017120Y019220
X017120Y020220
X017120Y021220
X017120Y022220
X017120Y023220
X017120Y024220
X017120Y025220
X017120Y026220
X017120Y027220
X017120Y028220
X017120Y029220
X017120Y030220
X017120Y031220
X017120Y032220
X017120Y033220
X015120Y033220
X015120Y032220
X015120Y031220
X015120Y030220
X015120Y029220
X015120Y028220
X015120Y027220
X015120Y026220
X015120Y025220
X015120Y024220
X015120Y023220
X015120Y022220
X023120Y022220
X023120Y021220
X023120Y020220
X023120Y019220
X023120Y018220
X025120Y018220
X025120Y019220
X025120Y020220
X025120Y021220
X025120Y022220
X025120Y023220
X025120Y024220
X025120Y025220
X025120Y026220
X025120Y027220
X025120Y028220
X025120Y029220
X025120Y030220
X025120Y031220
X025120Y032220
X025120Y033220
X023120Y033220
X023120Y032220
X023120Y031220
X023120Y030220
X023120Y029220
X023120Y028220
X023120Y027220
X023120Y026220
X023120Y025220
X023120Y024220
X023120Y023220
X031120Y023220
X031120Y022220
X031120Y021220
X031120Y020220
X031120Y019220
X031120Y018220
X033180Y018220
X033180Y019220
X033180Y020220
X033180Y021220
X033180Y022220
X033180Y023220
X033180Y024220
X033180Y025220
X033180Y026220
X033180Y027220
X033180Y028220
X033180Y029220
X033180Y030220
X033180Y031220
X033180Y032220
X033180Y033220
X031120Y033220
X031120Y032220
X031120Y031220
X031120Y030220
X031120Y029220
X031120Y028220
X031120Y027220
X031120Y026220
X031120Y025220
X031120Y024220
X039180Y024220
X039180Y023220
X039180Y022220
X039180Y021220
X039180Y020220
X039180Y019220
X039180Y018220
X042130Y020240
X042130Y023240
X039180Y025220
X039180Y026220
X039180Y027220
X039180Y028220
X039180Y029220
X039180Y030220
X039180Y031220
X039180Y032220
X039180Y033220
X033100Y042700
X033100Y043700
X032070Y054490
X032070Y059180
X032450Y060180
X031450Y060180
X030450Y060180
X029450Y060180
X029450Y063180
X030450Y063180
X031450Y063180
X032450Y063180
X032540Y066250
X032540Y067240
X029940Y067240
X029940Y066250
X026280Y066110
X026240Y066110
X026200Y066110
X026160Y066110
X026120Y066110
X026080Y066110
X026040Y066110
X026000Y066110
X025960Y066110
X025920Y066110
X025530Y066890
X025490Y066890
X025450Y066890
X025410Y066890
X025370Y066890
X025330Y066890
X025290Y066890
X025250Y066890
X025210Y066890
X025170Y066890
X025920Y068330
X025960Y068330
X026000Y068330
X026040Y068330
X026080Y068330
X026120Y068330
X026160Y068330
X026200Y068330
X026240Y068330
X026280Y068330
X025530Y069270
X025490Y069270
X025450Y069270
X025410Y069270
X025370Y069270
X025330Y069270
X025290Y069270
X025250Y069270
X025210Y069270
X025170Y069270
X021550Y068330
X021510Y068330
X021470Y068330
X021430Y068330
X021390Y068330
X021350Y068330
X021310Y068330
X021270Y068330
X021230Y068330
X021190Y068330
X020800Y069270
X020760Y069270
X020720Y069270
X020680Y069270
X020640Y069270
X020600Y069270
X020560Y069270
X020520Y069270
X020480Y069270
X020440Y069270
X020440Y066890
X020480Y066890
X020520Y066890
X020560Y066890
X020600Y066890
X020640Y066890
X020680Y066890
X020720Y066890
X020760Y066890
X020800Y066890
X021190Y066110
X021230Y066110
X021270Y066110
X021310Y066110
X021350Y066110
X021390Y066110
X021430Y066110
X021470Y066110
X021510Y066110
X021550Y066110
X020800Y064640
X020760Y064640
X020720Y064640
X020680Y064640
X020640Y064640
X020600Y064640
X020560Y064640
X020520Y064640
X020480Y064640
X020440Y064640
X025170Y064640
X025210Y064640
X025250Y064640
X025290Y064640
X025330Y064640
X025370Y064640
X025410Y064640
X025450Y064640
X025490Y064640
X025530Y064640
X005510Y052240
X004510Y052240
X004510Y051240
X004510Y050240
X005510Y050240
X005510Y051240
X003510Y051240
X003510Y050240
X003510Y049240
X003510Y048240
X004510Y048240
X004510Y047240
X005510Y047240
X005510Y046240
X005510Y045240
X005510Y044240
X005510Y043240
X005510Y042240
X005510Y041240
X005510Y040240
X005510Y039240
X005510Y038240
X004510Y038240
X004510Y039240
X004510Y040240
X004510Y041240
X004510Y042240
X004510Y043240
X004510Y044240
X004510Y045240
X004510Y046240
X003510Y046240
X003510Y045240
X003510Y044240
X003510Y043240
X003510Y042240
X003510Y041240
X003510Y040240
X003510Y039240
X003510Y038240
X003510Y037240
X003510Y036240
X003510Y047240
X005510Y048240
X005510Y049240
X004510Y049240
X003510Y052240
X048130Y023240
X048130Y020240
X053180Y020230
X053180Y023230
X059180Y023230
X059180Y020230
X074680Y005850
X074680Y004850
X075680Y004850
X075680Y005850
X076680Y005850
X076680Y004850
X077680Y004850
X077680Y005850
X078680Y005850
X078680Y004850
X079680Y004850
X079680Y005850
X080680Y005850
X080680Y004850
X081680Y004850
X082680Y004850
X082680Y005850
X081680Y005850
X083680Y005850
X083680Y004850
X067820Y066250
X067820Y067240
X067030Y067240
X066790Y066250
X066010Y066250
X065220Y066250
X065220Y067240
X066010Y067240
X061250Y067240
X060470Y067240
X060230Y066250
X059440Y066250
X058660Y066250
X058660Y067240
X059440Y067240
X061250Y066250
T04
X039040Y066270
X040140Y066270
X041220Y066270
X042310Y066270
X043400Y066270
X044490Y066270
X045580Y066270
X046670Y066270
X047770Y066270
X048850Y066270
X049940Y066270
X051030Y066270
X052120Y066270
X051580Y067390
X050490Y067390
X049400Y067390
X048310Y067390
X047220Y067390
X046140Y067390
X045040Y067390
X043950Y067390
X042860Y067390
X041810Y067390
X040680Y067390
X039590Y067390
T05
X017130Y014240
X018130Y014240
X019130Y014240
X019130Y015240
X018130Y015240
X017130Y015240
X022510Y012240
X034130Y012240
X038260Y009680
X039260Y009680
X040510Y014490
X041510Y014490
X042510Y014490
X033890Y068160
X033890Y068200
X033890Y068240
X033890Y068270
X033890Y068310
X033890Y068350
X033890Y068390
X033890Y068430
X033890Y068470
X033890Y068510
X033890Y068550
X033890Y068590
X033890Y068630
X033890Y068670
X033890Y068710
X031510Y068740
X031470Y068740
X031430Y068740
X031390Y068740
X031350Y068740
X031310Y068740
X031270Y068740
X031230Y068740
X031190Y068740
X031150Y068740
X031120Y068740
X031080Y068740
X031040Y068740
X031000Y068740
X030960Y068740
X028580Y068710
X028580Y068670
X028580Y068630
X028580Y068590
X028580Y068550
X028580Y068510
X028580Y068470
X028580Y068430
X028580Y068390
X028580Y068350
X028580Y068310
X028580Y068270
X028580Y068240
X028580Y068200
X028580Y068160
X057300Y068160
X057300Y068200
X057300Y068240
X057300Y068270
X057300Y068310
X057300Y068350
X057300Y068390
X057300Y068430
X057300Y068470
X057300Y068510
X057300Y068550
X057300Y068590
X057300Y068630
X057300Y068670
X057300Y068710
X059680Y068740
X059720Y068740
X059760Y068740
X059790Y068740
X059830Y068740
X059870Y068740
X059910Y068740
X059950Y068740
X059990Y068740
X060030Y068740
X060070Y068740
X060110Y068740
X060150Y068740
X060190Y068740
X060230Y068740
X062610Y068710
X062610Y068670
X062610Y068630
X062610Y068590
X062610Y068550
X062610Y068510
X062610Y068470
X062610Y068430
X062610Y068390
X062610Y068350
X062610Y068310
X062610Y068270
X062610Y068240
X062610Y068200
X062610Y068160
X063860Y068160
X063860Y068200
X063860Y068240
X063860Y068270
X063860Y068310
X063860Y068350
X063860Y068390
X063860Y068430
X063860Y068470
X063860Y068510
X063860Y068550
X063860Y068590
X063860Y068630
X063860Y068670
X063860Y068710
X066240Y068740
X066280Y068740
X066320Y068740
X066360Y068740
X066400Y068740
X066440Y068740
X066480Y068740
X066510Y068740
X066550Y068740
X066590Y068740
X066630Y068740
X066670Y068740
X066710Y068740
X066750Y068740
X066790Y068740
X069170Y068710
X069170Y068670
X069170Y068630
X069170Y068590
X069170Y068550
X069170Y068510
X069170Y068470
X069170Y068430
X069170Y068390
X069170Y068350
X069170Y068310
X069170Y068270
X069170Y068240
X069170Y068200
X069170Y068160
X074380Y066270
X075430Y066270
X076520Y066270
X077610Y066270
X078700Y066270
X079790Y066270
X080880Y066270
X081970Y066270
X081430Y067390
X080340Y067390
X079250Y067390
X078160Y067390
X077070Y067390
X075980Y067390
X074890Y067390
T06
X005760Y003490
X007380Y003490
X007380Y005620
X005760Y005620
X075130Y017490
X079130Y017490
T07
X070600Y017990
X070600Y038930
T08
X084020Y027870
X084020Y029430
X084020Y030990
X084020Y032550
X084020Y035680
X084020Y037240
T09
X070600Y059930
T10
X075130Y053930
X079130Y053930
T11
X036370Y066840
X054870Y066840
X071620Y066840
X084690Y066840
M30
