%FSLAX34Y34*%
%MOMM*%
%LNSOLDERMASK_TOP*%
G71*
G01*
%ADD10C,1.000*%
%ADD11R,0.840X2.400*%
%ADD12R,2.400X0.840*%
%ADD13R,0.840X2.300*%
%ADD14R,2.300X0.840*%
%ADD15R,0.650X2.000*%
%ADD16R,2.000X0.650*%
%ADD17R,2.400X0.700*%
%ADD18R,0.700X2.400*%
%ADD19R,0.900X2.100*%
%ADD20R,2.100X0.900*%
%ADD21R,1.400X1.900*%
%ADD22R,1.900X1.400*%
%ADD23R,2.000X1.600*%
%ADD24R,2.500X2.100*%
%ADD25R,1.600X3.600*%
%ADD26R,2.800X1.500*%
%ADD27R,1.500X2.800*%
%ADD28R,0.900X3.000*%
%ADD29R,2.100X2.500*%
%ADD30R,2.600X2.800*%
%ADD31R,2.200X2.400*%
%ADD32R,2.400X2.200*%
%ADD33C,1.600*%
%ADD34C,1.700*%
%ADD35C,1.800*%
%ADD36C,1.720*%
%ADD37C,1.720*%
%ADD38C,3.400*%
%ADD39C,2.500*%
%ADD40C,3.400*%
%ADD41C,2.500*%
%ADD42C,1.720*%
%ADD43C,2.200*%
%ADD44C,2.000*%
%ADD45C,2.300*%
%ADD46C,3.450*%
%ADD47C,2.600*%
%ADD48R,1.650X0.950*%
%ADD49C,0.400*%
%ADD50C,1.800*%
%ADD51C,0.438*%
%ADD52R,2.800X3.800*%
%ADD53C,0.518*%
%LPD*%
X2022839Y1506250D02*
G54D10*
D03*
X198854Y1533933D02*
G54D10*
D03*
X130195Y203933D02*
G54D10*
D03*
X1955581Y245151D02*
G54D10*
D03*
X948366Y975274D02*
G54D10*
D03*
X2041848Y1428822D02*
G54D11*
D03*
X2054548Y1428822D02*
G54D11*
D03*
X2067248Y1428822D02*
G54D11*
D03*
X2079949Y1428822D02*
G54D11*
D03*
X2092650Y1428822D02*
G54D11*
D03*
X2105350Y1428822D02*
G54D11*
D03*
X2123445Y1447116D02*
G54D12*
D03*
X2123445Y1459816D02*
G54D12*
D03*
X2123445Y1472516D02*
G54D12*
D03*
X2123445Y1485216D02*
G54D12*
D03*
X2123445Y1497916D02*
G54D12*
D03*
X2123445Y1510616D02*
G54D12*
D03*
X2123445Y1523316D02*
G54D12*
D03*
X2123445Y1536016D02*
G54D12*
D03*
X2123445Y1548716D02*
G54D12*
D03*
X2123445Y1561416D02*
G54D12*
D03*
X2123445Y1574116D02*
G54D12*
D03*
X2105350Y1592211D02*
G54D11*
D03*
X2092650Y1592211D02*
G54D11*
D03*
X2079949Y1592211D02*
G54D11*
D03*
X2067248Y1592211D02*
G54D11*
D03*
X2054548Y1592211D02*
G54D11*
D03*
X2041848Y1592211D02*
G54D11*
D03*
X2029148Y1592211D02*
G54D11*
D03*
X2016448Y1592211D02*
G54D11*
D03*
X2003748Y1592211D02*
G54D11*
D03*
X1991048Y1592211D02*
G54D11*
D03*
X1978348Y1592211D02*
G54D11*
D03*
X1960054Y1574116D02*
G54D12*
D03*
X1960054Y1561416D02*
G54D12*
D03*
X1960054Y1548716D02*
G54D12*
D03*
X1960054Y1536016D02*
G54D12*
D03*
X1960054Y1523316D02*
G54D12*
D03*
X1960054Y1510616D02*
G54D12*
D03*
X1960054Y1497916D02*
G54D12*
D03*
X1960054Y1485216D02*
G54D12*
D03*
X1960054Y1472516D02*
G54D12*
D03*
X1960054Y1459816D02*
G54D12*
D03*
X1960054Y1447116D02*
G54D12*
D03*
X1978348Y1428822D02*
G54D11*
D03*
X1991048Y1428822D02*
G54D11*
D03*
X2003748Y1428822D02*
G54D11*
D03*
X2016448Y1428822D02*
G54D11*
D03*
X2029148Y1428822D02*
G54D11*
D03*
X1068301Y1333188D02*
G54D13*
D03*
X1081001Y1333188D02*
G54D13*
D03*
X1093701Y1333188D02*
G54D13*
D03*
X1106401Y1333188D02*
G54D13*
D03*
X1119101Y1333188D02*
G54D13*
D03*
X1131801Y1333188D02*
G54D13*
D03*
X1144501Y1333188D02*
G54D13*
D03*
X1157201Y1333188D02*
G54D13*
D03*
X1169901Y1333188D02*
G54D13*
D03*
X1187698Y1350786D02*
G54D14*
D03*
X1187698Y1363486D02*
G54D14*
D03*
X1187698Y1376186D02*
G54D14*
D03*
X1187698Y1388886D02*
G54D14*
D03*
X1187698Y1401586D02*
G54D14*
D03*
X1187698Y1414286D02*
G54D14*
D03*
X1187698Y1426986D02*
G54D14*
D03*
X1187698Y1439686D02*
G54D14*
D03*
X1187698Y1452386D02*
G54D14*
D03*
X1187698Y1465086D02*
G54D14*
D03*
X1187698Y1477786D02*
G54D14*
D03*
X1187698Y1490486D02*
G54D14*
D03*
X1187698Y1503186D02*
G54D14*
D03*
X1187698Y1515886D02*
G54D14*
D03*
X1187698Y1528586D02*
G54D14*
D03*
X1187698Y1541286D02*
G54D14*
D03*
X1187698Y1553986D02*
G54D14*
D03*
X1169901Y1571783D02*
G54D13*
D03*
X1157201Y1571783D02*
G54D13*
D03*
X1144501Y1571783D02*
G54D13*
D03*
X1131801Y1571783D02*
G54D13*
D03*
X1119101Y1571783D02*
G54D13*
D03*
X1106401Y1571783D02*
G54D13*
D03*
X1093701Y1571783D02*
G54D13*
D03*
X1081001Y1571783D02*
G54D13*
D03*
X1068301Y1571783D02*
G54D13*
D03*
X1055601Y1571783D02*
G54D13*
D03*
X1042901Y1571783D02*
G54D13*
D03*
X1030201Y1571783D02*
G54D13*
D03*
X1017501Y1571783D02*
G54D13*
D03*
X1004801Y1571783D02*
G54D13*
D03*
X992101Y1571783D02*
G54D13*
D03*
X979401Y1571783D02*
G54D13*
D03*
X966701Y1571783D02*
G54D13*
D03*
X948904Y1553986D02*
G54D14*
D03*
X948904Y1541286D02*
G54D14*
D03*
X948904Y1528586D02*
G54D14*
D03*
X948904Y1515886D02*
G54D14*
D03*
X948904Y1503186D02*
G54D14*
D03*
X948904Y1490486D02*
G54D14*
D03*
X948904Y1477786D02*
G54D14*
D03*
X948904Y1465086D02*
G54D14*
D03*
X948904Y1452386D02*
G54D14*
D03*
X948904Y1439686D02*
G54D14*
D03*
X948904Y1426986D02*
G54D14*
D03*
X948904Y1414286D02*
G54D14*
D03*
X948904Y1401586D02*
G54D14*
D03*
X948904Y1388886D02*
G54D14*
D03*
X948904Y1376186D02*
G54D14*
D03*
X948904Y1363486D02*
G54D14*
D03*
X948904Y1350786D02*
G54D14*
D03*
X966701Y1333188D02*
G54D13*
D03*
X979401Y1333188D02*
G54D13*
D03*
X992101Y1333188D02*
G54D13*
D03*
X1004801Y1333188D02*
G54D13*
D03*
X1017501Y1333188D02*
G54D13*
D03*
X1030201Y1333188D02*
G54D13*
D03*
X1042901Y1333188D02*
G54D13*
D03*
X1055601Y1333188D02*
G54D13*
D03*
X285588Y1567072D02*
G54D12*
D03*
X285588Y1579772D02*
G54D12*
D03*
X285588Y1592472D02*
G54D12*
D03*
X285588Y1605172D02*
G54D12*
D03*
X267688Y1623072D02*
G54D11*
D03*
X254988Y1623072D02*
G54D11*
D03*
X242288Y1623072D02*
G54D11*
D03*
X229588Y1623072D02*
G54D11*
D03*
X216888Y1623072D02*
G54D11*
D03*
X204188Y1623072D02*
G54D11*
D03*
X191488Y1623072D02*
G54D11*
D03*
X173588Y1605172D02*
G54D12*
D03*
X173588Y1592472D02*
G54D12*
D03*
X173588Y1579772D02*
G54D12*
D03*
X173588Y1567072D02*
G54D12*
D03*
X173588Y1554372D02*
G54D12*
D03*
X173588Y1541672D02*
G54D12*
D03*
X173588Y1528972D02*
G54D12*
D03*
X191488Y1511072D02*
G54D11*
D03*
X204188Y1511072D02*
G54D11*
D03*
X216888Y1511072D02*
G54D11*
D03*
X229588Y1511072D02*
G54D11*
D03*
X242288Y1511072D02*
G54D11*
D03*
X254988Y1511072D02*
G54D11*
D03*
X267688Y1511072D02*
G54D11*
D03*
X285588Y1528972D02*
G54D12*
D03*
X285588Y1541672D02*
G54D12*
D03*
X285588Y1554372D02*
G54D12*
D03*
X294479Y952223D02*
G54D15*
D03*
X300879Y952223D02*
G54D15*
D03*
X307179Y952223D02*
G54D15*
D03*
X313479Y952223D02*
G54D15*
D03*
X319879Y952223D02*
G54D15*
D03*
X326279Y952223D02*
G54D15*
D03*
X332579Y952223D02*
G54D15*
D03*
X338879Y952223D02*
G54D15*
D03*
X345279Y952223D02*
G54D15*
D03*
X351679Y952223D02*
G54D15*
D03*
X357979Y952223D02*
G54D15*
D03*
X364279Y952223D02*
G54D15*
D03*
X370679Y952223D02*
G54D15*
D03*
X377079Y952223D02*
G54D15*
D03*
X383379Y952223D02*
G54D15*
D03*
X389679Y952223D02*
G54D15*
D03*
X396079Y952223D02*
G54D15*
D03*
X402479Y952223D02*
G54D15*
D03*
X408779Y952223D02*
G54D15*
D03*
X415079Y952223D02*
G54D15*
D03*
X421479Y952223D02*
G54D15*
D03*
X427879Y952223D02*
G54D15*
D03*
X434179Y952223D02*
G54D15*
D03*
X440479Y952223D02*
G54D15*
D03*
X446879Y952223D02*
G54D15*
D03*
X453279Y952223D02*
G54D15*
D03*
X459579Y952223D02*
G54D15*
D03*
X465879Y952223D02*
G54D15*
D03*
X472279Y952223D02*
G54D15*
D03*
X478679Y952223D02*
G54D15*
D03*
X484979Y952223D02*
G54D15*
D03*
X491279Y952223D02*
G54D15*
D03*
X497679Y952223D02*
G54D15*
D03*
X528079Y982623D02*
G54D16*
D03*
X528079Y989023D02*
G54D16*
D03*
X528079Y995323D02*
G54D16*
D03*
X528079Y1001623D02*
G54D16*
D03*
X528079Y1008023D02*
G54D16*
D03*
X528079Y1014423D02*
G54D16*
D03*
X528079Y1020723D02*
G54D16*
D03*
X528079Y1027023D02*
G54D16*
D03*
X528079Y1033423D02*
G54D16*
D03*
X528079Y1039823D02*
G54D16*
D03*
X528079Y1046123D02*
G54D16*
D03*
X528079Y1052423D02*
G54D16*
D03*
X528079Y1058823D02*
G54D16*
D03*
X528079Y1065223D02*
G54D16*
D03*
X528079Y1071523D02*
G54D16*
D03*
X528079Y1077823D02*
G54D16*
D03*
X528079Y1084223D02*
G54D16*
D03*
X528079Y1090623D02*
G54D16*
D03*
X528079Y1096923D02*
G54D16*
D03*
X528079Y1103223D02*
G54D16*
D03*
X528079Y1109623D02*
G54D16*
D03*
X528079Y1116023D02*
G54D16*
D03*
X528079Y1122323D02*
G54D16*
D03*
X528079Y1128623D02*
G54D16*
D03*
X528079Y1135023D02*
G54D16*
D03*
X528079Y1141423D02*
G54D16*
D03*
X528079Y1147723D02*
G54D16*
D03*
X528079Y1154023D02*
G54D16*
D03*
X528079Y1160423D02*
G54D16*
D03*
X528079Y1166823D02*
G54D16*
D03*
X528079Y1173123D02*
G54D16*
D03*
X528079Y1179423D02*
G54D16*
D03*
X528079Y1185823D02*
G54D16*
D03*
X497679Y1216223D02*
G54D15*
D03*
X491279Y1216223D02*
G54D15*
D03*
X484979Y1216223D02*
G54D15*
D03*
X478679Y1216223D02*
G54D15*
D03*
X472279Y1216223D02*
G54D15*
D03*
X465879Y1216223D02*
G54D15*
D03*
X459579Y1216223D02*
G54D15*
D03*
X453279Y1216223D02*
G54D15*
D03*
X446879Y1216223D02*
G54D15*
D03*
X440479Y1216223D02*
G54D15*
D03*
X434179Y1216223D02*
G54D15*
D03*
X427879Y1216223D02*
G54D15*
D03*
X421479Y1216223D02*
G54D15*
D03*
X415079Y1216223D02*
G54D15*
D03*
X408779Y1216223D02*
G54D15*
D03*
X402479Y1216223D02*
G54D15*
D03*
X396079Y1216223D02*
G54D15*
D03*
X389679Y1216223D02*
G54D15*
D03*
X383379Y1216223D02*
G54D15*
D03*
X377079Y1216223D02*
G54D15*
D03*
X370679Y1216223D02*
G54D15*
D03*
X364279Y1216223D02*
G54D15*
D03*
X357979Y1216223D02*
G54D15*
D03*
X351679Y1216223D02*
G54D15*
D03*
X345279Y1216223D02*
G54D15*
D03*
X338879Y1216223D02*
G54D15*
D03*
X332579Y1216223D02*
G54D15*
D03*
X326279Y1216223D02*
G54D15*
D03*
X319879Y1216223D02*
G54D15*
D03*
X313479Y1216223D02*
G54D15*
D03*
X307179Y1216223D02*
G54D15*
D03*
X300879Y1216223D02*
G54D15*
D03*
X294479Y1216223D02*
G54D15*
D03*
X264079Y1185823D02*
G54D16*
D03*
X264079Y1179423D02*
G54D16*
D03*
X264079Y1173123D02*
G54D16*
D03*
X264079Y1166823D02*
G54D16*
D03*
X264079Y1160423D02*
G54D16*
D03*
X264079Y1154023D02*
G54D16*
D03*
X264079Y1147723D02*
G54D16*
D03*
X264079Y1141423D02*
G54D16*
D03*
X264079Y1135023D02*
G54D16*
D03*
X264079Y1128623D02*
G54D16*
D03*
X264079Y1122323D02*
G54D16*
D03*
X264079Y1116023D02*
G54D16*
D03*
X264079Y1109623D02*
G54D16*
D03*
X264079Y1103223D02*
G54D16*
D03*
X264079Y1096923D02*
G54D16*
D03*
X264079Y1090623D02*
G54D16*
D03*
X264079Y1084223D02*
G54D16*
D03*
X264079Y1077823D02*
G54D16*
D03*
X264079Y1071523D02*
G54D16*
D03*
X264079Y1065223D02*
G54D16*
D03*
X264079Y1058823D02*
G54D16*
D03*
X264079Y1052423D02*
G54D16*
D03*
X264079Y1046123D02*
G54D16*
D03*
X264079Y1039823D02*
G54D16*
D03*
X264079Y1033423D02*
G54D16*
D03*
X264079Y1027023D02*
G54D16*
D03*
X264079Y1020723D02*
G54D16*
D03*
X264079Y1014423D02*
G54D16*
D03*
X264079Y1008023D02*
G54D16*
D03*
X264079Y1001623D02*
G54D16*
D03*
X264079Y995323D02*
G54D16*
D03*
X264079Y989023D02*
G54D16*
D03*
X264079Y982623D02*
G54D16*
D03*
X1349570Y1419404D02*
G54D11*
D03*
X1336870Y1419404D02*
G54D11*
D03*
X1324170Y1419404D02*
G54D11*
D03*
X1306570Y1401804D02*
G54D12*
D03*
X1306570Y1389104D02*
G54D12*
D03*
X1306570Y1376404D02*
G54D12*
D03*
X1306570Y1363704D02*
G54D12*
D03*
X1306570Y1351004D02*
G54D12*
D03*
X1324170Y1333404D02*
G54D11*
D03*
X1336870Y1333404D02*
G54D11*
D03*
X1349570Y1333404D02*
G54D11*
D03*
X1362270Y1333404D02*
G54D11*
D03*
X1374970Y1333404D02*
G54D11*
D03*
X1392570Y1351004D02*
G54D12*
D03*
X1392570Y1363704D02*
G54D12*
D03*
X1392570Y1376404D02*
G54D12*
D03*
X1392570Y1389104D02*
G54D12*
D03*
X1392570Y1401804D02*
G54D12*
D03*
X1374970Y1419404D02*
G54D11*
D03*
X1362270Y1419404D02*
G54D11*
D03*
X1348775Y1498416D02*
G54D11*
D03*
X1361475Y1498416D02*
G54D11*
D03*
X1374175Y1498416D02*
G54D11*
D03*
X1391775Y1516016D02*
G54D12*
D03*
X1391775Y1528716D02*
G54D12*
D03*
X1391775Y1541416D02*
G54D12*
D03*
X1391775Y1554116D02*
G54D12*
D03*
X1391775Y1566816D02*
G54D12*
D03*
X1374175Y1584416D02*
G54D11*
D03*
X1361475Y1584416D02*
G54D11*
D03*
X1348775Y1584416D02*
G54D11*
D03*
X1336075Y1584416D02*
G54D11*
D03*
X1323375Y1584416D02*
G54D11*
D03*
X1305775Y1566816D02*
G54D12*
D03*
X1305775Y1554116D02*
G54D12*
D03*
X1305775Y1541416D02*
G54D12*
D03*
X1305775Y1528716D02*
G54D12*
D03*
X1305775Y1516016D02*
G54D12*
D03*
X1323375Y1498416D02*
G54D11*
D03*
X1336075Y1498416D02*
G54D11*
D03*
X1120626Y941421D02*
G54D17*
D03*
X1120626Y933421D02*
G54D17*
D03*
X1120626Y925421D02*
G54D17*
D03*
X1120626Y917421D02*
G54D17*
D03*
X1120626Y909421D02*
G54D17*
D03*
X1120626Y901421D02*
G54D17*
D03*
X1120626Y893421D02*
G54D17*
D03*
X1120626Y885421D02*
G54D17*
D03*
X1120626Y877421D02*
G54D17*
D03*
X1120626Y869421D02*
G54D17*
D03*
X1120626Y861421D02*
G54D17*
D03*
X1120626Y853421D02*
G54D17*
D03*
X1120626Y845421D02*
G54D17*
D03*
X1120626Y837421D02*
G54D17*
D03*
X1120626Y829421D02*
G54D17*
D03*
X1120626Y821421D02*
G54D17*
D03*
X1120626Y813421D02*
G54D17*
D03*
X1120626Y805421D02*
G54D17*
D03*
X1120626Y797421D02*
G54D17*
D03*
X1120626Y789420D02*
G54D17*
D03*
X1120626Y781420D02*
G54D17*
D03*
X1120626Y773420D02*
G54D17*
D03*
X1120626Y765420D02*
G54D17*
D03*
X1120626Y757420D02*
G54D17*
D03*
X1120626Y749421D02*
G54D17*
D03*
X1120626Y741421D02*
G54D17*
D03*
X1120626Y733421D02*
G54D17*
D03*
X1120626Y725421D02*
G54D17*
D03*
X1120626Y717421D02*
G54D17*
D03*
X1120626Y709421D02*
G54D17*
D03*
X1120626Y701421D02*
G54D17*
D03*
X1120626Y693421D02*
G54D17*
D03*
X1150007Y664039D02*
G54D18*
D03*
X1158007Y664039D02*
G54D18*
D03*
X1166007Y664039D02*
G54D18*
D03*
X1174007Y664039D02*
G54D18*
D03*
X1182007Y664039D02*
G54D18*
D03*
X1190007Y664039D02*
G54D18*
D03*
X1198007Y664039D02*
G54D18*
D03*
X1206007Y664039D02*
G54D18*
D03*
X1214007Y664039D02*
G54D18*
D03*
X1222007Y664039D02*
G54D18*
D03*
X1230007Y664039D02*
G54D18*
D03*
X1238007Y664039D02*
G54D18*
D03*
X1246007Y664039D02*
G54D18*
D03*
X1254007Y664039D02*
G54D18*
D03*
X1262007Y664039D02*
G54D18*
D03*
X1270007Y664039D02*
G54D18*
D03*
X1278007Y664039D02*
G54D18*
D03*
X1286007Y664039D02*
G54D18*
D03*
X1294007Y664039D02*
G54D18*
D03*
X1302007Y664039D02*
G54D18*
D03*
X1310007Y664039D02*
G54D18*
D03*
X1318007Y664039D02*
G54D18*
D03*
X1326007Y664039D02*
G54D18*
D03*
X1334007Y664039D02*
G54D18*
D03*
X1342007Y664039D02*
G54D18*
D03*
X1350007Y664039D02*
G54D18*
D03*
X1358007Y664039D02*
G54D18*
D03*
X1366007Y664039D02*
G54D18*
D03*
X1374007Y664039D02*
G54D18*
D03*
X1382007Y664039D02*
G54D18*
D03*
X1390007Y664039D02*
G54D18*
D03*
X1398007Y664039D02*
G54D18*
D03*
X1427389Y693421D02*
G54D17*
D03*
X1427389Y701421D02*
G54D17*
D03*
X1427389Y709421D02*
G54D17*
D03*
X1427389Y717421D02*
G54D17*
D03*
X1427389Y725421D02*
G54D17*
D03*
X1427389Y733421D02*
G54D17*
D03*
X1427389Y741421D02*
G54D17*
D03*
X1427389Y749421D02*
G54D17*
D03*
X1427389Y757420D02*
G54D17*
D03*
X1427389Y765420D02*
G54D17*
D03*
X1427389Y773420D02*
G54D17*
D03*
X1427389Y781420D02*
G54D17*
D03*
X1427389Y789420D02*
G54D17*
D03*
X1427389Y797421D02*
G54D17*
D03*
X1427389Y805421D02*
G54D17*
D03*
X1427389Y813421D02*
G54D17*
D03*
X1427389Y821421D02*
G54D17*
D03*
X1427389Y829421D02*
G54D17*
D03*
X1427389Y837421D02*
G54D17*
D03*
X1427389Y845421D02*
G54D17*
D03*
X1427389Y853421D02*
G54D17*
D03*
X1427389Y861421D02*
G54D17*
D03*
X1427389Y869421D02*
G54D17*
D03*
X1427389Y877421D02*
G54D17*
D03*
X1427389Y885421D02*
G54D17*
D03*
X1427389Y893421D02*
G54D17*
D03*
X1427389Y901421D02*
G54D17*
D03*
X1427389Y909421D02*
G54D17*
D03*
X1427389Y917421D02*
G54D17*
D03*
X1427389Y925421D02*
G54D17*
D03*
X1427389Y933421D02*
G54D17*
D03*
X1427389Y941421D02*
G54D17*
D03*
X1398007Y970802D02*
G54D18*
D03*
X1390007Y970802D02*
G54D18*
D03*
X1382007Y970802D02*
G54D18*
D03*
X1374007Y970802D02*
G54D18*
D03*
X1366007Y970802D02*
G54D18*
D03*
X1358007Y970802D02*
G54D18*
D03*
X1350007Y970802D02*
G54D18*
D03*
X1342007Y970802D02*
G54D18*
D03*
X1334007Y970802D02*
G54D18*
D03*
X1326007Y970802D02*
G54D18*
D03*
X1318007Y970802D02*
G54D18*
D03*
X1310007Y970802D02*
G54D18*
D03*
X1302007Y970802D02*
G54D18*
D03*
X1294007Y970802D02*
G54D18*
D03*
X1286007Y970802D02*
G54D18*
D03*
X1278007Y970802D02*
G54D18*
D03*
X1270007Y970802D02*
G54D18*
D03*
X1262007Y970802D02*
G54D18*
D03*
X1254007Y970802D02*
G54D18*
D03*
X1246007Y970802D02*
G54D18*
D03*
X1238007Y970802D02*
G54D18*
D03*
X1230007Y970802D02*
G54D18*
D03*
X1222007Y970802D02*
G54D18*
D03*
X1214007Y970802D02*
G54D18*
D03*
X1206007Y970802D02*
G54D18*
D03*
X1198007Y970802D02*
G54D18*
D03*
X1190007Y970802D02*
G54D18*
D03*
X1182007Y970802D02*
G54D18*
D03*
X1174007Y970802D02*
G54D18*
D03*
X1166007Y970802D02*
G54D18*
D03*
X1158007Y970802D02*
G54D18*
D03*
X1150007Y970802D02*
G54D18*
D03*
X1456305Y1490735D02*
G54D19*
D03*
X1469005Y1490735D02*
G54D19*
D03*
X1481705Y1490735D02*
G54D19*
D03*
X1494405Y1490735D02*
G54D19*
D03*
X1507105Y1490735D02*
G54D19*
D03*
X1519805Y1490735D02*
G54D19*
D03*
X1532505Y1490735D02*
G54D19*
D03*
X1545205Y1490735D02*
G54D19*
D03*
X1557905Y1490735D02*
G54D19*
D03*
X1570605Y1490735D02*
G54D19*
D03*
X1570605Y1592260D02*
G54D19*
D03*
X1557905Y1592260D02*
G54D19*
D03*
X1545205Y1592260D02*
G54D19*
D03*
X1532505Y1592260D02*
G54D19*
D03*
X1519805Y1592260D02*
G54D19*
D03*
X1507105Y1592260D02*
G54D19*
D03*
X1494405Y1592260D02*
G54D19*
D03*
X1481705Y1592260D02*
G54D19*
D03*
X1469005Y1592260D02*
G54D19*
D03*
X1456305Y1592260D02*
G54D19*
D03*
X2092438Y1323527D02*
G54D19*
D03*
X2105138Y1323527D02*
G54D19*
D03*
X2117838Y1323527D02*
G54D19*
D03*
X2130538Y1323527D02*
G54D19*
D03*
X2130538Y1379877D02*
G54D19*
D03*
X2117838Y1379877D02*
G54D19*
D03*
X2105138Y1379877D02*
G54D19*
D03*
X2092438Y1379877D02*
G54D19*
D03*
X1503989Y1331786D02*
G54D20*
D03*
X1503989Y1344486D02*
G54D20*
D03*
X1503989Y1357185D02*
G54D20*
D03*
X1503989Y1369885D02*
G54D20*
D03*
X1503989Y1382585D02*
G54D20*
D03*
X1503989Y1395285D02*
G54D20*
D03*
X1503989Y1407985D02*
G54D20*
D03*
X1503989Y1420685D02*
G54D20*
D03*
X1447639Y1420685D02*
G54D20*
D03*
X1447639Y1407985D02*
G54D20*
D03*
X1447639Y1395285D02*
G54D20*
D03*
X1447639Y1382585D02*
G54D20*
D03*
X1447639Y1369885D02*
G54D20*
D03*
X1447639Y1357185D02*
G54D20*
D03*
X1447639Y1344486D02*
G54D20*
D03*
X1447639Y1331786D02*
G54D20*
D03*
X2087650Y303801D02*
G54D12*
D03*
X2087650Y316501D02*
G54D12*
D03*
X2087650Y329201D02*
G54D12*
D03*
X2087650Y341902D02*
G54D12*
D03*
X2087650Y354602D02*
G54D12*
D03*
X2087650Y367302D02*
G54D12*
D03*
X2070148Y384802D02*
G54D11*
D03*
X2057448Y384802D02*
G54D11*
D03*
X2044748Y384802D02*
G54D11*
D03*
X2032048Y384802D02*
G54D11*
D03*
X2019348Y384802D02*
G54D11*
D03*
X2006648Y384802D02*
G54D11*
D03*
X1993948Y384802D02*
G54D11*
D03*
X1981248Y384802D02*
G54D11*
D03*
X1968548Y384802D02*
G54D11*
D03*
X1955848Y384802D02*
G54D11*
D03*
X1943148Y384802D02*
G54D11*
D03*
X1925648Y367302D02*
G54D12*
D03*
X1925648Y354602D02*
G54D12*
D03*
X1925648Y341902D02*
G54D12*
D03*
X1925648Y329201D02*
G54D12*
D03*
X1925648Y316501D02*
G54D12*
D03*
X1925648Y303801D02*
G54D12*
D03*
X1925648Y291101D02*
G54D12*
D03*
X1925648Y278401D02*
G54D12*
D03*
X1925648Y265701D02*
G54D12*
D03*
X1925648Y253001D02*
G54D12*
D03*
X1925648Y240301D02*
G54D12*
D03*
X1943148Y222801D02*
G54D11*
D03*
X1955848Y222801D02*
G54D11*
D03*
X1968548Y222801D02*
G54D11*
D03*
X1981248Y222801D02*
G54D11*
D03*
X1993948Y222801D02*
G54D11*
D03*
X2006648Y222801D02*
G54D11*
D03*
X2019348Y222801D02*
G54D11*
D03*
X2032048Y222801D02*
G54D11*
D03*
X2044748Y222801D02*
G54D11*
D03*
X2057448Y222801D02*
G54D11*
D03*
X2070148Y222801D02*
G54D11*
D03*
X2087650Y240301D02*
G54D12*
D03*
X2087650Y253001D02*
G54D12*
D03*
X2087650Y265701D02*
G54D12*
D03*
X2087650Y278401D02*
G54D12*
D03*
X2087650Y291101D02*
G54D12*
D03*
X1609342Y1490944D02*
G54D19*
D03*
X1622042Y1490944D02*
G54D19*
D03*
X1634742Y1490944D02*
G54D19*
D03*
X1647442Y1490944D02*
G54D19*
D03*
X1660142Y1490944D02*
G54D19*
D03*
X1672842Y1490944D02*
G54D19*
D03*
X1685542Y1490944D02*
G54D19*
D03*
X1698242Y1490944D02*
G54D19*
D03*
X1710942Y1490944D02*
G54D19*
D03*
X1723642Y1490944D02*
G54D19*
D03*
X1723642Y1592470D02*
G54D19*
D03*
X1710942Y1592470D02*
G54D19*
D03*
X1698242Y1592470D02*
G54D19*
D03*
X1685542Y1592470D02*
G54D19*
D03*
X1672842Y1592470D02*
G54D19*
D03*
X1660142Y1592470D02*
G54D19*
D03*
X1647442Y1592470D02*
G54D19*
D03*
X1634742Y1592470D02*
G54D19*
D03*
X1622042Y1592470D02*
G54D19*
D03*
X1609342Y1592470D02*
G54D19*
D03*
X1292745Y1147620D02*
G54D19*
D03*
X1305445Y1147620D02*
G54D19*
D03*
X1318145Y1147620D02*
G54D19*
D03*
X1330845Y1147620D02*
G54D19*
D03*
X1343545Y1147620D02*
G54D19*
D03*
X1356245Y1147620D02*
G54D19*
D03*
X1368945Y1147620D02*
G54D19*
D03*
X1381645Y1147620D02*
G54D19*
D03*
X1394345Y1147620D02*
G54D19*
D03*
X1407045Y1147620D02*
G54D19*
D03*
X1407045Y1249146D02*
G54D19*
D03*
X1394345Y1249146D02*
G54D19*
D03*
X1381645Y1249146D02*
G54D19*
D03*
X1368945Y1249146D02*
G54D19*
D03*
X1356245Y1249146D02*
G54D19*
D03*
X1343545Y1249146D02*
G54D19*
D03*
X1330845Y1249146D02*
G54D19*
D03*
X1318145Y1249146D02*
G54D19*
D03*
X1305445Y1249146D02*
G54D19*
D03*
X1292745Y1249146D02*
G54D19*
D03*
X1089545Y1147620D02*
G54D19*
D03*
X1102245Y1147620D02*
G54D19*
D03*
X1114945Y1147620D02*
G54D19*
D03*
X1127645Y1147620D02*
G54D19*
D03*
X1140345Y1147620D02*
G54D19*
D03*
X1153045Y1147620D02*
G54D19*
D03*
X1165745Y1147620D02*
G54D19*
D03*
X1178445Y1147620D02*
G54D19*
D03*
X1191145Y1147620D02*
G54D19*
D03*
X1203845Y1147620D02*
G54D19*
D03*
X1203845Y1249146D02*
G54D19*
D03*
X1191145Y1249146D02*
G54D19*
D03*
X1178445Y1249146D02*
G54D19*
D03*
X1165745Y1249146D02*
G54D19*
D03*
X1153045Y1249146D02*
G54D19*
D03*
X1140345Y1249146D02*
G54D19*
D03*
X1127645Y1249146D02*
G54D19*
D03*
X1114945Y1249146D02*
G54D19*
D03*
X1102245Y1249146D02*
G54D19*
D03*
X1089545Y1249146D02*
G54D19*
D03*
X814253Y1141187D02*
G54D20*
D03*
X814253Y1153887D02*
G54D20*
D03*
X814253Y1166587D02*
G54D20*
D03*
X814253Y1179287D02*
G54D20*
D03*
X814253Y1191987D02*
G54D20*
D03*
X814253Y1204687D02*
G54D20*
D03*
X814253Y1217387D02*
G54D20*
D03*
X814253Y1230087D02*
G54D20*
D03*
X814253Y1242787D02*
G54D20*
D03*
X814253Y1255487D02*
G54D20*
D03*
X814253Y1268187D02*
G54D20*
D03*
X814253Y1280886D02*
G54D20*
D03*
X814253Y1293585D02*
G54D20*
D03*
X814253Y1306285D02*
G54D20*
D03*
X713491Y1306285D02*
G54D20*
D03*
X713491Y1293585D02*
G54D20*
D03*
X713491Y1280886D02*
G54D20*
D03*
X713491Y1268187D02*
G54D20*
D03*
X713491Y1255487D02*
G54D20*
D03*
X713491Y1242787D02*
G54D20*
D03*
X713491Y1230087D02*
G54D20*
D03*
X713491Y1217387D02*
G54D20*
D03*
X713491Y1204687D02*
G54D20*
D03*
X713491Y1191987D02*
G54D20*
D03*
X713491Y1179287D02*
G54D20*
D03*
X713491Y1166587D02*
G54D20*
D03*
X713491Y1153887D02*
G54D20*
D03*
X713491Y1141187D02*
G54D20*
D03*
X719363Y1347840D02*
G54D19*
D03*
X732063Y1347840D02*
G54D19*
D03*
X744763Y1347840D02*
G54D19*
D03*
X757463Y1347840D02*
G54D19*
D03*
X757463Y1404190D02*
G54D19*
D03*
X744763Y1404190D02*
G54D19*
D03*
X732063Y1404190D02*
G54D19*
D03*
X719363Y1404190D02*
G54D19*
D03*
X554140Y1423895D02*
G54D19*
D03*
X566840Y1423895D02*
G54D19*
D03*
X579540Y1423895D02*
G54D19*
D03*
X592240Y1423895D02*
G54D19*
D03*
X592240Y1480245D02*
G54D19*
D03*
X579540Y1480245D02*
G54D19*
D03*
X566840Y1480245D02*
G54D19*
D03*
X554140Y1480245D02*
G54D19*
D03*
X465382Y1492442D02*
G54D19*
D03*
X452682Y1492442D02*
G54D19*
D03*
X439982Y1492442D02*
G54D19*
D03*
X427282Y1492442D02*
G54D19*
D03*
X427282Y1436092D02*
G54D19*
D03*
X439982Y1436092D02*
G54D19*
D03*
X452682Y1436092D02*
G54D19*
D03*
X465382Y1436092D02*
G54D19*
D03*
X108968Y1569958D02*
G54D19*
D03*
X96268Y1569958D02*
G54D19*
D03*
X83568Y1569958D02*
G54D19*
D03*
X70868Y1569958D02*
G54D19*
D03*
X70868Y1513608D02*
G54D19*
D03*
X83568Y1513608D02*
G54D19*
D03*
X96268Y1513608D02*
G54D19*
D03*
X108968Y1513608D02*
G54D19*
D03*
X678824Y995850D02*
G54D21*
D03*
G36*
X691824Y1005350D02*
X705824Y1005350D01*
X705824Y986350D01*
X691824Y986350D01*
X691824Y1005350D01*
G37*
X688824Y1020612D02*
G54D21*
D03*
X729624Y995850D02*
G54D21*
D03*
G36*
X742624Y1005350D02*
X756624Y1005350D01*
X756624Y986350D01*
X742624Y986350D01*
X742624Y1005350D01*
G37*
X739624Y1020612D02*
G54D21*
D03*
X704224Y1059350D02*
G54D21*
D03*
G36*
X717224Y1068850D02*
X731224Y1068850D01*
X731224Y1049850D01*
X717224Y1049850D01*
X717224Y1068850D01*
G37*
X714224Y1084112D02*
G54D21*
D03*
X460432Y1399036D02*
G54D22*
D03*
X460432Y1379036D02*
G54D22*
D03*
X485194Y1389036D02*
G54D22*
D03*
X725688Y1475164D02*
G54D22*
D03*
X725688Y1455164D02*
G54D22*
D03*
X750450Y1465164D02*
G54D22*
D03*
X597844Y1594805D02*
G54D23*
D03*
X597844Y1563630D02*
G54D23*
D03*
X1055021Y930022D02*
G54D23*
D03*
X1055021Y898847D02*
G54D23*
D03*
X1055021Y858584D02*
G54D23*
D03*
X1055021Y827409D02*
G54D23*
D03*
X281026Y1394353D02*
G54D24*
D03*
X281026Y1434253D02*
G54D24*
D03*
X814341Y1467430D02*
G54D25*
D03*
X814341Y1411868D02*
G54D25*
D03*
X660884Y1594364D02*
G54D25*
D03*
X660884Y1538802D02*
G54D25*
D03*
X344586Y1454787D02*
G54D25*
D03*
X344586Y1399224D02*
G54D25*
D03*
X529617Y1376523D02*
G54D26*
D03*
X567717Y1376523D02*
G54D26*
D03*
X648893Y1433836D02*
G54D27*
D03*
G36*
X641392Y1485936D02*
X656392Y1485936D01*
X656393Y1457936D01*
X641393Y1457936D01*
X641392Y1485936D01*
G37*
X510060Y1483968D02*
G54D27*
D03*
X510060Y1445868D02*
G54D27*
D03*
X378393Y1507999D02*
G54D26*
D03*
X340293Y1507999D02*
G54D26*
D03*
X470868Y1584697D02*
G54D27*
D03*
X470868Y1546597D02*
G54D27*
D03*
X417686Y1555274D02*
G54D26*
D03*
X379585Y1555274D02*
G54D26*
D03*
X417686Y1602899D02*
G54D26*
D03*
X379585Y1602899D02*
G54D26*
D03*
X121346Y1617319D02*
G54D26*
D03*
X83246Y1617319D02*
G54D26*
D03*
X84249Y1465478D02*
G54D26*
D03*
X122349Y1465478D02*
G54D26*
D03*
X1247486Y1370613D02*
G54D24*
D03*
X1247486Y1330713D02*
G54D24*
D03*
X1254866Y1066080D02*
G54D24*
D03*
X1254866Y1026180D02*
G54D24*
D03*
X1287953Y555980D02*
G54D24*
D03*
X1287953Y595880D02*
G54D24*
D03*
X2105370Y1275098D02*
G54D24*
D03*
X2105370Y1235199D02*
G54D24*
D03*
X2134381Y328746D02*
G54D24*
D03*
X2134381Y368646D02*
G54D24*
D03*
X1565570Y1336166D02*
G54D28*
D03*
X1578270Y1336166D02*
G54D28*
D03*
X1590970Y1336166D02*
G54D28*
D03*
X1603670Y1336166D02*
G54D28*
D03*
X1616370Y1336166D02*
G54D28*
D03*
X1667170Y1336166D02*
G54D28*
D03*
X1679870Y1336166D02*
G54D28*
D03*
X1692570Y1336166D02*
G54D28*
D03*
X1705270Y1336166D02*
G54D28*
D03*
X1717970Y1336166D02*
G54D28*
D03*
X1717970Y1416103D02*
G54D28*
D03*
X1705270Y1416103D02*
G54D28*
D03*
X1692570Y1416103D02*
G54D28*
D03*
X1679870Y1416103D02*
G54D28*
D03*
X1667170Y1416103D02*
G54D28*
D03*
X1616370Y1416103D02*
G54D28*
D03*
X1603670Y1416103D02*
G54D28*
D03*
X1590970Y1416103D02*
G54D28*
D03*
X1578270Y1416103D02*
G54D28*
D03*
X1565570Y1416103D02*
G54D28*
D03*
X1565570Y1209166D02*
G54D28*
D03*
X1578270Y1209166D02*
G54D28*
D03*
X1590970Y1209166D02*
G54D28*
D03*
X1603670Y1209166D02*
G54D28*
D03*
X1616370Y1209166D02*
G54D28*
D03*
X1667170Y1209166D02*
G54D28*
D03*
X1679870Y1209166D02*
G54D28*
D03*
X1692570Y1209166D02*
G54D28*
D03*
X1705270Y1209166D02*
G54D28*
D03*
X1717970Y1209166D02*
G54D28*
D03*
X1717970Y1289103D02*
G54D28*
D03*
X1705270Y1289103D02*
G54D28*
D03*
X1692570Y1289103D02*
G54D28*
D03*
X1679870Y1289103D02*
G54D28*
D03*
X1667170Y1289103D02*
G54D28*
D03*
X1616370Y1289103D02*
G54D28*
D03*
X1603670Y1289103D02*
G54D28*
D03*
X1590970Y1289103D02*
G54D28*
D03*
X1578270Y1289103D02*
G54D28*
D03*
X1565570Y1289103D02*
G54D28*
D03*
X1565570Y1082166D02*
G54D28*
D03*
X1578270Y1082166D02*
G54D28*
D03*
X1590970Y1082166D02*
G54D28*
D03*
X1603670Y1082166D02*
G54D28*
D03*
X1616370Y1082166D02*
G54D28*
D03*
X1667170Y1082166D02*
G54D28*
D03*
X1679870Y1082166D02*
G54D28*
D03*
X1692570Y1082166D02*
G54D28*
D03*
X1705270Y1082166D02*
G54D28*
D03*
X1717970Y1082166D02*
G54D28*
D03*
X1717970Y1162103D02*
G54D28*
D03*
X1705270Y1162103D02*
G54D28*
D03*
X1692570Y1162103D02*
G54D28*
D03*
X1679870Y1162103D02*
G54D28*
D03*
X1667170Y1162103D02*
G54D28*
D03*
X1616370Y1162103D02*
G54D28*
D03*
X1603670Y1162103D02*
G54D28*
D03*
X1590970Y1162103D02*
G54D28*
D03*
X1578270Y1162103D02*
G54D28*
D03*
X1565570Y1162103D02*
G54D28*
D03*
X1565570Y955166D02*
G54D28*
D03*
X1578270Y955166D02*
G54D28*
D03*
X1590970Y955166D02*
G54D28*
D03*
X1603670Y955166D02*
G54D28*
D03*
X1616370Y955166D02*
G54D28*
D03*
X1667170Y955166D02*
G54D28*
D03*
X1679870Y955166D02*
G54D28*
D03*
X1692570Y955166D02*
G54D28*
D03*
X1705270Y955166D02*
G54D28*
D03*
X1717970Y955166D02*
G54D28*
D03*
X1717970Y1035103D02*
G54D28*
D03*
X1705270Y1035103D02*
G54D28*
D03*
X1692570Y1035103D02*
G54D28*
D03*
X1679870Y1035103D02*
G54D28*
D03*
X1667170Y1035103D02*
G54D28*
D03*
X1616370Y1035103D02*
G54D28*
D03*
X1603670Y1035103D02*
G54D28*
D03*
X1590970Y1035103D02*
G54D28*
D03*
X1578270Y1035103D02*
G54D28*
D03*
X1565570Y1035103D02*
G54D28*
D03*
X1565570Y828166D02*
G54D28*
D03*
X1578270Y828166D02*
G54D28*
D03*
X1590970Y828166D02*
G54D28*
D03*
X1603670Y828166D02*
G54D28*
D03*
X1616370Y828166D02*
G54D28*
D03*
X1667170Y828166D02*
G54D28*
D03*
X1679870Y828166D02*
G54D28*
D03*
X1692570Y828166D02*
G54D28*
D03*
X1705270Y828166D02*
G54D28*
D03*
X1717970Y828166D02*
G54D28*
D03*
X1717970Y908103D02*
G54D28*
D03*
X1705270Y908103D02*
G54D28*
D03*
X1692570Y908103D02*
G54D28*
D03*
X1679870Y908103D02*
G54D28*
D03*
X1667170Y908103D02*
G54D28*
D03*
X1616370Y908103D02*
G54D28*
D03*
X1603670Y908103D02*
G54D28*
D03*
X1590970Y908103D02*
G54D28*
D03*
X1578270Y908103D02*
G54D28*
D03*
X1565570Y908103D02*
G54D28*
D03*
X1565570Y701166D02*
G54D28*
D03*
X1578270Y701166D02*
G54D28*
D03*
X1590970Y701166D02*
G54D28*
D03*
X1603670Y701166D02*
G54D28*
D03*
X1616370Y701166D02*
G54D28*
D03*
X1667170Y701166D02*
G54D28*
D03*
X1679870Y701166D02*
G54D28*
D03*
X1692570Y701166D02*
G54D28*
D03*
X1705270Y701166D02*
G54D28*
D03*
X1717970Y701166D02*
G54D28*
D03*
X1717970Y781103D02*
G54D28*
D03*
X1705270Y781103D02*
G54D28*
D03*
X1692570Y781103D02*
G54D28*
D03*
X1679870Y781103D02*
G54D28*
D03*
X1667170Y781103D02*
G54D28*
D03*
X1616370Y781103D02*
G54D28*
D03*
X1603670Y781103D02*
G54D28*
D03*
X1590970Y781103D02*
G54D28*
D03*
X1578270Y781103D02*
G54D28*
D03*
X1565570Y781103D02*
G54D28*
D03*
X1565570Y574166D02*
G54D28*
D03*
X1578270Y574166D02*
G54D28*
D03*
X1590970Y574166D02*
G54D28*
D03*
X1603670Y574166D02*
G54D28*
D03*
X1616370Y574166D02*
G54D28*
D03*
X1667170Y574166D02*
G54D28*
D03*
X1679870Y574166D02*
G54D28*
D03*
X1692570Y574166D02*
G54D28*
D03*
X1705270Y574166D02*
G54D28*
D03*
X1717970Y574166D02*
G54D28*
D03*
X1717970Y654103D02*
G54D28*
D03*
X1705270Y654103D02*
G54D28*
D03*
X1692570Y654103D02*
G54D28*
D03*
X1679870Y654103D02*
G54D28*
D03*
X1667170Y654103D02*
G54D28*
D03*
X1616370Y654103D02*
G54D28*
D03*
X1603670Y654103D02*
G54D28*
D03*
X1590970Y654103D02*
G54D28*
D03*
X1578270Y654103D02*
G54D28*
D03*
X1565570Y654103D02*
G54D28*
D03*
X1565570Y447166D02*
G54D28*
D03*
X1578270Y447166D02*
G54D28*
D03*
X1590970Y447166D02*
G54D28*
D03*
X1603670Y447166D02*
G54D28*
D03*
X1616370Y447166D02*
G54D28*
D03*
X1667170Y447166D02*
G54D28*
D03*
X1679870Y447166D02*
G54D28*
D03*
X1692570Y447166D02*
G54D28*
D03*
X1705270Y447166D02*
G54D28*
D03*
X1717970Y447166D02*
G54D28*
D03*
X1717970Y527103D02*
G54D28*
D03*
X1705270Y527103D02*
G54D28*
D03*
X1692570Y527103D02*
G54D28*
D03*
X1679870Y527103D02*
G54D28*
D03*
X1667170Y527103D02*
G54D28*
D03*
X1616370Y527103D02*
G54D28*
D03*
X1603670Y527103D02*
G54D28*
D03*
X1590970Y527103D02*
G54D28*
D03*
X1578270Y527103D02*
G54D28*
D03*
X1565570Y527103D02*
G54D28*
D03*
X2181570Y1643001D02*
G54D24*
D03*
X2181570Y1603102D02*
G54D24*
D03*
X463422Y225607D02*
G54D29*
D03*
X503321Y225607D02*
G54D29*
D03*
X1261342Y1630357D02*
G54D30*
D03*
X1308966Y1630357D02*
G54D30*
D03*
X1909977Y1636902D02*
G54D31*
D03*
X1956474Y1636942D02*
G54D31*
D03*
X1992527Y1636902D02*
G54D31*
D03*
X2039024Y1636942D02*
G54D31*
D03*
X2075077Y1636902D02*
G54D31*
D03*
X2121574Y1636942D02*
G54D31*
D03*
X1462302Y449452D02*
G54D31*
D03*
X1508799Y449492D02*
G54D31*
D03*
X1051262Y694321D02*
G54D32*
D03*
X1051302Y647824D02*
G54D32*
D03*
X2131752Y1019309D02*
G54D25*
D03*
X2131752Y1074871D02*
G54D25*
D03*
X2133554Y630818D02*
G54D25*
D03*
X2133554Y575256D02*
G54D25*
D03*
X2133554Y503818D02*
G54D25*
D03*
X2133554Y448256D02*
G54D25*
D03*
G36*
X987138Y454831D02*
X987138Y470831D01*
X1003138Y470831D01*
X1003138Y454831D01*
X987138Y454831D01*
G37*
X995138Y488231D02*
G54D33*
D03*
X995138Y513631D02*
G54D33*
D03*
X995138Y539031D02*
G54D33*
D03*
X995138Y564431D02*
G54D33*
D03*
X995138Y589831D02*
G54D33*
D03*
X995138Y615231D02*
G54D33*
D03*
X995138Y640631D02*
G54D33*
D03*
X995138Y666031D02*
G54D33*
D03*
X995138Y691431D02*
G54D33*
D03*
X995138Y716831D02*
G54D33*
D03*
X995138Y742231D02*
G54D33*
D03*
X995138Y767631D02*
G54D33*
D03*
X995138Y793031D02*
G54D33*
D03*
X995138Y818431D02*
G54D33*
D03*
X995138Y843831D02*
G54D33*
D03*
X842738Y843831D02*
G54D33*
D03*
X842738Y818431D02*
G54D33*
D03*
X842738Y793031D02*
G54D33*
D03*
X842738Y767631D02*
G54D33*
D03*
X842738Y742231D02*
G54D33*
D03*
X842738Y716831D02*
G54D33*
D03*
X842738Y691431D02*
G54D33*
D03*
X842738Y666031D02*
G54D33*
D03*
X842738Y640631D02*
G54D33*
D03*
X842738Y615231D02*
G54D33*
D03*
X842738Y589831D02*
G54D33*
D03*
X842738Y564431D02*
G54D33*
D03*
X842738Y539031D02*
G54D33*
D03*
X842738Y513631D02*
G54D33*
D03*
X842738Y488231D02*
G54D33*
D03*
X842738Y462831D02*
G54D33*
D03*
G36*
X782351Y454831D02*
X782351Y470831D01*
X798351Y470831D01*
X798351Y454831D01*
X782351Y454831D01*
G37*
X790351Y488231D02*
G54D33*
D03*
X790351Y513631D02*
G54D33*
D03*
X790351Y539031D02*
G54D33*
D03*
X790351Y564431D02*
G54D33*
D03*
X790351Y589831D02*
G54D33*
D03*
X790351Y615231D02*
G54D33*
D03*
X790351Y640631D02*
G54D33*
D03*
X790351Y666031D02*
G54D33*
D03*
X790351Y691431D02*
G54D33*
D03*
X790351Y716831D02*
G54D33*
D03*
X790351Y742231D02*
G54D33*
D03*
X790351Y767631D02*
G54D33*
D03*
X790351Y793031D02*
G54D33*
D03*
X790351Y818431D02*
G54D33*
D03*
X790351Y843831D02*
G54D33*
D03*
X637951Y843831D02*
G54D33*
D03*
X637951Y818431D02*
G54D33*
D03*
X637951Y793031D02*
G54D33*
D03*
X637951Y767631D02*
G54D33*
D03*
X637951Y742231D02*
G54D33*
D03*
X637951Y716831D02*
G54D33*
D03*
X637951Y691431D02*
G54D33*
D03*
X637951Y666031D02*
G54D33*
D03*
X637951Y640631D02*
G54D33*
D03*
X637951Y615231D02*
G54D33*
D03*
X637951Y589831D02*
G54D33*
D03*
X637951Y564431D02*
G54D33*
D03*
X637951Y539031D02*
G54D33*
D03*
X637951Y513631D02*
G54D33*
D03*
X637951Y488231D02*
G54D33*
D03*
X637951Y462831D02*
G54D33*
D03*
G36*
X579151Y454831D02*
X579151Y470831D01*
X595151Y470831D01*
X595151Y454831D01*
X579151Y454831D01*
G37*
X587151Y488231D02*
G54D33*
D03*
X587151Y513631D02*
G54D33*
D03*
X587151Y539031D02*
G54D33*
D03*
X587151Y564431D02*
G54D33*
D03*
X587151Y589831D02*
G54D33*
D03*
X587151Y615231D02*
G54D33*
D03*
X587151Y640631D02*
G54D33*
D03*
X587151Y666031D02*
G54D33*
D03*
X587151Y691431D02*
G54D33*
D03*
X587151Y716831D02*
G54D33*
D03*
X587151Y742231D02*
G54D33*
D03*
X587151Y767631D02*
G54D33*
D03*
X587151Y793031D02*
G54D33*
D03*
X587151Y818431D02*
G54D33*
D03*
X587151Y843831D02*
G54D33*
D03*
X434751Y843831D02*
G54D33*
D03*
X434751Y818431D02*
G54D33*
D03*
X434751Y793031D02*
G54D33*
D03*
X434751Y767631D02*
G54D33*
D03*
X434751Y742231D02*
G54D33*
D03*
X434751Y716831D02*
G54D33*
D03*
X434751Y691431D02*
G54D33*
D03*
X434751Y666031D02*
G54D33*
D03*
X434751Y640631D02*
G54D33*
D03*
X434751Y615231D02*
G54D33*
D03*
X434751Y589831D02*
G54D33*
D03*
X434751Y564431D02*
G54D33*
D03*
X434751Y539031D02*
G54D33*
D03*
X434751Y513631D02*
G54D33*
D03*
X434751Y488231D02*
G54D33*
D03*
X434751Y462831D02*
G54D33*
D03*
G36*
X375951Y454831D02*
X375951Y470831D01*
X391951Y470831D01*
X391951Y454831D01*
X375951Y454831D01*
G37*
X383951Y488231D02*
G54D33*
D03*
X383951Y513631D02*
G54D33*
D03*
X383951Y539031D02*
G54D33*
D03*
X383951Y564431D02*
G54D33*
D03*
X383951Y589831D02*
G54D33*
D03*
X383951Y615231D02*
G54D33*
D03*
X383951Y640631D02*
G54D33*
D03*
X383951Y666031D02*
G54D33*
D03*
X383951Y691431D02*
G54D33*
D03*
X383951Y716831D02*
G54D33*
D03*
X383951Y742231D02*
G54D33*
D03*
X383951Y767631D02*
G54D33*
D03*
X383951Y793031D02*
G54D33*
D03*
X383951Y818431D02*
G54D33*
D03*
X383951Y843831D02*
G54D33*
D03*
X231551Y843831D02*
G54D33*
D03*
X231551Y818431D02*
G54D33*
D03*
X231551Y793031D02*
G54D33*
D03*
X231551Y767631D02*
G54D33*
D03*
X231551Y742231D02*
G54D33*
D03*
X231551Y716831D02*
G54D33*
D03*
X231551Y691431D02*
G54D33*
D03*
X231551Y666031D02*
G54D33*
D03*
X231551Y640631D02*
G54D33*
D03*
X231551Y615231D02*
G54D33*
D03*
X231551Y589831D02*
G54D33*
D03*
X231551Y564431D02*
G54D33*
D03*
X231551Y539031D02*
G54D33*
D03*
X231551Y513631D02*
G54D33*
D03*
X231551Y488231D02*
G54D33*
D03*
X231551Y462831D02*
G54D33*
D03*
X1070200Y590350D02*
G54D34*
D03*
X1222600Y590350D02*
G54D34*
D03*
X1222601Y514150D02*
G54D34*
D03*
G36*
X1061700Y522650D02*
X1078700Y522650D01*
X1078700Y505650D01*
X1061700Y505650D01*
X1061700Y522650D01*
G37*
X1503236Y513765D02*
G54D34*
D03*
X1350835Y513765D02*
G54D34*
D03*
X1350835Y589965D02*
G54D34*
D03*
G36*
X1511736Y581465D02*
X1494736Y581465D01*
X1494736Y598465D01*
X1511736Y598465D01*
X1511736Y581465D01*
G37*
G36*
X1888750Y131158D02*
X1904750Y131158D01*
X1904750Y115158D01*
X1888750Y115158D01*
X1888750Y131158D01*
G37*
X1896750Y148558D02*
G54D33*
D03*
X1922150Y123158D02*
G54D33*
D03*
X1922150Y148558D02*
G54D33*
D03*
X1947550Y123158D02*
G54D33*
D03*
X1947550Y148558D02*
G54D33*
D03*
X1972950Y123158D02*
G54D33*
D03*
X1972950Y148558D02*
G54D33*
D03*
X1998350Y123158D02*
G54D33*
D03*
X1998350Y148558D02*
G54D33*
D03*
X2023750Y123158D02*
G54D33*
D03*
X2023750Y148558D02*
G54D33*
D03*
X2049150Y123158D02*
G54D33*
D03*
X2049150Y148558D02*
G54D33*
D03*
X2074550Y123158D02*
G54D33*
D03*
X2074550Y148558D02*
G54D33*
D03*
X2099950Y123158D02*
G54D33*
D03*
X2099950Y148558D02*
G54D33*
D03*
X2125350Y123158D02*
G54D33*
D03*
X2125350Y148558D02*
G54D33*
D03*
G36*
X107575Y267683D02*
X123575Y267683D01*
X123575Y251683D01*
X107575Y251683D01*
X107575Y267683D01*
G37*
X115575Y285083D02*
G54D33*
D03*
X140975Y259683D02*
G54D33*
D03*
X140975Y285083D02*
G54D33*
D03*
X166375Y259683D02*
G54D33*
D03*
X166375Y285083D02*
G54D33*
D03*
X191775Y259683D02*
G54D33*
D03*
X191775Y285083D02*
G54D33*
D03*
X217175Y259683D02*
G54D33*
D03*
X217175Y285083D02*
G54D33*
D03*
X242575Y259683D02*
G54D33*
D03*
X242575Y285083D02*
G54D33*
D03*
X267975Y259683D02*
G54D33*
D03*
X267975Y285083D02*
G54D33*
D03*
X293375Y259683D02*
G54D33*
D03*
X293375Y285083D02*
G54D33*
D03*
X318775Y259683D02*
G54D33*
D03*
X318775Y285083D02*
G54D33*
D03*
X344175Y259683D02*
G54D33*
D03*
X344175Y285083D02*
G54D33*
D03*
G36*
X316758Y130865D02*
X332758Y130865D01*
X332758Y114865D01*
X316758Y114865D01*
X316758Y130865D01*
G37*
X324758Y148265D02*
G54D33*
D03*
X350158Y122865D02*
G54D33*
D03*
X350158Y148265D02*
G54D33*
D03*
X375557Y122865D02*
G54D33*
D03*
X375558Y148265D02*
G54D33*
D03*
X400957Y122865D02*
G54D33*
D03*
X400958Y148265D02*
G54D33*
D03*
X426358Y122865D02*
G54D33*
D03*
X426358Y148265D02*
G54D33*
D03*
X451758Y122865D02*
G54D33*
D03*
X451758Y148265D02*
G54D33*
D03*
X477157Y122865D02*
G54D33*
D03*
X477158Y148265D02*
G54D33*
D03*
X502558Y122865D02*
G54D33*
D03*
X502558Y148265D02*
G54D33*
D03*
X527958Y122865D02*
G54D33*
D03*
X527958Y148265D02*
G54D33*
D03*
X553358Y122865D02*
G54D33*
D03*
X553358Y148265D02*
G54D33*
D03*
X578758Y122865D02*
G54D33*
D03*
X578758Y148265D02*
G54D33*
D03*
X604158Y122865D02*
G54D33*
D03*
X604158Y148265D02*
G54D33*
D03*
X629558Y122865D02*
G54D33*
D03*
X629558Y148265D02*
G54D33*
D03*
X654958Y122865D02*
G54D33*
D03*
X654958Y148265D02*
G54D33*
D03*
X680358Y122865D02*
G54D33*
D03*
X680358Y148265D02*
G54D33*
D03*
X705758Y122865D02*
G54D33*
D03*
X705758Y148265D02*
G54D33*
D03*
X731158Y122865D02*
G54D33*
D03*
X731158Y148265D02*
G54D33*
D03*
X756558Y122865D02*
G54D33*
D03*
X756558Y148265D02*
G54D33*
D03*
X781958Y122865D02*
G54D33*
D03*
X781958Y148265D02*
G54D33*
D03*
X807358Y122865D02*
G54D33*
D03*
X807358Y148265D02*
G54D33*
D03*
X832758Y122865D02*
G54D33*
D03*
X832758Y148265D02*
G54D33*
D03*
X858158Y122865D02*
G54D33*
D03*
X858158Y148265D02*
G54D33*
D03*
X883558Y122865D02*
G54D33*
D03*
X883558Y148265D02*
G54D33*
D03*
X908958Y122865D02*
G54D33*
D03*
X908958Y148265D02*
G54D33*
D03*
X934358Y122865D02*
G54D33*
D03*
X934358Y148265D02*
G54D33*
D03*
G36*
X1898252Y1674208D02*
X1880252Y1674208D01*
X1880252Y1692208D01*
X1898252Y1692208D01*
X1898252Y1674208D01*
G37*
X1915952Y1683208D02*
G54D35*
D03*
X1943652Y1683208D02*
G54D35*
D03*
X1971352Y1683208D02*
G54D35*
D03*
X1998952Y1683208D02*
G54D35*
D03*
X2026652Y1683208D02*
G54D35*
D03*
X2054352Y1683208D02*
G54D35*
D03*
X2082052Y1683208D02*
G54D35*
D03*
X1902252Y1711608D02*
G54D35*
D03*
X1929952Y1711608D02*
G54D35*
D03*
X1957552Y1711608D02*
G54D35*
D03*
X1985252Y1711608D02*
G54D35*
D03*
X2012952Y1711608D02*
G54D35*
D03*
X2040652Y1711608D02*
G54D35*
D03*
X2068352Y1711608D02*
G54D35*
D03*
G36*
X2117560Y1731147D02*
X2184560Y1731147D01*
X2184560Y1664147D01*
X2117560Y1664147D01*
X2117560Y1731147D01*
G37*
G36*
X1785772Y1731147D02*
X1852772Y1731147D01*
X1852772Y1664147D01*
X1785772Y1664147D01*
X1785772Y1731147D01*
G37*
G36*
X1360324Y1731147D02*
X1427324Y1731147D01*
X1427324Y1664147D01*
X1360324Y1664147D01*
X1360324Y1731147D01*
G37*
G36*
X890424Y1731147D02*
X957424Y1731147D01*
X957424Y1664147D01*
X890424Y1664147D01*
X890424Y1731147D01*
G37*
G36*
X1000341Y1674608D02*
X983141Y1674608D01*
X983141Y1691808D01*
X1000341Y1691808D01*
X1000341Y1674608D01*
G37*
X1019441Y1683208D02*
G54D36*
D03*
X1047041Y1683208D02*
G54D36*
D03*
X1074741Y1683208D02*
G54D36*
D03*
X1102441Y1683208D02*
G54D36*
D03*
X1130141Y1683208D02*
G54D36*
D03*
X1157841Y1683208D02*
G54D36*
D03*
X1185541Y1683208D02*
G54D36*
D03*
X1213241Y1683208D02*
G54D36*
D03*
X1240841Y1683208D02*
G54D36*
D03*
X1268541Y1683208D02*
G54D36*
D03*
X1296241Y1683208D02*
G54D36*
D03*
X1323941Y1683208D02*
G54D36*
D03*
X1005641Y1711608D02*
G54D36*
D03*
X1033341Y1711608D02*
G54D36*
D03*
X1062041Y1711608D02*
G54D36*
D03*
X1088741Y1711608D02*
G54D36*
D03*
X1116441Y1711608D02*
G54D36*
D03*
X1144141Y1711608D02*
G54D36*
D03*
X1171841Y1711608D02*
G54D36*
D03*
X1199441Y1711608D02*
G54D36*
D03*
X1227141Y1711608D02*
G54D36*
D03*
X1254841Y1711608D02*
G54D36*
D03*
X1282541Y1711608D02*
G54D36*
D03*
X1310241Y1711608D02*
G54D36*
D03*
G36*
X2001400Y530950D02*
X2001400Y548150D01*
X2018600Y548150D01*
X2018600Y530950D01*
X2001400Y530950D01*
G37*
X2010000Y564950D02*
G54D37*
D03*
X2010000Y590350D02*
G54D37*
D03*
X2010000Y615750D02*
G54D37*
D03*
X2010000Y641150D02*
G54D37*
D03*
X2010000Y666550D02*
G54D37*
D03*
X2010000Y691950D02*
G54D37*
D03*
X2010000Y717350D02*
G54D37*
D03*
X2010000Y742750D02*
G54D37*
D03*
X2010000Y768150D02*
G54D37*
D03*
X2010000Y793550D02*
G54D37*
D03*
X2010000Y818950D02*
G54D37*
D03*
X2010000Y844350D02*
G54D37*
D03*
X2010000Y869750D02*
G54D37*
D03*
X2010000Y895150D02*
G54D37*
D03*
X2010000Y920550D02*
G54D37*
D03*
X2010000Y945950D02*
G54D37*
D03*
X2010000Y971350D02*
G54D37*
D03*
X2010000Y996750D02*
G54D37*
D03*
X2010000Y1022150D02*
G54D37*
D03*
X2010000Y1047550D02*
G54D37*
D03*
X2010000Y1072950D02*
G54D37*
D03*
X2010000Y1098350D02*
G54D37*
D03*
X2010000Y1123750D02*
G54D37*
D03*
X2010000Y1149150D02*
G54D37*
D03*
X2010000Y1174550D02*
G54D37*
D03*
X2010000Y1199950D02*
G54D37*
D03*
X2010000Y1225350D02*
G54D37*
D03*
X2010000Y1250750D02*
G54D37*
D03*
X2010000Y1276150D02*
G54D37*
D03*
G36*
X1899800Y530950D02*
X1899800Y548150D01*
X1917000Y548150D01*
X1917000Y530950D01*
X1899800Y530950D01*
G37*
X1908400Y564950D02*
G54D37*
D03*
X1908400Y590350D02*
G54D37*
D03*
X1908400Y615750D02*
G54D37*
D03*
X1908400Y641150D02*
G54D37*
D03*
X1908400Y666550D02*
G54D37*
D03*
X1908400Y691950D02*
G54D37*
D03*
X1908400Y717350D02*
G54D37*
D03*
X1908400Y742750D02*
G54D37*
D03*
X1908400Y768150D02*
G54D37*
D03*
X1908400Y793550D02*
G54D37*
D03*
X1908400Y818950D02*
G54D37*
D03*
X1908400Y844350D02*
G54D37*
D03*
X1908400Y869750D02*
G54D37*
D03*
X1908400Y895150D02*
G54D37*
D03*
X1908400Y920550D02*
G54D37*
D03*
X1908400Y945950D02*
G54D37*
D03*
X1908400Y971350D02*
G54D37*
D03*
X1908400Y996750D02*
G54D37*
D03*
X1908400Y1022150D02*
G54D37*
D03*
X1908400Y1047550D02*
G54D37*
D03*
X1908400Y1072950D02*
G54D37*
D03*
X1908400Y1098350D02*
G54D37*
D03*
X1908400Y1123750D02*
G54D37*
D03*
X1908400Y1149150D02*
G54D37*
D03*
X1908400Y1174550D02*
G54D37*
D03*
X1908400Y1199950D02*
G54D37*
D03*
X1908400Y1225350D02*
G54D37*
D03*
X1908400Y1250750D02*
G54D37*
D03*
X1908400Y1276150D02*
G54D37*
D03*
X1908400Y1369812D02*
G54D38*
D03*
X2010000Y1369812D02*
G54D38*
D03*
X1908400Y444300D02*
G54D39*
D03*
X2010000Y444300D02*
G54D39*
D03*
X1781674Y716222D02*
G54D37*
D03*
X1781674Y741622D02*
G54D37*
D03*
X1781674Y767022D02*
G54D37*
D03*
X1781674Y792422D02*
G54D37*
D03*
X1781674Y817822D02*
G54D37*
D03*
X1781674Y843222D02*
G54D37*
D03*
X1781674Y868622D02*
G54D37*
D03*
X1781674Y894022D02*
G54D37*
D03*
X1781674Y919422D02*
G54D37*
D03*
X1781674Y944822D02*
G54D37*
D03*
X1781674Y1021022D02*
G54D37*
D03*
X1781674Y1046422D02*
G54D37*
D03*
X1781674Y1071822D02*
G54D37*
D03*
X1781674Y1097222D02*
G54D37*
D03*
X1781674Y1122622D02*
G54D37*
D03*
X1781674Y1148022D02*
G54D37*
D03*
X1781674Y1173422D02*
G54D37*
D03*
X1781674Y1198822D02*
G54D37*
D03*
X1781674Y1224222D02*
G54D37*
D03*
X1781674Y1249622D02*
G54D37*
D03*
X1781674Y1275022D02*
G54D37*
D03*
X1781674Y1300422D02*
G54D37*
D03*
X1781674Y1325822D02*
G54D37*
D03*
X1781674Y1351222D02*
G54D37*
D03*
X1781674Y1376622D02*
G54D37*
D03*
X1781674Y1402022D02*
G54D37*
D03*
X1781674Y1427422D02*
G54D37*
D03*
X1807074Y728922D02*
G54D37*
D03*
X1807074Y754322D02*
G54D37*
D03*
X1807074Y779722D02*
G54D37*
D03*
X1807074Y805122D02*
G54D37*
D03*
X1807074Y830522D02*
G54D37*
D03*
X1807074Y855922D02*
G54D37*
D03*
X1807074Y881322D02*
G54D37*
D03*
X1807074Y906722D02*
G54D37*
D03*
X1807074Y932122D02*
G54D37*
D03*
X1807074Y957522D02*
G54D37*
D03*
X1807074Y1033722D02*
G54D37*
D03*
X1807074Y1059122D02*
G54D37*
D03*
X1807074Y1084522D02*
G54D37*
D03*
X1807074Y1109922D02*
G54D37*
D03*
X1807074Y1135322D02*
G54D37*
D03*
X1807074Y1160722D02*
G54D37*
D03*
X1807074Y1186122D02*
G54D37*
D03*
X1807074Y1211522D02*
G54D37*
D03*
X1807074Y1236922D02*
G54D37*
D03*
X1807074Y1262322D02*
G54D37*
D03*
X1807074Y1287722D02*
G54D37*
D03*
X1807074Y1313122D02*
G54D37*
D03*
X1807074Y1338522D02*
G54D37*
D03*
X1807074Y1363922D02*
G54D37*
D03*
X1807074Y1389322D02*
G54D37*
D03*
X1807074Y1414722D02*
G54D37*
D03*
X1807074Y1440122D02*
G54D37*
D03*
G36*
X1773074Y529822D02*
X1773074Y547022D01*
X1790274Y547022D01*
X1790274Y529822D01*
X1773074Y529822D01*
G37*
X1781674Y563822D02*
G54D37*
D03*
X1781674Y589222D02*
G54D37*
D03*
X1781674Y614622D02*
G54D37*
D03*
X1781674Y640022D02*
G54D37*
D03*
X1781674Y665422D02*
G54D37*
D03*
X1781674Y690822D02*
G54D37*
D03*
X1807074Y551122D02*
G54D37*
D03*
X1807074Y576522D02*
G54D37*
D03*
X1807074Y601922D02*
G54D37*
D03*
X1807074Y627322D02*
G54D37*
D03*
X1807074Y652722D02*
G54D37*
D03*
X1807074Y678122D02*
G54D37*
D03*
X1807074Y703522D02*
G54D37*
D03*
X1793306Y1522212D02*
G54D40*
D03*
X1793306Y988812D02*
G54D41*
D03*
X1793306Y457000D02*
G54D41*
D03*
X139925Y590350D02*
G54D42*
D03*
X139925Y615750D02*
G54D42*
D03*
X139925Y641150D02*
G54D42*
D03*
X139925Y666550D02*
G54D42*
D03*
X139925Y691950D02*
G54D42*
D03*
X139925Y717350D02*
G54D42*
D03*
X139925Y742750D02*
G54D42*
D03*
X139925Y768150D02*
G54D42*
D03*
X139925Y793550D02*
G54D42*
D03*
X139925Y818950D02*
G54D42*
D03*
X139925Y844350D02*
G54D42*
D03*
X139925Y869750D02*
G54D42*
D03*
X139925Y895150D02*
G54D42*
D03*
X139925Y920550D02*
G54D42*
D03*
X139925Y945950D02*
G54D42*
D03*
X139925Y971350D02*
G54D42*
D03*
X139925Y996750D02*
G54D42*
D03*
X139925Y1022150D02*
G54D42*
D03*
X139925Y1047550D02*
G54D42*
D03*
X139925Y1072950D02*
G54D42*
D03*
X139925Y1098350D02*
G54D42*
D03*
X139925Y1123750D02*
G54D42*
D03*
X139925Y1149150D02*
G54D42*
D03*
X139925Y1174550D02*
G54D42*
D03*
X139925Y1199950D02*
G54D42*
D03*
X139925Y1225350D02*
G54D42*
D03*
X139925Y1250750D02*
G54D42*
D03*
X139925Y1276150D02*
G54D42*
D03*
X139925Y1301550D02*
G54D42*
D03*
X139925Y1326950D02*
G54D42*
D03*
X114525Y590350D02*
G54D42*
D03*
X114525Y615750D02*
G54D42*
D03*
X114525Y641150D02*
G54D42*
D03*
X114525Y666550D02*
G54D42*
D03*
X114525Y691950D02*
G54D42*
D03*
X114525Y717350D02*
G54D42*
D03*
X114525Y742750D02*
G54D42*
D03*
X114525Y768150D02*
G54D42*
D03*
X114525Y793550D02*
G54D42*
D03*
X114525Y818950D02*
G54D42*
D03*
X114525Y844350D02*
G54D42*
D03*
X114525Y869750D02*
G54D42*
D03*
X114525Y895150D02*
G54D42*
D03*
X114525Y920550D02*
G54D42*
D03*
X114525Y945950D02*
G54D42*
D03*
X114525Y971350D02*
G54D42*
D03*
X114525Y996750D02*
G54D42*
D03*
X114525Y1022150D02*
G54D42*
D03*
X114525Y1047550D02*
G54D42*
D03*
X114525Y1072950D02*
G54D42*
D03*
X114525Y1098350D02*
G54D42*
D03*
X114525Y1123750D02*
G54D42*
D03*
X114525Y1149150D02*
G54D42*
D03*
X114525Y1174550D02*
G54D42*
D03*
X114525Y1199950D02*
G54D42*
D03*
X114525Y1225350D02*
G54D42*
D03*
X114525Y1250750D02*
G54D42*
D03*
X114525Y1276150D02*
G54D42*
D03*
X114525Y1301550D02*
G54D42*
D03*
X114525Y1326950D02*
G54D42*
D03*
X89125Y590350D02*
G54D42*
D03*
X89125Y615750D02*
G54D42*
D03*
X89125Y641150D02*
G54D42*
D03*
X89125Y666550D02*
G54D42*
D03*
X89125Y691950D02*
G54D42*
D03*
X89125Y717350D02*
G54D42*
D03*
X89125Y742750D02*
G54D42*
D03*
X89125Y768150D02*
G54D42*
D03*
X89125Y793550D02*
G54D42*
D03*
X89125Y818950D02*
G54D42*
D03*
X89125Y844350D02*
G54D42*
D03*
X89125Y869750D02*
G54D42*
D03*
X89125Y895150D02*
G54D42*
D03*
X89125Y920550D02*
G54D42*
D03*
X89125Y945950D02*
G54D42*
D03*
X89125Y971350D02*
G54D42*
D03*
X89125Y996750D02*
G54D42*
D03*
X89125Y1022150D02*
G54D42*
D03*
X89125Y1047550D02*
G54D42*
D03*
X89125Y1072950D02*
G54D42*
D03*
X89125Y1098350D02*
G54D42*
D03*
X89125Y1123750D02*
G54D42*
D03*
X89125Y1149150D02*
G54D42*
D03*
X89125Y1174550D02*
G54D42*
D03*
X89125Y1199950D02*
G54D42*
D03*
X89125Y1225350D02*
G54D42*
D03*
X89125Y1250750D02*
G54D42*
D03*
X89125Y1276150D02*
G54D42*
D03*
X89125Y1301550D02*
G54D42*
D03*
G36*
X80525Y1318350D02*
X80525Y1335550D01*
X97725Y1335550D01*
X97725Y1318350D01*
X80525Y1318350D01*
G37*
X139925Y539550D02*
G54D42*
D03*
X139925Y564950D02*
G54D42*
D03*
X114525Y539550D02*
G54D42*
D03*
X114525Y564950D02*
G54D42*
D03*
X89125Y539550D02*
G54D42*
D03*
X89125Y564950D02*
G54D42*
D03*
G36*
X495000Y378150D02*
X477000Y378150D01*
X477000Y396150D01*
X495000Y396150D01*
X495000Y378150D01*
G37*
X486000Y361750D02*
G54D35*
D03*
X460600Y387150D02*
G54D35*
D03*
X460600Y361750D02*
G54D35*
D03*
X435200Y387150D02*
G54D35*
D03*
X435200Y361750D02*
G54D35*
D03*
X840806Y1109859D02*
G54D34*
D03*
X840806Y1084459D02*
G54D34*
D03*
G36*
X1088725Y359100D02*
X1070725Y359100D01*
X1070725Y377100D01*
X1088725Y377100D01*
X1088725Y359100D01*
G37*
X1054325Y368100D02*
G54D35*
D03*
X1028925Y368100D02*
G54D35*
D03*
G36*
X1006175Y236862D02*
X988175Y236862D01*
X988175Y254862D01*
X1006175Y254862D01*
X1006175Y236862D01*
G37*
X971775Y245862D02*
G54D35*
D03*
X867000Y310950D02*
G54D43*
D03*
G36*
X560725Y321950D02*
X582725Y321950D01*
X582725Y299950D01*
X560725Y299950D01*
X560725Y321950D01*
G37*
G36*
X837500Y986562D02*
X820300Y986562D01*
X820300Y1003762D01*
X837500Y1003762D01*
X837500Y986562D01*
G37*
X778100Y995163D02*
G54D37*
D03*
X747938Y1604762D02*
G54D34*
D03*
X773338Y1604762D02*
G54D34*
D03*
X798738Y1604762D02*
G54D34*
D03*
X824138Y1604762D02*
G54D34*
D03*
X747938Y1528562D02*
G54D34*
D03*
X773338Y1528562D02*
G54D34*
D03*
X798738Y1528562D02*
G54D34*
D03*
X824137Y1528562D02*
G54D34*
D03*
X519301Y1641918D02*
G54D44*
D03*
X520301Y1641918D02*
G54D44*
D03*
X521301Y1641918D02*
G54D44*
D03*
X522301Y1641918D02*
G54D44*
D03*
X523301Y1641918D02*
G54D44*
D03*
X524301Y1641918D02*
G54D44*
D03*
X525301Y1641918D02*
G54D44*
D03*
X526301Y1641918D02*
G54D44*
D03*
X527301Y1641918D02*
G54D44*
D03*
X528301Y1641918D02*
G54D44*
D03*
X538351Y1679224D02*
G54D44*
D03*
X539351Y1679224D02*
G54D44*
D03*
X540351Y1679224D02*
G54D44*
D03*
X541351Y1679224D02*
G54D44*
D03*
X542351Y1679224D02*
G54D44*
D03*
X543351Y1679224D02*
G54D44*
D03*
X544351Y1679224D02*
G54D44*
D03*
X545351Y1679224D02*
G54D44*
D03*
X546351Y1679224D02*
G54D44*
D03*
X547351Y1679224D02*
G54D44*
D03*
X519301Y1699068D02*
G54D44*
D03*
X520301Y1699068D02*
G54D44*
D03*
X521301Y1699068D02*
G54D44*
D03*
X522301Y1699068D02*
G54D44*
D03*
X523301Y1699068D02*
G54D44*
D03*
X524301Y1699068D02*
G54D44*
D03*
X525301Y1699068D02*
G54D44*
D03*
X526301Y1699068D02*
G54D44*
D03*
X527301Y1699068D02*
G54D44*
D03*
X528301Y1699068D02*
G54D44*
D03*
X538351Y1735580D02*
G54D44*
D03*
X539351Y1735580D02*
G54D44*
D03*
X540351Y1735580D02*
G54D44*
D03*
X541351Y1735580D02*
G54D44*
D03*
X542351Y1735580D02*
G54D44*
D03*
X543351Y1735580D02*
G54D44*
D03*
X544351Y1735580D02*
G54D44*
D03*
X545351Y1735580D02*
G54D44*
D03*
X546351Y1735580D02*
G54D44*
D03*
X547351Y1735580D02*
G54D44*
D03*
X519301Y1759393D02*
G54D44*
D03*
X520301Y1759393D02*
G54D44*
D03*
X521301Y1759393D02*
G54D44*
D03*
X522301Y1759393D02*
G54D44*
D03*
X523301Y1759393D02*
G54D44*
D03*
X524301Y1759393D02*
G54D44*
D03*
X525301Y1759393D02*
G54D44*
D03*
X526301Y1759393D02*
G54D44*
D03*
X527301Y1759393D02*
G54D44*
D03*
X528301Y1759393D02*
G54D44*
D03*
X639426Y1641918D02*
G54D44*
D03*
X640426Y1641918D02*
G54D44*
D03*
X641426Y1641918D02*
G54D44*
D03*
X642426Y1641918D02*
G54D44*
D03*
X643426Y1641918D02*
G54D44*
D03*
X644426Y1641918D02*
G54D44*
D03*
X645426Y1641918D02*
G54D44*
D03*
X646426Y1641918D02*
G54D44*
D03*
X647426Y1641918D02*
G54D44*
D03*
X648426Y1641918D02*
G54D44*
D03*
X658476Y1679224D02*
G54D44*
D03*
X659476Y1679224D02*
G54D44*
D03*
X660476Y1679224D02*
G54D44*
D03*
X661476Y1679224D02*
G54D44*
D03*
X662476Y1679224D02*
G54D44*
D03*
X663476Y1679224D02*
G54D44*
D03*
X664476Y1679224D02*
G54D44*
D03*
X665476Y1679224D02*
G54D44*
D03*
X666476Y1679224D02*
G54D44*
D03*
X667476Y1679224D02*
G54D44*
D03*
X639426Y1699068D02*
G54D44*
D03*
X640426Y1699068D02*
G54D44*
D03*
X641426Y1699068D02*
G54D44*
D03*
X642426Y1699068D02*
G54D44*
D03*
X643426Y1699068D02*
G54D44*
D03*
X644426Y1699068D02*
G54D44*
D03*
X645426Y1699068D02*
G54D44*
D03*
X646426Y1699068D02*
G54D44*
D03*
X647426Y1699068D02*
G54D44*
D03*
X648426Y1699068D02*
G54D44*
D03*
X658476Y1735580D02*
G54D44*
D03*
X659476Y1735580D02*
G54D44*
D03*
X660476Y1735580D02*
G54D44*
D03*
X661476Y1735580D02*
G54D44*
D03*
X662476Y1735580D02*
G54D44*
D03*
X663476Y1735580D02*
G54D44*
D03*
X664476Y1735580D02*
G54D44*
D03*
X665476Y1735580D02*
G54D44*
D03*
X666476Y1735580D02*
G54D44*
D03*
X667476Y1735580D02*
G54D44*
D03*
X639426Y1759393D02*
G54D44*
D03*
X640426Y1759393D02*
G54D44*
D03*
X641426Y1759393D02*
G54D44*
D03*
X642426Y1759393D02*
G54D44*
D03*
X643426Y1759393D02*
G54D44*
D03*
X644426Y1759393D02*
G54D44*
D03*
X645426Y1759393D02*
G54D44*
D03*
X646426Y1759393D02*
G54D44*
D03*
X647426Y1759393D02*
G54D44*
D03*
X648426Y1759393D02*
G54D44*
D03*
X1590259Y1745179D02*
G54D45*
D03*
X1590259Y1744179D02*
G54D45*
D03*
X1590259Y1743179D02*
G54D45*
D03*
X1590259Y1742179D02*
G54D45*
D03*
X1590259Y1741179D02*
G54D45*
D03*
X1590259Y1740179D02*
G54D45*
D03*
X1590259Y1739179D02*
G54D45*
D03*
X1590259Y1738179D02*
G54D45*
D03*
X1590259Y1737179D02*
G54D45*
D03*
X1590259Y1736179D02*
G54D45*
D03*
X1590259Y1735179D02*
G54D45*
D03*
X1590259Y1734179D02*
G54D45*
D03*
X1590259Y1733179D02*
G54D45*
D03*
X1590259Y1732179D02*
G54D45*
D03*
X1590259Y1731179D02*
G54D45*
D03*
X1455321Y1745179D02*
G54D45*
D03*
X1455321Y1744179D02*
G54D45*
D03*
X1455321Y1743179D02*
G54D45*
D03*
X1455321Y1742179D02*
G54D45*
D03*
X1455321Y1741179D02*
G54D45*
D03*
X1455321Y1740179D02*
G54D45*
D03*
X1455321Y1739179D02*
G54D45*
D03*
X1455321Y1738179D02*
G54D45*
D03*
X1455321Y1737179D02*
G54D45*
D03*
X1455321Y1736179D02*
G54D45*
D03*
X1455321Y1735179D02*
G54D45*
D03*
X1455321Y1734179D02*
G54D45*
D03*
X1455321Y1733179D02*
G54D45*
D03*
X1455321Y1732179D02*
G54D45*
D03*
X1455321Y1731179D02*
G54D45*
D03*
X1529790Y1746116D02*
G54D45*
D03*
X1528790Y1746116D02*
G54D45*
D03*
X1527790Y1746116D02*
G54D45*
D03*
X1526790Y1746116D02*
G54D45*
D03*
X1525790Y1746116D02*
G54D45*
D03*
X1524790Y1746116D02*
G54D45*
D03*
X1523790Y1746116D02*
G54D45*
D03*
X1522790Y1746116D02*
G54D45*
D03*
X1521790Y1746116D02*
G54D45*
D03*
X1520790Y1746116D02*
G54D45*
D03*
X1519790Y1746116D02*
G54D45*
D03*
X1518790Y1746116D02*
G54D45*
D03*
X1517790Y1746116D02*
G54D45*
D03*
X1516790Y1746116D02*
G54D45*
D03*
X1515790Y1746116D02*
G54D45*
D03*
X1489865Y1682822D02*
G54D34*
D03*
X1509865Y1682822D02*
G54D34*
D03*
X1529865Y1682822D02*
G54D34*
D03*
X1489865Y1707822D02*
G54D34*
D03*
G36*
X1501365Y1716322D02*
X1518365Y1716322D01*
X1518365Y1699322D01*
X1501365Y1699322D01*
X1501365Y1716322D01*
G37*
X1535865Y1707822D02*
G54D34*
D03*
X1555865Y1707822D02*
G54D34*
D03*
X1555865Y1682822D02*
G54D34*
D03*
X1756946Y1745179D02*
G54D45*
D03*
X1756946Y1744179D02*
G54D45*
D03*
X1756946Y1743179D02*
G54D45*
D03*
X1756946Y1742179D02*
G54D45*
D03*
X1756946Y1741179D02*
G54D45*
D03*
X1756946Y1740179D02*
G54D45*
D03*
X1756946Y1739179D02*
G54D45*
D03*
X1756946Y1738179D02*
G54D45*
D03*
X1756946Y1737179D02*
G54D45*
D03*
X1756946Y1736179D02*
G54D45*
D03*
X1756946Y1735179D02*
G54D45*
D03*
X1756946Y1734179D02*
G54D45*
D03*
X1756946Y1733179D02*
G54D45*
D03*
X1756946Y1732179D02*
G54D45*
D03*
X1756946Y1731179D02*
G54D45*
D03*
X1622009Y1745179D02*
G54D45*
D03*
X1622009Y1744179D02*
G54D45*
D03*
X1622009Y1743179D02*
G54D45*
D03*
X1622009Y1742179D02*
G54D45*
D03*
X1622009Y1741179D02*
G54D45*
D03*
X1622009Y1740179D02*
G54D45*
D03*
X1622009Y1739179D02*
G54D45*
D03*
X1622009Y1738179D02*
G54D45*
D03*
X1622009Y1737179D02*
G54D45*
D03*
X1622009Y1736179D02*
G54D45*
D03*
X1622009Y1735179D02*
G54D45*
D03*
X1622009Y1734179D02*
G54D45*
D03*
X1622009Y1733179D02*
G54D45*
D03*
X1622009Y1732179D02*
G54D45*
D03*
X1622009Y1731179D02*
G54D45*
D03*
X1696477Y1746116D02*
G54D45*
D03*
X1695478Y1746116D02*
G54D45*
D03*
X1694478Y1746116D02*
G54D45*
D03*
X1693478Y1746116D02*
G54D45*
D03*
X1692478Y1746116D02*
G54D45*
D03*
X1691478Y1746116D02*
G54D45*
D03*
X1690477Y1746116D02*
G54D45*
D03*
X1689477Y1746116D02*
G54D45*
D03*
X1688478Y1746116D02*
G54D45*
D03*
X1687478Y1746116D02*
G54D45*
D03*
X1686478Y1746116D02*
G54D45*
D03*
X1685478Y1746116D02*
G54D45*
D03*
X1684478Y1746116D02*
G54D45*
D03*
X1683477Y1746116D02*
G54D45*
D03*
X1682477Y1746116D02*
G54D45*
D03*
X1656552Y1682822D02*
G54D34*
D03*
X1676552Y1682822D02*
G54D34*
D03*
X1696552Y1682822D02*
G54D34*
D03*
X1656552Y1707822D02*
G54D34*
D03*
G36*
X1668052Y1716322D02*
X1685052Y1716322D01*
X1685052Y1699322D01*
X1668052Y1699322D01*
X1668052Y1716322D01*
G37*
X1702552Y1707822D02*
G54D34*
D03*
X1722552Y1707822D02*
G54D34*
D03*
X1722552Y1682822D02*
G54D34*
D03*
X860803Y1745179D02*
G54D45*
D03*
X860803Y1744179D02*
G54D45*
D03*
X860803Y1743179D02*
G54D45*
D03*
X860803Y1742179D02*
G54D45*
D03*
X860803Y1741179D02*
G54D45*
D03*
X860803Y1740179D02*
G54D45*
D03*
X860803Y1739179D02*
G54D45*
D03*
X860803Y1738179D02*
G54D45*
D03*
X860803Y1737179D02*
G54D45*
D03*
X860803Y1736179D02*
G54D45*
D03*
X860803Y1735179D02*
G54D45*
D03*
X860803Y1734179D02*
G54D45*
D03*
X860803Y1733179D02*
G54D45*
D03*
X860803Y1732179D02*
G54D45*
D03*
X860803Y1731179D02*
G54D45*
D03*
X725865Y1745179D02*
G54D45*
D03*
X725865Y1744179D02*
G54D45*
D03*
X725865Y1743179D02*
G54D45*
D03*
X725865Y1742179D02*
G54D45*
D03*
X725865Y1741179D02*
G54D45*
D03*
X725865Y1740179D02*
G54D45*
D03*
X725865Y1739179D02*
G54D45*
D03*
X725865Y1738179D02*
G54D45*
D03*
X725865Y1737179D02*
G54D45*
D03*
X725865Y1736179D02*
G54D45*
D03*
X725865Y1735179D02*
G54D45*
D03*
X725865Y1734179D02*
G54D45*
D03*
X725865Y1733179D02*
G54D45*
D03*
X725865Y1732179D02*
G54D45*
D03*
X725865Y1731179D02*
G54D45*
D03*
X800334Y1746117D02*
G54D45*
D03*
X799334Y1746117D02*
G54D45*
D03*
X798334Y1746117D02*
G54D45*
D03*
X797334Y1746117D02*
G54D45*
D03*
X796334Y1746117D02*
G54D45*
D03*
X795334Y1746117D02*
G54D45*
D03*
X794334Y1746117D02*
G54D45*
D03*
X793334Y1746117D02*
G54D45*
D03*
X792334Y1746117D02*
G54D45*
D03*
X791334Y1746117D02*
G54D45*
D03*
X790334Y1746117D02*
G54D45*
D03*
X789334Y1746117D02*
G54D45*
D03*
X788334Y1746117D02*
G54D45*
D03*
X787334Y1746117D02*
G54D45*
D03*
X786334Y1746117D02*
G54D45*
D03*
X760409Y1682822D02*
G54D34*
D03*
G36*
X751909Y1716322D02*
X768909Y1716322D01*
X768909Y1699322D01*
X751909Y1699322D01*
X751909Y1716322D01*
G37*
X826409Y1707822D02*
G54D34*
D03*
X826409Y1682822D02*
G54D34*
D03*
X2134222Y707825D02*
G54D46*
D03*
X2134222Y747512D02*
G54D46*
D03*
X2134222Y787200D02*
G54D46*
D03*
X2134222Y826887D02*
G54D46*
D03*
X2134222Y906262D02*
G54D46*
D03*
G36*
X2116972Y963200D02*
X2151472Y963200D01*
X2151472Y928700D01*
X2116972Y928700D01*
X2116972Y963200D01*
G37*
G36*
X133274Y155674D02*
X159274Y155674D01*
X159274Y129674D01*
X133274Y129674D01*
X133274Y155674D01*
G37*
X187550Y142675D02*
G54D47*
D03*
X146275Y88700D02*
G54D47*
D03*
X187550Y88700D02*
G54D47*
D03*
X1509938Y1620638D02*
G54D10*
D03*
X1676625Y1620638D02*
G54D10*
D03*
X1740125Y1590475D02*
G54D10*
D03*
X1811562Y1552375D02*
G54D10*
D03*
X1846488Y1574600D02*
G54D10*
D03*
X1881412Y1585712D02*
G54D10*
D03*
X1879776Y1605196D02*
G54D10*
D03*
X1879825Y1626194D02*
G54D10*
D03*
X1879825Y1646038D02*
G54D10*
D03*
X1928244Y1584919D02*
G54D10*
D03*
X1933006Y1567456D02*
G54D10*
D03*
X1907606Y1567456D02*
G54D10*
D03*
X1882206Y1544437D02*
G54D10*
D03*
X1882206Y1516656D02*
G54D10*
D03*
X1978250Y1567456D02*
G54D10*
D03*
X2003650Y1567456D02*
G54D10*
D03*
X2028256Y1567456D02*
G54D10*
D03*
X2045719Y1569837D02*
G54D10*
D03*
X2066931Y1541897D02*
G54D10*
D03*
X2045167Y1483454D02*
G54D10*
D03*
X2075881Y1483319D02*
G54D10*
D03*
X2100487Y1483319D02*
G54D10*
D03*
X2004444Y1491256D02*
G54D10*
D03*
X2004444Y1466650D02*
G54D10*
D03*
X1552800Y1452362D02*
G54D10*
D03*
X1578200Y1452362D02*
G54D10*
D03*
X1603600Y1452362D02*
G54D10*
D03*
X1629000Y1452362D02*
G54D10*
D03*
X1664719Y1462681D02*
G54D10*
D03*
X1690119Y1462681D02*
G54D10*
D03*
X1715519Y1462681D02*
G54D10*
D03*
X1735362Y1462681D02*
G54D10*
D03*
X1740919Y1488081D02*
G54D10*
D03*
X1771081Y1497606D02*
G54D10*
D03*
X1760762Y1480938D02*
G54D10*
D03*
X1806800Y1481731D02*
G54D10*
D03*
X1847281Y1488875D02*
G54D10*
D03*
X1867125Y1488875D02*
G54D10*
D03*
X1867125Y1468238D02*
G54D10*
D03*
X1496444Y1467444D02*
G54D10*
D03*
X1481362Y1467444D02*
G54D10*
D03*
X1465488Y1467444D02*
G54D10*
D03*
X1527400Y1421406D02*
G54D10*
D03*
X1521844Y1442838D02*
G54D10*
D03*
X1502000Y1453950D02*
G54D10*
D03*
X1482156Y1442044D02*
G54D10*
D03*
X1466281Y1444425D02*
G54D10*
D03*
X1448025Y1444425D02*
G54D10*
D03*
X1436912Y1469031D02*
G54D10*
D03*
X1415481Y1467444D02*
G54D10*
D03*
X1415481Y1484112D02*
G54D10*
D03*
X1436119Y1484112D02*
G54D10*
D03*
X1528194Y1353938D02*
G54D10*
D03*
X1528194Y1370606D02*
G54D10*
D03*
X1528194Y1389656D02*
G54D10*
D03*
X1629794Y1417438D02*
G54D10*
D03*
X1629794Y1397594D02*
G54D10*
D03*
X1603600Y1392038D02*
G54D10*
D03*
X1588519Y1392038D02*
G54D10*
D03*
X1568675Y1387275D02*
G54D10*
D03*
X1598838Y1366638D02*
G54D10*
D03*
X1578994Y1372194D02*
G54D10*
D03*
X1557562Y1366638D02*
G54D10*
D03*
X1639319Y1346000D02*
G54D10*
D03*
X1644081Y1315838D02*
G54D10*
D03*
X1629794Y1290438D02*
G54D10*
D03*
X1629794Y1270594D02*
G54D10*
D03*
X1655194Y1270594D02*
G54D10*
D03*
X1730600Y1418231D02*
G54D10*
D03*
X1756000Y1426962D02*
G54D10*
D03*
X1756000Y1371400D02*
G54D10*
D03*
X1756000Y1335681D02*
G54D10*
D03*
X1756000Y1321394D02*
G54D10*
D03*
X1856806Y1392038D02*
G54D10*
D03*
X1963962Y1427756D02*
G54D10*
D03*
X1975281Y1366637D02*
G54D10*
D03*
X1425800Y1382512D02*
G54D10*
D03*
X1425800Y1402356D02*
G54D10*
D03*
X1425800Y1421406D02*
G54D10*
D03*
X1328963Y1396800D02*
G54D10*
D03*
X1328963Y1364256D02*
G54D10*
D03*
X1425800Y1344412D02*
G54D10*
D03*
X1445644Y1315838D02*
G54D10*
D03*
X1420244Y1315044D02*
G54D10*
D03*
X1395638Y1299962D02*
G54D10*
D03*
X1422625Y1249162D02*
G54D10*
D03*
X1451200Y1245194D02*
G54D10*
D03*
X1472631Y1244400D02*
G54D10*
D03*
X1467075Y1213444D02*
G54D10*
D03*
X1441675Y1214238D02*
G54D10*
D03*
X1487712Y1214238D02*
G54D10*
D03*
X1472631Y1168200D02*
G54D10*
D03*
X1502794Y1168200D02*
G54D10*
D03*
X1523431Y1194394D02*
G54D10*
D03*
X1538512Y1184075D02*
G54D10*
D03*
X1538512Y1204712D02*
G54D10*
D03*
X1553594Y1204712D02*
G54D10*
D03*
X1514700Y1155500D02*
G54D10*
D03*
X1502794Y1142800D02*
G54D10*
D03*
X1559150Y1112638D02*
G54D10*
D03*
X1578200Y1112638D02*
G54D10*
D03*
X1574231Y1133275D02*
G54D10*
D03*
X1589312Y1133275D02*
G54D10*
D03*
X1609950Y1127719D02*
G54D10*
D03*
X1629794Y1142800D02*
G54D10*
D03*
X1630587Y1163438D02*
G54D10*
D03*
X1645669Y1122956D02*
G54D10*
D03*
X1659956Y1133275D02*
G54D10*
D03*
X1676625Y1133275D02*
G54D10*
D03*
X1691706Y1123750D02*
G54D10*
D03*
X1731394Y1158675D02*
G54D10*
D03*
X1732187Y1179313D02*
G54D10*
D03*
X1752031Y1209475D02*
G54D10*
D03*
X1832200Y1199156D02*
G54D10*
D03*
X1731394Y1306312D02*
G54D10*
D03*
X1731394Y1284881D02*
G54D10*
D03*
X1732187Y1036437D02*
G54D10*
D03*
X1757588Y1062631D02*
G54D10*
D03*
X1726631Y1000719D02*
G54D10*
D03*
X1705994Y1006275D02*
G54D10*
D03*
X1665116Y1006275D02*
G54D10*
D03*
X1650431Y1006275D02*
G54D10*
D03*
X1645669Y986431D02*
G54D10*
D03*
X1630588Y1001512D02*
G54D10*
D03*
X1630587Y1016594D02*
G54D10*
D03*
X1630587Y1036437D02*
G54D10*
D03*
X1610744Y996750D02*
G54D10*
D03*
X1594869Y996750D02*
G54D10*
D03*
X1747269Y930075D02*
G54D10*
D03*
X1752825Y899912D02*
G54D10*
D03*
X1732187Y911025D02*
G54D10*
D03*
X1722662Y864194D02*
G54D10*
D03*
X1697262Y879275D02*
G54D10*
D03*
X1678212Y879275D02*
G54D10*
D03*
X1661544Y879275D02*
G54D10*
D03*
X1477394Y1117400D02*
G54D10*
D03*
X1477394Y1102319D02*
G54D10*
D03*
X1477394Y1082475D02*
G54D10*
D03*
X1513112Y1092000D02*
G54D10*
D03*
X1436912Y1092000D02*
G54D10*
D03*
X1426594Y1077712D02*
G54D10*
D03*
X1462312Y1056281D02*
G54D10*
D03*
X1498031Y1046756D02*
G54D10*
D03*
X1462312Y1031675D02*
G54D10*
D03*
X1447231Y1031675D02*
G54D10*
D03*
X1631381Y889594D02*
G54D10*
D03*
X1630587Y910231D02*
G54D10*
D03*
X1636144Y838794D02*
G54D10*
D03*
X1652812Y808631D02*
G54D10*
D03*
X1498031Y868956D02*
G54D10*
D03*
X1455169Y878481D02*
G54D10*
D03*
X1467869Y849112D02*
G54D10*
D03*
X1459138Y825300D02*
G54D10*
D03*
X1467075Y803075D02*
G54D10*
D03*
X1394844Y824506D02*
G54D10*
D03*
X1401194Y792756D02*
G54D10*
D03*
X1388494Y913406D02*
G54D10*
D03*
X1388494Y938806D02*
G54D10*
D03*
X1366269Y949919D02*
G54D10*
D03*
X1333725Y949919D02*
G54D10*
D03*
X1312294Y900706D02*
G54D10*
D03*
X1312294Y868956D02*
G54D10*
D03*
X1289275Y879275D02*
G54D10*
D03*
X1278956Y861019D02*
G54D10*
D03*
X1263875Y874512D02*
G54D10*
D03*
X1248794Y858638D02*
G54D10*
D03*
X1236888Y837206D02*
G54D10*
D03*
X1313088Y837206D02*
G54D10*
D03*
X1236094Y900706D02*
G54D10*
D03*
X1259113Y934838D02*
G54D10*
D03*
X1289275Y934838D02*
G54D10*
D03*
X1230538Y949919D02*
G54D10*
D03*
X1190056Y949125D02*
G54D10*
D03*
X1142431Y934838D02*
G54D10*
D03*
X1159100Y894356D02*
G54D10*
D03*
X1147987Y875306D02*
G54D10*
D03*
X1159894Y862606D02*
G54D10*
D03*
X1278956Y792756D02*
G54D10*
D03*
X1279750Y775294D02*
G54D10*
D03*
X1263875Y784025D02*
G54D10*
D03*
X1248794Y774500D02*
G54D10*
D03*
X1236094Y741956D02*
G54D10*
D03*
X1262288Y703856D02*
G54D10*
D03*
X1287688Y703062D02*
G54D10*
D03*
X1305150Y696713D02*
G54D10*
D03*
X1182119Y686394D02*
G54D10*
D03*
X1159894Y703856D02*
G54D10*
D03*
X1159894Y729256D02*
G54D10*
D03*
X1142431Y745925D02*
G54D10*
D03*
X1159894Y754656D02*
G54D10*
D03*
X1159894Y780056D02*
G54D10*
D03*
X1159894Y806250D02*
G54D10*
D03*
X1159894Y837206D02*
G54D10*
D03*
X1457550Y764975D02*
G54D10*
D03*
X1590106Y726875D02*
G54D10*
D03*
X1599631Y741956D02*
G54D10*
D03*
X1604394Y726875D02*
G54D10*
D03*
X1620269Y727669D02*
G54D10*
D03*
X1636144Y711794D02*
G54D10*
D03*
X1646462Y722112D02*
G54D10*
D03*
X1661544Y737194D02*
G54D10*
D03*
X1631381Y762594D02*
G54D10*
D03*
X1631381Y784025D02*
G54D10*
D03*
X1680991Y736400D02*
G54D10*
D03*
X1696469Y752275D02*
G54D10*
D03*
X1717106Y751481D02*
G54D10*
D03*
X1732187Y782438D02*
G54D10*
D03*
X1732188Y803869D02*
G54D10*
D03*
X1732187Y828475D02*
G54D10*
D03*
X1752031Y829269D02*
G54D10*
D03*
X1879825Y730050D02*
G54D10*
D03*
X1961581Y691156D02*
G54D10*
D03*
X1976663Y679250D02*
G54D10*
D03*
X1994919Y628450D02*
G54D10*
D03*
X1994919Y602256D02*
G54D10*
D03*
X2037781Y614956D02*
G54D10*
D03*
X2037781Y641150D02*
G54D10*
D03*
X2037781Y665756D02*
G54D10*
D03*
X1961581Y747512D02*
G54D10*
D03*
X1986981Y752275D02*
G54D10*
D03*
X1994125Y805456D02*
G54D10*
D03*
X1994125Y831650D02*
G54D10*
D03*
X1994125Y860225D02*
G54D10*
D03*
X2036988Y818156D02*
G54D10*
D03*
X2036988Y844350D02*
G54D10*
D03*
X2036988Y868956D02*
G54D10*
D03*
X2036988Y919756D02*
G54D10*
D03*
X2036988Y945156D02*
G54D10*
D03*
X1993331Y1031675D02*
G54D10*
D03*
X2036194Y1046756D02*
G54D10*
D03*
X1993331Y1059456D02*
G54D10*
D03*
X1993331Y1084856D02*
G54D10*
D03*
X2062388Y1072156D02*
G54D10*
D03*
X2062388Y1097556D02*
G54D10*
D03*
X2062388Y1122956D02*
G54D10*
D03*
X1992538Y1319012D02*
G54D10*
D03*
X1992538Y1289644D02*
G54D10*
D03*
X1992538Y1263450D02*
G54D10*
D03*
X1993331Y1133275D02*
G54D10*
D03*
X2102074Y1402357D02*
G54D10*
D03*
X2079850Y1402356D02*
G54D10*
D03*
X2121919Y1422994D02*
G54D10*
D03*
X2130650Y1300756D02*
G54D10*
D03*
X2132238Y1280912D02*
G54D10*
D03*
X2076675Y1275356D02*
G54D10*
D03*
X2067150Y1299962D02*
G54D10*
D03*
X2061594Y1249956D02*
G54D10*
D03*
X2061594Y1224556D02*
G54D10*
D03*
X2164781Y1226938D02*
G54D10*
D03*
X2158431Y1211856D02*
G54D10*
D03*
X2148112Y1199156D02*
G54D10*
D03*
X2137000Y1184869D02*
G54D10*
D03*
X2174306Y1168994D02*
G54D10*
D03*
X2168750Y1148356D02*
G54D10*
D03*
X2133031Y1168200D02*
G54D10*
D03*
X2127475Y1153119D02*
G54D10*
D03*
X2117950Y1143594D02*
G54D10*
D03*
X2107631Y1133275D02*
G54D10*
D03*
X2131444Y1102319D02*
G54D10*
D03*
X2175100Y849112D02*
G54D10*
D03*
X2133031Y657025D02*
G54D10*
D03*
X2133825Y538756D02*
G54D10*
D03*
X2171131Y442712D02*
G54D10*
D03*
X2094138Y468112D02*
G54D10*
D03*
X2094138Y508594D02*
G54D10*
D03*
X2083819Y493512D02*
G54D10*
D03*
X2068738Y508594D02*
G54D10*
D03*
X2068738Y483194D02*
G54D10*
D03*
X2099694Y410962D02*
G54D10*
D03*
X2129856Y387944D02*
G54D10*
D03*
X2121125Y304600D02*
G54D10*
D03*
X2050481Y305394D02*
G54D10*
D03*
X2013175Y317300D02*
G54D10*
D03*
X2006031Y245069D02*
G54D10*
D03*
X1947294Y295869D02*
G54D10*
D03*
X1945706Y316903D02*
G54D10*
D03*
X1890938Y330000D02*
G54D10*
D03*
X1881412Y346669D02*
G54D10*
D03*
X1886175Y366512D02*
G54D10*
D03*
X2027462Y410962D02*
G54D10*
D03*
X2006825Y410962D02*
G54D10*
D03*
X1964756Y410962D02*
G54D10*
D03*
X1921894Y475256D02*
G54D10*
D03*
X1977456Y544312D02*
G54D10*
D03*
X1936181Y538756D02*
G54D10*
D03*
X1886175Y529231D02*
G54D10*
D03*
X1875856Y509388D02*
G54D10*
D03*
X1855219Y530025D02*
G54D10*
D03*
X1855219Y463350D02*
G54D10*
D03*
X1825056Y437156D02*
G54D10*
D03*
X1732981Y676075D02*
G54D10*
D03*
X1732981Y702269D02*
G54D10*
D03*
X1732187Y655437D02*
G54D10*
D03*
X1758381Y604638D02*
G54D10*
D03*
X1753619Y522088D02*
G54D10*
D03*
X1732981Y529231D02*
G54D10*
D03*
X1732981Y575269D02*
G54D10*
D03*
X1651622Y559394D02*
G54D10*
D03*
X1631381Y551456D02*
G54D10*
D03*
X1631381Y529231D02*
G54D10*
D03*
X1631381Y509387D02*
G54D10*
D03*
X1631381Y656231D02*
G54D10*
D03*
X1630381Y635594D02*
G54D10*
D03*
X1595662Y625275D02*
G54D10*
D03*
X1579788Y625275D02*
G54D10*
D03*
X1575819Y605431D02*
G54D10*
D03*
X1559944Y599875D02*
G54D10*
D03*
X1555975Y630831D02*
G54D10*
D03*
X1604394Y475256D02*
G54D10*
D03*
X1734569Y453031D02*
G54D10*
D03*
X1517875Y1290438D02*
G54D10*
D03*
X1532956Y1284881D02*
G54D10*
D03*
X1989362Y1657150D02*
G54D10*
D03*
X2025875Y1666675D02*
G54D10*
D03*
X2152875Y1630163D02*
G54D10*
D03*
X2152875Y1610319D02*
G54D10*
D03*
X2160812Y1584125D02*
G54D10*
D03*
X2152081Y1554756D02*
G54D10*
D03*
X1823469Y1636910D02*
G54D48*
D03*
X1823469Y1598810D02*
G54D48*
D03*
X1823469Y1611510D02*
G54D48*
D03*
X1823469Y1624210D02*
G54D48*
D03*
X1823469Y1573410D02*
G54D48*
D03*
X1823469Y1586110D02*
G54D48*
D03*
X1863157Y1636910D02*
G54D48*
D03*
X1863157Y1598810D02*
G54D48*
D03*
X1863157Y1611510D02*
G54D48*
D03*
X1863157Y1624210D02*
G54D48*
D03*
X1863157Y1573410D02*
G54D48*
D03*
X1863157Y1586110D02*
G54D48*
D03*
X2082231Y1361875D02*
G54D10*
D03*
X1883794Y1148356D02*
G54D10*
D03*
X1828231Y995956D02*
G54D10*
D03*
X1832994Y910231D02*
G54D10*
D03*
X1916338Y76794D02*
G54D10*
D03*
X1982219Y76794D02*
G54D10*
D03*
X1732187Y955475D02*
G54D10*
D03*
X1732187Y1082475D02*
G54D10*
D03*
X1552006Y1327744D02*
G54D10*
D03*
X1543275Y1311075D02*
G54D10*
D03*
X1552800Y1290438D02*
G54D10*
D03*
X1553594Y1270594D02*
G54D10*
D03*
X1553594Y1163438D02*
G54D10*
D03*
X1553594Y1036437D02*
G54D10*
D03*
X1559150Y1011831D02*
G54D10*
D03*
X1553594Y991988D02*
G54D10*
D03*
X1554387Y909438D02*
G54D10*
D03*
X1559150Y874512D02*
G54D10*
D03*
X1578994Y874512D02*
G54D10*
D03*
X1554387Y782438D02*
G54D10*
D03*
X1554387Y655437D02*
G54D10*
D03*
X1554387Y529231D02*
G54D10*
D03*
X1441675Y453825D02*
G54D10*
D03*
X1474219Y476844D02*
G54D10*
D03*
X1450406Y478431D02*
G54D10*
D03*
X1435325Y474462D02*
G54D10*
D03*
X1406750Y459381D02*
G54D10*
D03*
X1389288Y455412D02*
G54D10*
D03*
X1398019Y478431D02*
G54D10*
D03*
X1465488Y501450D02*
G54D10*
D03*
X1439294Y491131D02*
G54D10*
D03*
X1412306Y491131D02*
G54D10*
D03*
X1552800Y1417438D02*
G54D10*
D03*
X788419Y97431D02*
G54D10*
D03*
X807469Y82350D02*
G54D10*
D03*
X828900Y82350D02*
G54D10*
D03*
X1005112Y76794D02*
G54D10*
D03*
X1005112Y118069D02*
G54D10*
D03*
X709044Y82350D02*
G54D10*
D03*
X590775Y82350D02*
G54D10*
D03*
X1374206Y455412D02*
G54D10*
D03*
X1359125Y455412D02*
G54D10*
D03*
X1344044Y455412D02*
G54D10*
D03*
X1325788Y451444D02*
G54D10*
D03*
X1309119Y454222D02*
G54D10*
D03*
X1294038Y465731D02*
G54D10*
D03*
X1281338Y473669D02*
G54D10*
D03*
X1374206Y470494D02*
G54D10*
D03*
X1392462Y514150D02*
G54D10*
D03*
X1386906Y532406D02*
G54D10*
D03*
X1428975Y533994D02*
G54D10*
D03*
X1433738Y549869D02*
G54D10*
D03*
X1447231Y559394D02*
G54D10*
D03*
X1440881Y573681D02*
G54D10*
D03*
X1467075Y573681D02*
G54D10*
D03*
X1444850Y590350D02*
G54D10*
D03*
X1458344Y599081D02*
G54D10*
D03*
X1351188Y555425D02*
G54D10*
D03*
X1310706Y553044D02*
G54D10*
D03*
X1310706Y573681D02*
G54D10*
D03*
X1310706Y588762D02*
G54D10*
D03*
X1260700Y573681D02*
G54D10*
D03*
X1264669Y591938D02*
G54D10*
D03*
X1294038Y631625D02*
G54D10*
D03*
X1273400Y637181D02*
G54D10*
D03*
X1245619Y555425D02*
G54D10*
D03*
X1182912Y564156D02*
G54D10*
D03*
X1182912Y514150D02*
G54D10*
D03*
X1112269Y514150D02*
G54D10*
D03*
X1214663Y641944D02*
G54D10*
D03*
X1180531Y634800D02*
G54D10*
D03*
X1360712Y1021356D02*
G54D10*
D03*
X1355156Y1067394D02*
G54D10*
D03*
X1335312Y1067394D02*
G54D10*
D03*
X1314675Y1067394D02*
G54D10*
D03*
X1253556Y1001512D02*
G54D10*
D03*
X1223394Y1020562D02*
G54D10*
D03*
X1223394Y1046756D02*
G54D10*
D03*
X1228156Y1067394D02*
G54D10*
D03*
X1381350Y686394D02*
G54D10*
D03*
X1116238Y1001512D02*
G54D10*
D03*
X1141638Y1001512D02*
G54D10*
D03*
X1141638Y1016594D02*
G54D10*
D03*
X1141638Y1031675D02*
G54D10*
D03*
X1161481Y1031675D02*
G54D10*
D03*
X1161481Y1047550D02*
G54D10*
D03*
X1161481Y1066600D02*
G54D10*
D03*
X1416275Y1168994D02*
G54D10*
D03*
X1395638Y1173756D02*
G54D10*
D03*
X1380556Y1173756D02*
G54D10*
D03*
X1365475Y1173756D02*
G54D10*
D03*
X1355156Y1127719D02*
G54D10*
D03*
X1340075Y1127719D02*
G54D10*
D03*
X1324994Y1127719D02*
G54D10*
D03*
X1309119Y1127719D02*
G54D10*
D03*
X1294038Y1127719D02*
G54D10*
D03*
X1293244Y1173756D02*
G54D10*
D03*
X1309119Y1182488D02*
G54D10*
D03*
X1325788Y1186456D02*
G54D10*
D03*
X1262288Y1198362D02*
G54D10*
D03*
X1258319Y1249956D02*
G54D10*
D03*
X1278956Y1249956D02*
G54D10*
D03*
X1325787Y1269006D02*
G54D10*
D03*
X1435325Y1565075D02*
G54D10*
D03*
X1435325Y1508719D02*
G54D10*
D03*
X1419450Y1600000D02*
G54D10*
D03*
X1394050Y1611112D02*
G54D10*
D03*
X1373412Y1611112D02*
G54D10*
D03*
X1394050Y1589681D02*
G54D10*
D03*
X1361506Y1565075D02*
G54D10*
D03*
X1366269Y1542056D02*
G54D10*
D03*
X1344838Y1549994D02*
G54D10*
D03*
X1328566Y1544041D02*
G54D10*
D03*
X1361506Y1518244D02*
G54D10*
D03*
X1374206Y1465062D02*
G54D10*
D03*
X1340075Y1469031D02*
G54D10*
D03*
X1323406Y1473000D02*
G54D10*
D03*
X1336900Y1443631D02*
G54D10*
D03*
X1287688Y1584919D02*
G54D10*
D03*
X1278162Y1565075D02*
G54D10*
D03*
X1262288Y1508719D02*
G54D10*
D03*
X1303562Y1477762D02*
G54D10*
D03*
X1309119Y1326156D02*
G54D10*
D03*
X1268638Y1295200D02*
G54D10*
D03*
X1263081Y1402356D02*
G54D10*
D03*
X1278162Y1420612D02*
G54D10*
D03*
X1394844Y1488081D02*
G54D10*
D03*
X1136875Y660994D02*
G54D10*
D03*
X1095600Y1117400D02*
G54D10*
D03*
X1039244Y1127719D02*
G54D10*
D03*
X1040038Y1102319D02*
G54D10*
D03*
X1054325Y1082475D02*
G54D10*
D03*
X1034481Y1066600D02*
G54D10*
D03*
X1055119Y1057075D02*
G54D10*
D03*
X1055119Y1041200D02*
G54D10*
D03*
X1055119Y1026119D02*
G54D10*
D03*
X1055119Y1005481D02*
G54D10*
D03*
X1029719Y1041994D02*
G54D10*
D03*
X1029719Y1026912D02*
G54D10*
D03*
X1029719Y1006275D02*
G54D10*
D03*
X1084488Y874513D02*
G54D10*
D03*
X1055119Y879275D02*
G54D10*
D03*
X1030512Y899912D02*
G54D10*
D03*
X1008288Y899119D02*
G54D10*
D03*
X995588Y885625D02*
G54D10*
D03*
X1089250Y785612D02*
G54D10*
D03*
X1055516Y807838D02*
G54D10*
D03*
X1095997Y742353D02*
G54D10*
D03*
X1045594Y722112D02*
G54D10*
D03*
X1076153Y696713D02*
G54D10*
D03*
X1106316Y670916D02*
G54D10*
D03*
X898750Y650675D02*
G54D10*
D03*
X903512Y676075D02*
G54D10*
D03*
X908275Y702269D02*
G54D10*
D03*
X908275Y741956D02*
G54D10*
D03*
X913038Y803075D02*
G54D10*
D03*
X918594Y828475D02*
G54D10*
D03*
X913038Y849112D02*
G54D10*
D03*
X926531Y869750D02*
G54D10*
D03*
X953312Y772119D02*
G54D10*
D03*
X973759Y990797D02*
G54D10*
D03*
X968997Y975716D02*
G54D10*
D03*
X963838Y960238D02*
G54D10*
D03*
X948359Y960238D02*
G54D10*
D03*
X938041Y945156D02*
G54D10*
D03*
X928119Y960238D02*
G54D10*
D03*
X918197Y944759D02*
G54D10*
D03*
X841203Y892372D02*
G54D10*
D03*
X753891Y884831D02*
G54D10*
D03*
X734047Y897531D02*
G54D10*
D03*
X714600Y889594D02*
G54D10*
D03*
X699122Y899516D02*
G54D10*
D03*
X715394Y823712D02*
G54D10*
D03*
X715394Y843556D02*
G54D10*
D03*
X709838Y777675D02*
G54D10*
D03*
X709838Y752275D02*
G54D10*
D03*
X664594Y741956D02*
G54D10*
D03*
X663800Y767753D02*
G54D10*
D03*
X663800Y793153D02*
G54D10*
D03*
X663800Y818553D02*
G54D10*
D03*
X663800Y843953D02*
G54D10*
D03*
X613000Y843556D02*
G54D10*
D03*
X613000Y818156D02*
G54D10*
D03*
X613000Y792756D02*
G54D10*
D03*
X557438Y777675D02*
G54D10*
D03*
X557438Y803075D02*
G54D10*
D03*
X557438Y828475D02*
G54D10*
D03*
X506638Y827681D02*
G54D10*
D03*
X486000Y827681D02*
G54D10*
D03*
X465760Y827681D02*
G54D10*
D03*
X1214266Y1191219D02*
G54D10*
D03*
X1203550Y1171375D02*
G54D10*
D03*
X1191247Y1178916D02*
G54D10*
D03*
X1178150Y1168200D02*
G54D10*
D03*
X1165450Y1178122D02*
G54D10*
D03*
X1152750Y1168994D02*
G54D10*
D03*
X1140050Y1179312D02*
G54D10*
D03*
X1128541Y1167406D02*
G54D10*
D03*
X1114650Y1176138D02*
G54D10*
D03*
X1101950Y1168597D02*
G54D10*
D03*
X1079725Y1168200D02*
G54D10*
D03*
X1039641Y1165819D02*
G54D10*
D03*
X1190850Y1291231D02*
G54D10*
D03*
X1171800Y1286072D02*
G54D10*
D03*
X1148781Y1283691D02*
G54D10*
D03*
X1134494Y1291231D02*
G54D10*
D03*
X1125366Y1278928D02*
G54D10*
D03*
X1107109Y1291231D02*
G54D10*
D03*
X1095203Y1280119D02*
G54D10*
D03*
X1082106Y1290041D02*
G54D10*
D03*
X1069406Y1280119D02*
G54D10*
D03*
X1058294Y1259481D02*
G54D10*
D03*
X1074963Y1249956D02*
G54D10*
D03*
X1059484Y1296788D02*
G54D10*
D03*
X1030512Y1302741D02*
G54D10*
D03*
X1030512Y1284881D02*
G54D10*
D03*
X1017416Y1295200D02*
G54D10*
D03*
X1004716Y1284881D02*
G54D10*
D03*
X989238Y1284881D02*
G54D10*
D03*
X974156Y1284881D02*
G54D10*
D03*
X952725Y1271784D02*
G54D10*
D03*
X999953Y1226541D02*
G54D10*
D03*
X1232522Y1623416D02*
G54D10*
D03*
X1221806Y1559519D02*
G54D10*
D03*
X1221806Y1534119D02*
G54D10*
D03*
X1191644Y1574600D02*
G54D10*
D03*
X1221806Y1507925D02*
G54D10*
D03*
X1221806Y1482525D02*
G54D10*
D03*
X1221806Y1453156D02*
G54D10*
D03*
X1248000Y1442044D02*
G54D10*
D03*
X1222600Y1426962D02*
G54D10*
D03*
X1222600Y1402356D02*
G54D10*
D03*
X1222600Y1376162D02*
G54D10*
D03*
X1217838Y1335681D02*
G54D10*
D03*
X1248000Y1310281D02*
G54D10*
D03*
X1192041Y1315441D02*
G54D10*
D03*
X1160688Y1544438D02*
G54D10*
D03*
X1165847Y1515862D02*
G54D10*
D03*
X1119016Y1551184D02*
G54D10*
D03*
X1120206Y1516259D02*
G54D10*
D03*
X1068612Y1515862D02*
G54D10*
D03*
X1043212Y1538484D02*
G54D10*
D03*
X1030116Y1551581D02*
G54D10*
D03*
X1017416Y1538087D02*
G54D10*
D03*
X1004716Y1551581D02*
G54D10*
D03*
X992412Y1538881D02*
G54D10*
D03*
X982094Y1551184D02*
G54D10*
D03*
X970188Y1541262D02*
G54D10*
D03*
X979712Y1528959D02*
G54D10*
D03*
X969791Y1516656D02*
G54D10*
D03*
X982888Y1503559D02*
G54D10*
D03*
X969791Y1490462D02*
G54D10*
D03*
X982491Y1477762D02*
G54D10*
D03*
X970188Y1465459D02*
G54D10*
D03*
X982491Y1453156D02*
G54D10*
D03*
X993206Y1437678D02*
G54D10*
D03*
X971378Y1427359D02*
G54D10*
D03*
X982491Y1414659D02*
G54D10*
D03*
X982491Y1389259D02*
G54D10*
D03*
X970584Y1401959D02*
G54D10*
D03*
X970188Y1376559D02*
G54D10*
D03*
X983284Y1364256D02*
G54D10*
D03*
X1069803Y1355922D02*
G54D10*
D03*
X1084884Y1366637D02*
G54D10*
D03*
X1048769Y1366638D02*
G54D10*
D03*
X1048769Y1473000D02*
G54D10*
D03*
X1120206Y1427756D02*
G54D10*
D03*
X1166244Y1361081D02*
G54D10*
D03*
X1166244Y1401562D02*
G54D10*
D03*
X1161481Y1452362D02*
G54D10*
D03*
X816200Y1087238D02*
G54D10*
D03*
X816200Y1109462D02*
G54D10*
D03*
X842394Y1026119D02*
G54D10*
D03*
X841600Y1188044D02*
G54D10*
D03*
X841600Y1203125D02*
G54D10*
D03*
X846362Y1234875D02*
G54D10*
D03*
X795562Y1205506D02*
G54D10*
D03*
X746350Y1186456D02*
G54D10*
D03*
X755081Y1234081D02*
G54D10*
D03*
X755081Y1249956D02*
G54D10*
D03*
X779688Y1244400D02*
G54D10*
D03*
X779688Y1259481D02*
G54D10*
D03*
X779688Y1275356D02*
G54D10*
D03*
X794769Y1280119D02*
G54D10*
D03*
X795562Y1306312D02*
G54D10*
D03*
X840806Y1278531D02*
G54D10*
D03*
X830488Y1326156D02*
G54D10*
D03*
X845966Y1335284D02*
G54D10*
D03*
X835044Y1351763D02*
G54D10*
D03*
X886844Y1389656D02*
G54D10*
D03*
X881288Y1407119D02*
G54D10*
D03*
X860650Y1407119D02*
G54D10*
D03*
X860650Y1427756D02*
G54D10*
D03*
X917006Y1473000D02*
G54D10*
D03*
X901131Y1482525D02*
G54D10*
D03*
X901131Y1498400D02*
G54D10*
D03*
X901131Y1513481D02*
G54D10*
D03*
X901131Y1528562D02*
G54D10*
D03*
X890019Y1544438D02*
G54D10*
D03*
X890019Y1559519D02*
G54D10*
D03*
X890019Y1580156D02*
G54D10*
D03*
X875731Y1600000D02*
G54D10*
D03*
X855094Y1605556D02*
G54D10*
D03*
X854300Y1625400D02*
G54D10*
D03*
X854300Y1640481D02*
G54D10*
D03*
X834456Y1584919D02*
G54D10*
D03*
X810644Y1543644D02*
G54D10*
D03*
X769369Y1566662D02*
G54D10*
D03*
X949153Y1567456D02*
G54D10*
D03*
X942009Y1579759D02*
G54D10*
D03*
X1049959Y949919D02*
G54D10*
D03*
X937644Y1320600D02*
G54D10*
D03*
X705869Y219669D02*
G54D10*
D03*
X757462Y219669D02*
G54D10*
D03*
X782069Y224431D02*
G54D10*
D03*
X805088Y222844D02*
G54D10*
D03*
X790006Y245069D02*
G54D10*
D03*
X770559Y254594D02*
G54D10*
D03*
X782069Y265309D02*
G54D10*
D03*
X763019Y275231D02*
G54D10*
D03*
X782069Y285550D02*
G54D10*
D03*
X652291Y310950D02*
G54D10*
D03*
X763812Y380403D02*
G54D10*
D03*
X705472Y341509D02*
G54D10*
D03*
X695153Y402231D02*
G54D10*
D03*
X715791Y424853D02*
G54D10*
D03*
X751112Y462953D02*
G54D10*
D03*
X461790Y417709D02*
G54D10*
D03*
X436390Y432791D02*
G54D10*
D03*
X548309Y462556D02*
G54D10*
D03*
X344712Y462953D02*
G54D10*
D03*
X491159Y868956D02*
G54D10*
D03*
X471316Y868956D02*
G54D10*
D03*
X409800Y843556D02*
G54D10*
D03*
X409800Y817759D02*
G54D10*
D03*
X419722Y889197D02*
G54D10*
D03*
X399878Y899119D02*
G54D10*
D03*
X378844Y909834D02*
G54D10*
D03*
X528069Y198634D02*
G54D10*
D03*
G36*
X1098775Y307775D02*
X1047181Y307775D01*
X1038450Y301425D01*
X1032100Y292694D01*
X1032100Y274438D01*
X1038450Y266500D01*
X1047181Y259356D01*
X1098775Y259356D01*
X1098775Y307775D01*
G37*
G54D49*
X1098775Y307775D02*
X1047181Y307775D01*
X1038450Y301425D01*
X1032100Y292694D01*
X1032100Y274438D01*
X1038450Y266500D01*
X1047181Y259356D01*
X1098775Y259356D01*
X1098775Y307775D01*
G36*
X1098775Y228797D02*
X1047181Y228797D01*
X1038450Y222447D01*
X1032100Y213716D01*
X1032100Y195460D01*
X1038450Y187522D01*
X1047181Y180378D01*
X1098775Y180378D01*
X1098775Y228797D01*
G37*
G54D49*
X1098775Y228797D02*
X1047181Y228797D01*
X1038450Y222447D01*
X1032100Y213716D01*
X1032100Y195460D01*
X1038450Y187522D01*
X1047181Y180378D01*
X1098775Y180378D01*
X1098775Y228797D01*
G36*
X1098775Y149025D02*
X1047181Y149025D01*
X1038450Y142675D01*
X1032100Y133944D01*
X1032100Y115688D01*
X1038450Y107750D01*
X1047181Y100606D01*
X1098775Y100606D01*
X1098775Y149025D01*
G37*
G54D49*
X1098775Y149025D02*
X1047181Y149025D01*
X1038450Y142675D01*
X1032100Y133944D01*
X1032100Y115688D01*
X1038450Y107750D01*
X1047181Y100606D01*
X1098775Y100606D01*
X1098775Y149025D01*
G36*
X1098775Y70047D02*
X1047181Y70047D01*
X1038450Y63697D01*
X1032100Y54966D01*
X1032100Y36710D01*
X1038450Y28772D01*
X1047181Y21628D01*
X1098775Y21628D01*
X1098775Y70047D01*
G37*
G54D49*
X1098775Y70047D02*
X1047181Y70047D01*
X1038450Y63697D01*
X1032100Y54966D01*
X1032100Y36710D01*
X1038450Y28772D01*
X1047181Y21628D01*
X1098775Y21628D01*
X1098775Y70047D01*
G36*
X877319Y16469D02*
X877319Y63300D01*
X872556Y68062D01*
X863825Y68062D01*
X859062Y63300D01*
X859062Y16469D01*
X877319Y16469D01*
G37*
G54D49*
X877319Y16469D02*
X877319Y63300D01*
X872556Y68062D01*
X863825Y68062D01*
X859062Y63300D01*
X859062Y16469D01*
X877319Y16469D01*
G36*
X837631Y16469D02*
X837631Y63300D01*
X832869Y68062D01*
X824138Y68062D01*
X819375Y63300D01*
X819375Y16469D01*
X837631Y16469D01*
G37*
G54D49*
X837631Y16469D02*
X837631Y63300D01*
X832869Y68062D01*
X824138Y68062D01*
X819375Y63300D01*
X819375Y16469D01*
X837631Y16469D01*
G36*
X797944Y16469D02*
X797944Y63300D01*
X793181Y68062D01*
X784450Y68062D01*
X779688Y63300D01*
X779688Y16469D01*
X797944Y16469D01*
G37*
G54D49*
X797944Y16469D02*
X797944Y63300D01*
X793181Y68062D01*
X784450Y68062D01*
X779688Y63300D01*
X779688Y16469D01*
X797944Y16469D01*
G36*
X758256Y16469D02*
X758256Y63300D01*
X753494Y68062D01*
X744762Y68062D01*
X740000Y63300D01*
X740000Y16469D01*
X758256Y16469D01*
G37*
G54D49*
X758256Y16469D02*
X758256Y63300D01*
X753494Y68062D01*
X744762Y68062D01*
X740000Y63300D01*
X740000Y16469D01*
X758256Y16469D01*
G36*
X718569Y16469D02*
X718569Y63300D01*
X713806Y68062D01*
X705075Y68062D01*
X700312Y63300D01*
X700312Y16469D01*
X718569Y16469D01*
G37*
G54D49*
X718569Y16469D02*
X718569Y63300D01*
X713806Y68062D01*
X705075Y68062D01*
X700312Y63300D01*
X700312Y16469D01*
X718569Y16469D01*
G36*
X678881Y16469D02*
X678881Y63300D01*
X674119Y68062D01*
X665388Y68062D01*
X660625Y63300D01*
X660625Y16469D01*
X678881Y16469D01*
G37*
G54D49*
X678881Y16469D02*
X678881Y63300D01*
X674119Y68062D01*
X665388Y68062D01*
X660625Y63300D01*
X660625Y16469D01*
X678881Y16469D01*
G36*
X639194Y16469D02*
X639194Y63300D01*
X634431Y68062D01*
X625700Y68062D01*
X620938Y63300D01*
X620938Y16469D01*
X639194Y16469D01*
G37*
G54D49*
X639194Y16469D02*
X639194Y63300D01*
X634431Y68062D01*
X625700Y68062D01*
X620938Y63300D01*
X620938Y16469D01*
X639194Y16469D01*
G36*
X599506Y16469D02*
X599506Y63300D01*
X594744Y68062D01*
X586012Y68062D01*
X581250Y63300D01*
X581250Y16469D01*
X599506Y16469D01*
G37*
G54D49*
X599506Y16469D02*
X599506Y63300D01*
X594744Y68062D01*
X586012Y68062D01*
X581250Y63300D01*
X581250Y16469D01*
X599506Y16469D01*
G36*
X559819Y16469D02*
X559819Y63300D01*
X555056Y68062D01*
X546325Y68062D01*
X541562Y63300D01*
X541562Y16469D01*
X559819Y16469D01*
G37*
G54D49*
X559819Y16469D02*
X559819Y63300D01*
X555056Y68062D01*
X546325Y68062D01*
X541562Y63300D01*
X541562Y16469D01*
X559819Y16469D01*
G36*
X520131Y16469D02*
X520131Y63300D01*
X515369Y68062D01*
X506638Y68062D01*
X501875Y63300D01*
X501875Y16469D01*
X520131Y16469D01*
G37*
G54D49*
X520131Y16469D02*
X520131Y63300D01*
X515369Y68062D01*
X506638Y68062D01*
X501875Y63300D01*
X501875Y16469D01*
X520131Y16469D01*
G36*
X480444Y16469D02*
X480444Y63300D01*
X475681Y68062D01*
X466950Y68062D01*
X462188Y63300D01*
X462188Y16469D01*
X480444Y16469D01*
G37*
G54D49*
X480444Y16469D02*
X480444Y63300D01*
X475681Y68062D01*
X466950Y68062D01*
X462188Y63300D01*
X462188Y16469D01*
X480444Y16469D01*
G36*
X440756Y16469D02*
X440756Y63300D01*
X435994Y68062D01*
X427262Y68062D01*
X422500Y63300D01*
X422500Y16469D01*
X440756Y16469D01*
G37*
G54D49*
X440756Y16469D02*
X440756Y63300D01*
X435994Y68062D01*
X427262Y68062D01*
X422500Y63300D01*
X422500Y16469D01*
X440756Y16469D01*
G36*
X401069Y16469D02*
X401069Y63300D01*
X396306Y68062D01*
X387575Y68062D01*
X382812Y63300D01*
X382812Y16469D01*
X401069Y16469D01*
G37*
G54D49*
X401069Y16469D02*
X401069Y63300D01*
X396306Y68062D01*
X387575Y68062D01*
X382812Y63300D01*
X382812Y16469D01*
X401069Y16469D01*
G36*
X361381Y16469D02*
X361381Y63300D01*
X356619Y68062D01*
X347888Y68062D01*
X343125Y63300D01*
X343125Y16469D01*
X361381Y16469D01*
G37*
G54D49*
X361381Y16469D02*
X361381Y63300D01*
X356619Y68062D01*
X347888Y68062D01*
X343125Y63300D01*
X343125Y16469D01*
X361381Y16469D01*
G36*
X321694Y16469D02*
X321694Y63300D01*
X316931Y68062D01*
X308200Y68062D01*
X303438Y63300D01*
X303438Y16469D01*
X321694Y16469D01*
G37*
G54D49*
X321694Y16469D02*
X321694Y63300D01*
X316931Y68062D01*
X308200Y68062D01*
X303438Y63300D01*
X303438Y16469D01*
X321694Y16469D01*
X750319Y975319D02*
G54D10*
D03*
X729681Y975319D02*
G54D10*
D03*
X683644Y975319D02*
G54D10*
D03*
X759844Y1021356D02*
G54D10*
D03*
X767781Y1039612D02*
G54D10*
D03*
X749525Y1051519D02*
G54D10*
D03*
X678881Y1059456D02*
G54D10*
D03*
X678881Y1084062D02*
G54D10*
D03*
X678881Y1109462D02*
G54D10*
D03*
X744762Y1095175D02*
G54D10*
D03*
X732062Y1371400D02*
G54D10*
D03*
X757462Y1371400D02*
G54D10*
D03*
X728888Y1320600D02*
G54D10*
D03*
X672531Y1290438D02*
G54D10*
D03*
X637606Y1280119D02*
G54D10*
D03*
X652688Y1311075D02*
G54D10*
D03*
X632050Y1311075D02*
G54D10*
D03*
X693963Y1234081D02*
G54D10*
D03*
X663006Y1229319D02*
G54D10*
D03*
X678088Y1184075D02*
G54D10*
D03*
X632844Y1234081D02*
G54D10*
D03*
X814612Y1384100D02*
G54D50*
D03*
X814612Y1503163D02*
G54D50*
D03*
X770162Y1415850D02*
G54D10*
D03*
X774131Y1432519D02*
G54D10*
D03*
X703488Y1350762D02*
G54D10*
D03*
X693169Y1391244D02*
G54D10*
D03*
X692375Y1442044D02*
G54D10*
D03*
X704281Y1454744D02*
G54D10*
D03*
X692375Y1472206D02*
G54D10*
D03*
X697138Y1569044D02*
G54D10*
D03*
X767781Y1640481D02*
G54D10*
D03*
X649512Y1361081D02*
G54D10*
D03*
X626494Y1334888D02*
G54D10*
D03*
X601888Y1334888D02*
G54D10*
D03*
X576488Y1325362D02*
G54D10*
D03*
X546325Y1234875D02*
G54D10*
D03*
X536006Y1249162D02*
G54D10*
D03*
X546325Y1265038D02*
G54D10*
D03*
X479650Y1198363D02*
G54D10*
D03*
X421706Y1198363D02*
G54D10*
D03*
X383606Y1193600D02*
G54D10*
D03*
X358206Y1193600D02*
G54D10*
D03*
X332012Y1193600D02*
G54D10*
D03*
X311375Y1193600D02*
G54D10*
D03*
X293912Y1193600D02*
G54D10*
D03*
X286769Y1178519D02*
G54D10*
D03*
X332806Y1163438D02*
G54D10*
D03*
X374081Y1153119D02*
G54D10*
D03*
X404244Y1153119D02*
G54D10*
D03*
X373288Y1132481D02*
G54D10*
D03*
X403450Y1132481D02*
G54D10*
D03*
X374081Y1112638D02*
G54D10*
D03*
X403450Y1112638D02*
G54D10*
D03*
X373288Y1092000D02*
G54D10*
D03*
X404244Y1092000D02*
G54D10*
D03*
X373288Y1072156D02*
G54D10*
D03*
X404244Y1072156D02*
G54D10*
D03*
X572519Y1072950D02*
G54D10*
D03*
X501081Y1072156D02*
G54D10*
D03*
X373288Y1052312D02*
G54D10*
D03*
X404244Y1052312D02*
G54D10*
D03*
X429644Y1046756D02*
G54D10*
D03*
X404244Y1031675D02*
G54D10*
D03*
X429644Y1021356D02*
G54D10*
D03*
X460600Y1026119D02*
G54D10*
D03*
X465362Y1046756D02*
G54D10*
D03*
X481238Y1021356D02*
G54D10*
D03*
X460600Y1006275D02*
G54D10*
D03*
X480444Y1000719D02*
G54D10*
D03*
X501875Y995956D02*
G54D10*
D03*
X239938Y1052709D02*
G54D10*
D03*
X312963Y1046756D02*
G54D10*
D03*
X344919Y970556D02*
G54D10*
D03*
X414562Y970556D02*
G54D10*
D03*
X461394Y970556D02*
G54D10*
D03*
X479650Y970556D02*
G54D10*
D03*
X501081Y975319D02*
G54D10*
D03*
X526481Y965794D02*
G54D10*
D03*
X551881Y954681D02*
G54D10*
D03*
X266925Y873719D02*
G54D10*
D03*
X262163Y965000D02*
G54D10*
D03*
X206600Y426838D02*
G54D10*
D03*
X190725Y453825D02*
G54D10*
D03*
X176438Y463350D02*
G54D10*
D03*
X221681Y396675D02*
G54D10*
D03*
X176438Y427631D02*
G54D10*
D03*
X219697Y335953D02*
G54D10*
D03*
X296294Y367306D02*
G54D10*
D03*
X380431Y323650D02*
G54D10*
D03*
X512987Y323650D02*
G54D10*
D03*
X538388Y386356D02*
G54D10*
D03*
X409800Y792756D02*
G54D10*
D03*
X282800Y691156D02*
G54D10*
D03*
X278038Y640356D02*
G54D10*
D03*
X278038Y614956D02*
G54D10*
D03*
X278038Y589556D02*
G54D10*
D03*
X268512Y564156D02*
G54D10*
D03*
X288356Y549075D02*
G54D10*
D03*
X273275Y539550D02*
G54D10*
D03*
X258194Y523675D02*
G54D10*
D03*
X257797Y498275D02*
G54D10*
D03*
X370113Y203794D02*
G54D10*
D03*
X443535Y225622D02*
G54D10*
D03*
X524894Y225622D02*
G54D10*
D03*
X293912Y203794D02*
G54D10*
D03*
X263353Y183950D02*
G54D10*
D03*
X283594Y143469D02*
G54D10*
D03*
X207394Y203794D02*
G54D10*
D03*
X263353Y91875D02*
G54D10*
D03*
X78806Y147834D02*
G54D10*
D03*
X78806Y177600D02*
G54D10*
D03*
X946772Y310553D02*
G54D10*
D03*
X415356Y1239638D02*
G54D10*
D03*
X409006Y1265037D02*
G54D10*
D03*
X337569Y1264244D02*
G54D10*
D03*
X510606Y1274562D02*
G54D10*
D03*
X510606Y1299962D02*
G54D10*
D03*
X536006Y1299962D02*
G54D10*
D03*
X180010Y1315441D02*
G54D10*
D03*
X138734Y1397197D02*
G54D10*
D03*
X83172Y1432916D02*
G54D10*
D03*
X116112Y1427359D02*
G54D10*
D03*
X139131Y1427756D02*
G54D10*
D03*
X192312Y1401562D02*
G54D10*
D03*
X217712Y1465062D02*
G54D10*
D03*
X243112Y1465062D02*
G54D10*
D03*
X260575Y1477762D02*
G54D10*
D03*
X309788Y1528562D02*
G54D10*
D03*
X255019Y1541262D02*
G54D10*
D03*
X229619Y1541262D02*
G54D10*
D03*
X204219Y1556344D02*
G54D10*
D03*
X255019Y1566662D02*
G54D10*
D03*
X255019Y1592062D02*
G54D10*
D03*
X229619Y1592062D02*
G54D10*
D03*
X128019Y1580156D02*
G54D10*
D03*
X102619Y1589681D02*
G54D10*
D03*
X83569Y1533325D02*
G54D10*
D03*
X128812Y1492844D02*
G54D10*
D03*
X151038Y1635719D02*
G54D10*
D03*
X128019Y1642862D02*
G54D10*
D03*
X128019Y1668262D02*
G54D10*
D03*
X293119Y1630162D02*
G54D10*
D03*
X331219Y1592062D02*
G54D10*
D03*
X351856Y1602381D02*
G54D10*
D03*
X332012Y1553962D02*
G54D10*
D03*
X360588Y1539381D02*
G54D10*
D03*
X433612Y1515862D02*
G54D10*
D03*
X433612Y1541262D02*
G54D10*
D03*
X413769Y1488081D02*
G54D10*
D03*
X420912Y1465062D02*
G54D10*
D03*
X446312Y1465062D02*
G54D10*
D03*
X471712Y1465062D02*
G54D10*
D03*
X447106Y1591269D02*
G54D10*
D03*
X428056Y1645244D02*
G54D10*
D03*
X463775Y1645244D02*
G54D10*
D03*
X419325Y1620638D02*
G54D10*
D03*
X524894Y1605556D02*
G54D10*
D03*
X555850Y1538881D02*
G54D10*
D03*
X615381Y1610319D02*
G54D10*
D03*
X597919Y1617462D02*
G54D10*
D03*
X597919Y1541262D02*
G54D10*
D03*
X597919Y1515862D02*
G54D10*
D03*
X605856Y1483319D02*
G54D10*
D03*
X610619Y1453156D02*
G54D10*
D03*
X611412Y1426962D02*
G54D10*
D03*
X598712Y1401562D02*
G54D10*
D03*
X598712Y1376162D02*
G54D10*
D03*
X525688Y1411881D02*
G54D10*
D03*
X505844Y1389259D02*
G54D10*
D03*
X490366Y1366241D02*
G54D10*
D03*
X434010Y1383703D02*
G54D10*
D03*
X434010Y1401959D02*
G54D10*
D03*
X409006Y1401959D02*
G54D10*
D03*
X382812Y1401562D02*
G54D10*
D03*
X307406Y1437281D02*
G54D10*
D03*
X307406Y1402356D02*
G54D10*
D03*
X204219Y1655562D02*
G54D10*
D03*
X509812Y1507925D02*
G54D10*
D03*
X955106Y463350D02*
G54D10*
D03*
X1483156Y1567956D02*
G54D10*
D03*
X1571262Y1567956D02*
G54D10*
D03*
X1571262Y1514775D02*
G54D10*
D03*
X1482656Y1523006D02*
G54D10*
D03*
X1610156Y1567956D02*
G54D10*
D03*
X1610156Y1514775D02*
G54D10*
D03*
X251447Y1223763D02*
G54D10*
D03*
G54D51*
X137781Y1724935D02*
X135781Y1724935D01*
X133781Y1725769D01*
X132781Y1727435D01*
X132781Y1729102D01*
X133781Y1730769D01*
X135781Y1731602D01*
X137781Y1731602D01*
X139781Y1730769D01*
X140781Y1729102D01*
X140781Y1727435D01*
X139781Y1725769D01*
X137781Y1724935D01*
X139781Y1724102D01*
X140781Y1722435D01*
X140781Y1720769D01*
X139781Y1719102D01*
X137781Y1718269D01*
X135781Y1718269D01*
X133781Y1719102D01*
X132781Y1720769D01*
X132781Y1722435D01*
X133781Y1724102D01*
X135781Y1724935D01*
G54D51*
X153448Y1718269D02*
X145448Y1718269D01*
X145448Y1719102D01*
X146448Y1720769D01*
X152448Y1725769D01*
X153448Y1727435D01*
X153448Y1729102D01*
X152448Y1730769D01*
X150448Y1731602D01*
X148448Y1731602D01*
X146448Y1730769D01*
X145448Y1729102D01*
G54D51*
X166115Y1729102D02*
X166115Y1720769D01*
X165115Y1719102D01*
X163115Y1718269D01*
X161115Y1718269D01*
X159115Y1719102D01*
X158115Y1720769D01*
X158115Y1729102D01*
X159115Y1730769D01*
X161115Y1731602D01*
X163115Y1731602D01*
X165115Y1730769D01*
X166115Y1729102D01*
G54D51*
X170782Y1724102D02*
X178782Y1724102D01*
G54D51*
X191449Y1729102D02*
X191449Y1720769D01*
X190449Y1719102D01*
X188449Y1718269D01*
X186449Y1718269D01*
X184449Y1719102D01*
X183449Y1720769D01*
X183449Y1729102D01*
X184449Y1730769D01*
X186449Y1731602D01*
X188449Y1731602D01*
X190449Y1730769D01*
X191449Y1729102D01*
G54D51*
X204116Y1718269D02*
X196116Y1718269D01*
X196116Y1719102D01*
X197116Y1720769D01*
X203116Y1725769D01*
X204116Y1727435D01*
X204116Y1729102D01*
X203116Y1730769D01*
X201116Y1731602D01*
X199116Y1731602D01*
X197116Y1730769D01*
X196116Y1729102D01*
G54D51*
X208783Y1720769D02*
X209783Y1719102D01*
X211783Y1718269D01*
X213783Y1718269D01*
X215783Y1719102D01*
X216783Y1720769D01*
X216783Y1724935D01*
X216783Y1725769D01*
X213783Y1724102D01*
X211783Y1724102D01*
X209783Y1724935D01*
X208783Y1726602D01*
X208783Y1729102D01*
X209783Y1730769D01*
X211783Y1731602D01*
X213783Y1731602D01*
X215783Y1730769D01*
X216783Y1729102D01*
X216783Y1724935D01*
G54D51*
X221450Y1720769D02*
X222450Y1719102D01*
X224450Y1718269D01*
X226450Y1718269D01*
X228450Y1719102D01*
X229450Y1720769D01*
X229450Y1724935D01*
X229450Y1725769D01*
X226450Y1724102D01*
X224450Y1724102D01*
X222450Y1724935D01*
X221450Y1726602D01*
X221450Y1729102D01*
X222450Y1730769D01*
X224450Y1731602D01*
X226450Y1731602D01*
X228450Y1730769D01*
X229450Y1729102D01*
X229450Y1724935D01*
G54D51*
X234117Y1724102D02*
X242117Y1724102D01*
G54D51*
X246784Y1718269D02*
X246784Y1731602D01*
X251784Y1731602D01*
X253784Y1730769D01*
X254784Y1729102D01*
X254784Y1727435D01*
X253784Y1725769D01*
X251784Y1724935D01*
X253784Y1724102D01*
X254784Y1722435D01*
X254784Y1720769D01*
X253784Y1719102D01*
X251784Y1718269D01*
X246784Y1718269D01*
G54D51*
X246784Y1724935D02*
X251784Y1724935D01*
G54D51*
X131988Y1697631D02*
X131988Y1710965D01*
X136988Y1702631D01*
X141988Y1710965D01*
X141988Y1697631D01*
G54D51*
X146654Y1697631D02*
X151654Y1710965D01*
X156654Y1697631D01*
G54D51*
X148654Y1702631D02*
X154654Y1702631D01*
G54D51*
X169322Y1700131D02*
X168322Y1698465D01*
X166322Y1697631D01*
X164322Y1697631D01*
X162322Y1698465D01*
X161322Y1700131D01*
X161322Y1708465D01*
X162322Y1710131D01*
X164322Y1710965D01*
X166322Y1710965D01*
X168322Y1710131D01*
X169322Y1708465D01*
G54D51*
X173988Y1697631D02*
X173988Y1710965D01*
G54D51*
X178656Y1697631D02*
X178656Y1710965D01*
X186656Y1697631D01*
X186656Y1710965D01*
G54D51*
X195322Y1697631D02*
X195322Y1710965D01*
G54D51*
X191322Y1710965D02*
X199322Y1710965D01*
G54D51*
X211990Y1708465D02*
X211990Y1700131D01*
X210990Y1698465D01*
X208990Y1697631D01*
X206990Y1697631D01*
X204990Y1698465D01*
X203990Y1700131D01*
X203990Y1708465D01*
X204990Y1710131D01*
X206990Y1710965D01*
X208990Y1710965D01*
X210990Y1710131D01*
X211990Y1708465D01*
G54D51*
X216656Y1700131D02*
X217656Y1698465D01*
X219656Y1697631D01*
X221656Y1697631D01*
X223656Y1698465D01*
X224656Y1700131D01*
X224656Y1701798D01*
X223656Y1703465D01*
X221656Y1704298D01*
X219656Y1704298D01*
X217656Y1705131D01*
X216656Y1706798D01*
X216656Y1708465D01*
X217656Y1710131D01*
X219656Y1710965D01*
X221656Y1710965D01*
X223656Y1710131D01*
X224656Y1708465D01*
G54D51*
X229324Y1697631D02*
X229324Y1710965D01*
G54D51*
X237324Y1697631D02*
X237324Y1710965D01*
G54D51*
X229324Y1704298D02*
X237324Y1704298D01*
G54D51*
X246858Y1710965D02*
X246858Y1697631D01*
X253858Y1697631D01*
G54D51*
X266524Y1700131D02*
X265524Y1698465D01*
X263524Y1697631D01*
X261524Y1697631D01*
X259524Y1698465D01*
X258524Y1700131D01*
X258524Y1708465D01*
X259524Y1710131D01*
X261524Y1710965D01*
X263524Y1710965D01*
X265524Y1710131D01*
X266524Y1708465D01*
X915617Y310950D02*
G54D52*
D03*
X622326Y310950D02*
G54D52*
D03*
G54D53*
X2216264Y1314284D02*
X2206264Y1314284D01*
G54D53*
X2208042Y1314284D02*
X2206264Y1316950D01*
X2206931Y1319617D01*
X2208486Y1320950D01*
X2216264Y1320950D01*
G54D53*
X2208042Y1320950D02*
X2206264Y1323617D01*
X2206931Y1326284D01*
X2208486Y1327617D01*
X2216264Y1327617D01*
G54D53*
X2207375Y1333838D02*
X2206264Y1336505D01*
X2206264Y1339705D01*
X2208486Y1341838D01*
X2216264Y1341838D01*
G54D53*
X2212931Y1341838D02*
X2210708Y1340505D01*
X2210264Y1337838D01*
X2210708Y1335172D01*
X2212931Y1333838D01*
X2215153Y1334372D01*
X2216264Y1336505D01*
X2216264Y1337838D01*
X2216264Y1338372D01*
X2215153Y1340505D01*
X2212931Y1341838D01*
G54D53*
X2206264Y1348060D02*
X2216264Y1358727D01*
G54D53*
X2216264Y1348060D02*
X2206264Y1358727D01*
G54D53*
X2205153Y1364950D02*
X2198486Y1371616D01*
X2216264Y1371616D01*
G54D53*
X2206264Y1377838D02*
X2206264Y1385838D01*
X2216264Y1377838D01*
X2216264Y1385838D01*
G54D53*
X2206264Y1392060D02*
X2206264Y1400060D01*
X2216264Y1392060D01*
X2216264Y1400060D01*
G54D53*
X2206264Y1406282D02*
X2206264Y1414282D01*
X2216264Y1406282D01*
X2216264Y1414282D01*
G54D53*
X2201820Y1437660D02*
X2212931Y1437660D01*
X2215153Y1436327D01*
X2216264Y1433660D01*
X2216264Y1430994D01*
X2215153Y1428327D01*
X2212931Y1426994D01*
X2201820Y1426994D01*
X2199597Y1428327D01*
X2198486Y1430994D01*
X2198486Y1433660D01*
X2199597Y1436327D01*
X2201820Y1437660D01*
G54D53*
X2201820Y1454549D02*
X2199597Y1453216D01*
X2198486Y1450549D01*
X2198486Y1447882D01*
X2199597Y1445216D01*
X2201820Y1443882D01*
X2207375Y1443882D01*
X2208486Y1443882D01*
X2206264Y1447882D01*
X2206264Y1450549D01*
X2207375Y1453216D01*
X2209597Y1454549D01*
X2212931Y1454549D01*
X2215153Y1453216D01*
X2216264Y1450549D01*
X2216264Y1447882D01*
X2215153Y1445216D01*
X2212931Y1443882D01*
X2207375Y1443882D01*
G54D53*
X2208486Y1460772D02*
X2208486Y1471438D01*
G54D53*
X2201820Y1488327D02*
X2212931Y1488327D01*
X2215153Y1486994D01*
X2216264Y1484327D01*
X2216264Y1481660D01*
X2215153Y1478994D01*
X2212931Y1477660D01*
X2201820Y1477660D01*
X2199597Y1478994D01*
X2198486Y1481660D01*
X2198486Y1484327D01*
X2199597Y1486994D01*
X2201820Y1488327D01*
G54D53*
X2216264Y1505216D02*
X2216264Y1494550D01*
X2215153Y1494550D01*
X2212931Y1495883D01*
X2206264Y1503883D01*
X2204042Y1505216D01*
X2201820Y1505216D01*
X2199597Y1503883D01*
X2198486Y1501216D01*
X2198486Y1498550D01*
X2199597Y1495883D01*
X2201820Y1494550D01*
G54D53*
X2208486Y1511438D02*
X2208486Y1522105D01*
G54D53*
X2216264Y1538994D02*
X2216264Y1528328D01*
X2215153Y1528328D01*
X2212931Y1529661D01*
X2206264Y1537661D01*
X2204042Y1538994D01*
X2201820Y1538994D01*
X2199597Y1537661D01*
X2198486Y1534994D01*
X2198486Y1532328D01*
X2199597Y1529661D01*
X2201820Y1528328D01*
G54D53*
X2216264Y1555883D02*
X2216264Y1545216D01*
X2215153Y1545216D01*
X2212931Y1546550D01*
X2206264Y1554550D01*
X2204042Y1555883D01*
X2201820Y1555883D01*
X2199597Y1554550D01*
X2198486Y1551883D01*
X2198486Y1549216D01*
X2199597Y1546550D01*
X2201820Y1545216D01*
G54D51*
X308769Y1720850D02*
X308769Y1728350D01*
G54D51*
X308769Y1727017D02*
X310769Y1728350D01*
X312769Y1727850D01*
X313769Y1726683D01*
X313769Y1720850D01*
G54D51*
X313769Y1727017D02*
X315769Y1728350D01*
X317769Y1727850D01*
X318769Y1726683D01*
X318769Y1720850D01*
G54D51*
X323436Y1727517D02*
X325436Y1728350D01*
X327836Y1728350D01*
X329436Y1726683D01*
X329436Y1720850D01*
G54D51*
X329436Y1723350D02*
X328436Y1725017D01*
X326436Y1725350D01*
X324436Y1725017D01*
X323436Y1723350D01*
X323836Y1721683D01*
X325436Y1720850D01*
X326436Y1720850D01*
X326836Y1720850D01*
X328436Y1721683D01*
X329436Y1723350D01*
G54D51*
X334103Y1728350D02*
X342103Y1720850D01*
G54D51*
X334103Y1720850D02*
X342103Y1728350D01*
G54D51*
X346770Y1729183D02*
X351770Y1734183D01*
X351770Y1720850D01*
G54D51*
X356437Y1728350D02*
X362437Y1728350D01*
X356437Y1720850D01*
X362437Y1720850D01*
G54D51*
X367104Y1728350D02*
X373104Y1728350D01*
X367104Y1720850D01*
X373104Y1720850D01*
G54D51*
X377771Y1728350D02*
X383771Y1728350D01*
X377771Y1720850D01*
X383771Y1720850D01*
G54D51*
X312403Y1709458D02*
X312403Y1701125D01*
X311403Y1699458D01*
X309403Y1698625D01*
X307403Y1698625D01*
X305403Y1699458D01*
X304403Y1701125D01*
X304403Y1709458D01*
X305403Y1711125D01*
X307403Y1711958D01*
X309403Y1711958D01*
X311403Y1711125D01*
X312403Y1709458D01*
G54D51*
X325070Y1709458D02*
X324070Y1711125D01*
X322070Y1711958D01*
X320070Y1711958D01*
X318070Y1711125D01*
X317070Y1709458D01*
X317070Y1705292D01*
X317070Y1704458D01*
X320070Y1706125D01*
X322070Y1706125D01*
X324070Y1705292D01*
X325070Y1703625D01*
X325070Y1701125D01*
X324070Y1699458D01*
X322070Y1698625D01*
X320070Y1698625D01*
X318070Y1699458D01*
X317070Y1701125D01*
X317070Y1705292D01*
G54D51*
X329737Y1704458D02*
X337737Y1704458D01*
G54D51*
X350404Y1709458D02*
X350404Y1701125D01*
X349404Y1699458D01*
X347404Y1698625D01*
X345404Y1698625D01*
X343404Y1699458D01*
X342404Y1701125D01*
X342404Y1709458D01*
X343404Y1711125D01*
X345404Y1711958D01*
X347404Y1711958D01*
X349404Y1711125D01*
X350404Y1709458D01*
G54D51*
X363071Y1698625D02*
X355071Y1698625D01*
X355071Y1699458D01*
X356071Y1701125D01*
X362071Y1706125D01*
X363071Y1707792D01*
X363071Y1709458D01*
X362071Y1711125D01*
X360071Y1711958D01*
X358071Y1711958D01*
X356071Y1711125D01*
X355071Y1709458D01*
G54D51*
X367738Y1704458D02*
X375738Y1704458D01*
G54D51*
X388405Y1698625D02*
X380405Y1698625D01*
X380405Y1699458D01*
X381405Y1701125D01*
X387405Y1706125D01*
X388405Y1707792D01*
X388405Y1709458D01*
X387405Y1711125D01*
X385405Y1711958D01*
X383405Y1711958D01*
X381405Y1711125D01*
X380405Y1709458D01*
G54D51*
X401072Y1698625D02*
X393072Y1698625D01*
X393072Y1699458D01*
X394072Y1701125D01*
X400072Y1706125D01*
X401072Y1707792D01*
X401072Y1709458D01*
X400072Y1711125D01*
X398072Y1711958D01*
X396072Y1711958D01*
X394072Y1711125D01*
X393072Y1709458D01*
M02*
