%FSLAX34Y34*%
%MOMM*%
%LNOUTLINE*%
G71*
G01*
%ADD10C,0.150*%
%ADD11C,0.200*%
%LPD*%
G54D10*
G75*
G01X584425Y382388D02*
G03X584425Y382388I-12700J0D01*
G01*
G54D10*
G75*
G01X1865900Y254594D02*
G03X1865900Y254594I-21000J0D01*
G01*
G54D10*
G75*
G01X2191338Y254594D02*
G03X2191338Y254594I-21000J0D01*
G01*
G54D10*
G75*
G01X2200244Y63300D02*
G03X2200244Y63300I-18000J0D01*
G01*
G54D10*
G75*
G01X416910Y390722D02*
G03X416910Y390722I-21000J0D01*
G01*
G54D10*
G75*
G01X84328Y390722D02*
G03X84328Y390722I-21000J0D01*
G01*
G54D10*
G75*
G01X77359Y63697D02*
G03X77359Y63697I-18000J0D01*
G01*
G54D10*
G75*
G01X77359Y1725810D02*
G03X77359Y1725810I-18000J0D01*
G01*
G54D11*
G75*
G01X1132145Y398367D02*
G03X1112145Y378367I0J-20000D01*
G01*
G54D11*
G75*
G01X1809883Y378367D02*
G03X1789883Y398367I-20000J0D01*
G01*
G54D11*
X1789883Y398367D02*
X1132145Y398367D01*
G54D11*
X1112145Y378367D02*
X1112145Y395D01*
X1112000Y250D01*
X0Y0D01*
X0Y314250D01*
X12000Y314250D01*
X31000Y410250D01*
X21500Y412250D01*
X0Y417250D01*
X0Y419250D01*
X8000Y453250D01*
X31000Y568250D01*
X21500Y570250D01*
X0Y575250D01*
X0Y755250D01*
X34000Y755250D01*
X34000Y808250D01*
X0Y808250D01*
X0Y1785000D01*
X549000Y1785250D01*
X572000Y1762250D01*
X572000Y1717250D01*
X577000Y1712250D01*
X588000Y1712250D01*
X593000Y1717250D01*
X593000Y1763250D01*
X615000Y1785250D01*
X2240000Y1785000D01*
X2240000Y1246250D01*
G54D11*
X2240000Y1156250D02*
X2195000Y1201250D01*
X2240000Y1246250D01*
G54D11*
X1809883Y378367D02*
X1809883Y367D01*
X2239883Y367D01*
X2240000Y750D01*
X2240000Y12250D01*
X2239981Y312250D01*
X2227981Y312250D01*
X2208981Y408250D01*
X2218481Y410250D01*
X2239981Y415250D01*
X2239981Y417250D01*
X2231981Y451250D01*
X2208981Y566250D01*
X2218481Y568250D01*
X2239981Y573250D01*
X2239981Y754231D01*
X2205019Y754231D01*
X2205000Y754250D01*
X2205000Y807250D01*
X2240000Y807250D01*
X2240000Y1156250D01*
M02*
