%FSLAX34Y34*%
%MOMM*%
%LNSOLDERMASK_BOTTOM*%
G71*
G01*
%ADD10C,1.000*%
%ADD11C,1.600*%
%ADD12C,1.700*%
%ADD13C,1.800*%
%ADD14C,1.720*%
%ADD15C,1.720*%
%ADD16C,3.400*%
%ADD17C,2.500*%
%ADD18C,3.400*%
%ADD19C,2.500*%
%ADD20C,1.720*%
%ADD21C,2.200*%
%ADD22C,2.000*%
%ADD23C,2.300*%
%ADD24C,3.450*%
%ADD25C,2.600*%
%ADD26C,1.800*%
%ADD27R,1.600X2.000*%
%ADD28R,1.800X1.450*%
%ADD29R,2.200X2.400*%
%ADD30R,1.800X3.000*%
%ADD31R,1.500X3.700*%
%ADD32R,1.200X1.200*%
%ADD33C,0.400*%
%LPD*%
X2022839Y1506250D02*
G54D10*
D03*
X198854Y1533933D02*
G54D10*
D03*
X130195Y203933D02*
G54D10*
D03*
X1955581Y245151D02*
G54D10*
D03*
X948366Y975274D02*
G54D10*
D03*
G36*
X987138Y454831D02*
X987138Y470831D01*
X1003138Y470831D01*
X1003138Y454831D01*
X987138Y454831D01*
G37*
X995138Y488231D02*
G54D11*
D03*
X995138Y513631D02*
G54D11*
D03*
X995138Y539031D02*
G54D11*
D03*
X995138Y564431D02*
G54D11*
D03*
X995138Y589831D02*
G54D11*
D03*
X995138Y615231D02*
G54D11*
D03*
X995138Y640631D02*
G54D11*
D03*
X995138Y666031D02*
G54D11*
D03*
X995138Y691431D02*
G54D11*
D03*
X995138Y716831D02*
G54D11*
D03*
X995138Y742231D02*
G54D11*
D03*
X995138Y767631D02*
G54D11*
D03*
X995138Y793031D02*
G54D11*
D03*
X995138Y818431D02*
G54D11*
D03*
X995138Y843831D02*
G54D11*
D03*
X842738Y843831D02*
G54D11*
D03*
X842738Y818431D02*
G54D11*
D03*
X842738Y793031D02*
G54D11*
D03*
X842738Y767631D02*
G54D11*
D03*
X842738Y742231D02*
G54D11*
D03*
X842738Y716831D02*
G54D11*
D03*
X842738Y691431D02*
G54D11*
D03*
X842738Y666031D02*
G54D11*
D03*
X842738Y640631D02*
G54D11*
D03*
X842738Y615231D02*
G54D11*
D03*
X842738Y589831D02*
G54D11*
D03*
X842738Y564431D02*
G54D11*
D03*
X842738Y539031D02*
G54D11*
D03*
X842738Y513631D02*
G54D11*
D03*
X842738Y488231D02*
G54D11*
D03*
X842738Y462831D02*
G54D11*
D03*
G36*
X782351Y454831D02*
X782351Y470831D01*
X798351Y470831D01*
X798351Y454831D01*
X782351Y454831D01*
G37*
X790351Y488231D02*
G54D11*
D03*
X790351Y513631D02*
G54D11*
D03*
X790351Y539031D02*
G54D11*
D03*
X790351Y564431D02*
G54D11*
D03*
X790351Y589831D02*
G54D11*
D03*
X790351Y615231D02*
G54D11*
D03*
X790351Y640631D02*
G54D11*
D03*
X790351Y666031D02*
G54D11*
D03*
X790351Y691431D02*
G54D11*
D03*
X790351Y716831D02*
G54D11*
D03*
X790351Y742231D02*
G54D11*
D03*
X790351Y767631D02*
G54D11*
D03*
X790351Y793031D02*
G54D11*
D03*
X790351Y818431D02*
G54D11*
D03*
X790351Y843831D02*
G54D11*
D03*
X637951Y843831D02*
G54D11*
D03*
X637951Y818431D02*
G54D11*
D03*
X637951Y793031D02*
G54D11*
D03*
X637951Y767631D02*
G54D11*
D03*
X637951Y742231D02*
G54D11*
D03*
X637951Y716831D02*
G54D11*
D03*
X637951Y691431D02*
G54D11*
D03*
X637951Y666031D02*
G54D11*
D03*
X637951Y640631D02*
G54D11*
D03*
X637951Y615231D02*
G54D11*
D03*
X637951Y589831D02*
G54D11*
D03*
X637951Y564431D02*
G54D11*
D03*
X637951Y539031D02*
G54D11*
D03*
X637951Y513631D02*
G54D11*
D03*
X637951Y488231D02*
G54D11*
D03*
X637951Y462831D02*
G54D11*
D03*
G36*
X579151Y454831D02*
X579151Y470831D01*
X595151Y470831D01*
X595151Y454831D01*
X579151Y454831D01*
G37*
X587151Y488231D02*
G54D11*
D03*
X587151Y513631D02*
G54D11*
D03*
X587151Y539031D02*
G54D11*
D03*
X587151Y564431D02*
G54D11*
D03*
X587151Y589831D02*
G54D11*
D03*
X587151Y615231D02*
G54D11*
D03*
X587151Y640631D02*
G54D11*
D03*
X587151Y666031D02*
G54D11*
D03*
X587151Y691431D02*
G54D11*
D03*
X587151Y716831D02*
G54D11*
D03*
X587151Y742231D02*
G54D11*
D03*
X587151Y767631D02*
G54D11*
D03*
X587151Y793031D02*
G54D11*
D03*
X587151Y818431D02*
G54D11*
D03*
X587151Y843831D02*
G54D11*
D03*
X434751Y843831D02*
G54D11*
D03*
X434751Y818431D02*
G54D11*
D03*
X434751Y793031D02*
G54D11*
D03*
X434751Y767631D02*
G54D11*
D03*
X434751Y742231D02*
G54D11*
D03*
X434751Y716831D02*
G54D11*
D03*
X434751Y691431D02*
G54D11*
D03*
X434751Y666031D02*
G54D11*
D03*
X434751Y640631D02*
G54D11*
D03*
X434751Y615231D02*
G54D11*
D03*
X434751Y589831D02*
G54D11*
D03*
X434751Y564431D02*
G54D11*
D03*
X434751Y539031D02*
G54D11*
D03*
X434751Y513631D02*
G54D11*
D03*
X434751Y488231D02*
G54D11*
D03*
X434751Y462831D02*
G54D11*
D03*
G36*
X375951Y454831D02*
X375951Y470831D01*
X391951Y470831D01*
X391951Y454831D01*
X375951Y454831D01*
G37*
X383951Y488231D02*
G54D11*
D03*
X383951Y513631D02*
G54D11*
D03*
X383951Y539031D02*
G54D11*
D03*
X383951Y564431D02*
G54D11*
D03*
X383951Y589831D02*
G54D11*
D03*
X383951Y615231D02*
G54D11*
D03*
X383951Y640631D02*
G54D11*
D03*
X383951Y666031D02*
G54D11*
D03*
X383951Y691431D02*
G54D11*
D03*
X383951Y716831D02*
G54D11*
D03*
X383951Y742231D02*
G54D11*
D03*
X383951Y767631D02*
G54D11*
D03*
X383951Y793031D02*
G54D11*
D03*
X383951Y818431D02*
G54D11*
D03*
X383951Y843831D02*
G54D11*
D03*
X231551Y843831D02*
G54D11*
D03*
X231551Y818431D02*
G54D11*
D03*
X231551Y793031D02*
G54D11*
D03*
X231551Y767631D02*
G54D11*
D03*
X231551Y742231D02*
G54D11*
D03*
X231551Y716831D02*
G54D11*
D03*
X231551Y691431D02*
G54D11*
D03*
X231551Y666031D02*
G54D11*
D03*
X231551Y640631D02*
G54D11*
D03*
X231551Y615231D02*
G54D11*
D03*
X231551Y589831D02*
G54D11*
D03*
X231551Y564431D02*
G54D11*
D03*
X231551Y539031D02*
G54D11*
D03*
X231551Y513631D02*
G54D11*
D03*
X231551Y488231D02*
G54D11*
D03*
X231551Y462831D02*
G54D11*
D03*
X1070200Y590350D02*
G54D12*
D03*
X1222600Y590350D02*
G54D12*
D03*
X1222601Y514150D02*
G54D12*
D03*
G36*
X1061700Y522650D02*
X1078700Y522650D01*
X1078700Y505650D01*
X1061700Y505650D01*
X1061700Y522650D01*
G37*
X1503236Y513765D02*
G54D12*
D03*
X1350835Y513765D02*
G54D12*
D03*
X1350835Y589965D02*
G54D12*
D03*
G36*
X1511736Y581465D02*
X1494736Y581465D01*
X1494736Y598465D01*
X1511736Y598465D01*
X1511736Y581465D01*
G37*
G36*
X1888750Y131158D02*
X1904750Y131158D01*
X1904750Y115158D01*
X1888750Y115158D01*
X1888750Y131158D01*
G37*
X1896750Y148558D02*
G54D11*
D03*
X1922150Y123158D02*
G54D11*
D03*
X1922150Y148558D02*
G54D11*
D03*
X1947550Y123158D02*
G54D11*
D03*
X1947550Y148558D02*
G54D11*
D03*
X1972950Y123158D02*
G54D11*
D03*
X1972950Y148558D02*
G54D11*
D03*
X1998350Y123158D02*
G54D11*
D03*
X1998350Y148558D02*
G54D11*
D03*
X2023750Y123158D02*
G54D11*
D03*
X2023750Y148558D02*
G54D11*
D03*
X2049150Y123158D02*
G54D11*
D03*
X2049150Y148558D02*
G54D11*
D03*
X2074550Y123158D02*
G54D11*
D03*
X2074550Y148558D02*
G54D11*
D03*
X2099950Y123158D02*
G54D11*
D03*
X2099950Y148558D02*
G54D11*
D03*
X2125350Y123158D02*
G54D11*
D03*
X2125350Y148558D02*
G54D11*
D03*
G36*
X107575Y267683D02*
X123575Y267683D01*
X123575Y251683D01*
X107575Y251683D01*
X107575Y267683D01*
G37*
X115575Y285083D02*
G54D11*
D03*
X140975Y259683D02*
G54D11*
D03*
X140975Y285083D02*
G54D11*
D03*
X166375Y259683D02*
G54D11*
D03*
X166375Y285083D02*
G54D11*
D03*
X191775Y259683D02*
G54D11*
D03*
X191775Y285083D02*
G54D11*
D03*
X217175Y259683D02*
G54D11*
D03*
X217175Y285083D02*
G54D11*
D03*
X242575Y259683D02*
G54D11*
D03*
X242575Y285083D02*
G54D11*
D03*
X267975Y259683D02*
G54D11*
D03*
X267975Y285083D02*
G54D11*
D03*
X293375Y259683D02*
G54D11*
D03*
X293375Y285083D02*
G54D11*
D03*
X318775Y259683D02*
G54D11*
D03*
X318775Y285083D02*
G54D11*
D03*
X344175Y259683D02*
G54D11*
D03*
X344175Y285083D02*
G54D11*
D03*
G36*
X316758Y130865D02*
X332758Y130865D01*
X332758Y114865D01*
X316758Y114865D01*
X316758Y130865D01*
G37*
X324758Y148265D02*
G54D11*
D03*
X350158Y122865D02*
G54D11*
D03*
X350158Y148265D02*
G54D11*
D03*
X375557Y122865D02*
G54D11*
D03*
X375558Y148265D02*
G54D11*
D03*
X400957Y122865D02*
G54D11*
D03*
X400958Y148265D02*
G54D11*
D03*
X426358Y122865D02*
G54D11*
D03*
X426358Y148265D02*
G54D11*
D03*
X451758Y122865D02*
G54D11*
D03*
X451758Y148265D02*
G54D11*
D03*
X477157Y122865D02*
G54D11*
D03*
X477158Y148265D02*
G54D11*
D03*
X502558Y122865D02*
G54D11*
D03*
X502558Y148265D02*
G54D11*
D03*
X527958Y122865D02*
G54D11*
D03*
X527958Y148265D02*
G54D11*
D03*
X553358Y122865D02*
G54D11*
D03*
X553358Y148265D02*
G54D11*
D03*
X578758Y122865D02*
G54D11*
D03*
X578758Y148265D02*
G54D11*
D03*
X604158Y122865D02*
G54D11*
D03*
X604158Y148265D02*
G54D11*
D03*
X629558Y122865D02*
G54D11*
D03*
X629558Y148265D02*
G54D11*
D03*
X654958Y122865D02*
G54D11*
D03*
X654958Y148265D02*
G54D11*
D03*
X680358Y122865D02*
G54D11*
D03*
X680358Y148265D02*
G54D11*
D03*
X705758Y122865D02*
G54D11*
D03*
X705758Y148265D02*
G54D11*
D03*
X731158Y122865D02*
G54D11*
D03*
X731158Y148265D02*
G54D11*
D03*
X756558Y122865D02*
G54D11*
D03*
X756558Y148265D02*
G54D11*
D03*
X781958Y122865D02*
G54D11*
D03*
X781958Y148265D02*
G54D11*
D03*
X807358Y122865D02*
G54D11*
D03*
X807358Y148265D02*
G54D11*
D03*
X832758Y122865D02*
G54D11*
D03*
X832758Y148265D02*
G54D11*
D03*
X858158Y122865D02*
G54D11*
D03*
X858158Y148265D02*
G54D11*
D03*
X883558Y122865D02*
G54D11*
D03*
X883558Y148265D02*
G54D11*
D03*
X908958Y122865D02*
G54D11*
D03*
X908958Y148265D02*
G54D11*
D03*
X934358Y122865D02*
G54D11*
D03*
X934358Y148265D02*
G54D11*
D03*
G36*
X1898252Y1674208D02*
X1880252Y1674208D01*
X1880252Y1692208D01*
X1898252Y1692208D01*
X1898252Y1674208D01*
G37*
X1915952Y1683208D02*
G54D13*
D03*
X1943652Y1683208D02*
G54D13*
D03*
X1971352Y1683208D02*
G54D13*
D03*
X1998952Y1683208D02*
G54D13*
D03*
X2026652Y1683208D02*
G54D13*
D03*
X2054352Y1683208D02*
G54D13*
D03*
X2082052Y1683208D02*
G54D13*
D03*
X1902252Y1711608D02*
G54D13*
D03*
X1929952Y1711608D02*
G54D13*
D03*
X1957552Y1711608D02*
G54D13*
D03*
X1985252Y1711608D02*
G54D13*
D03*
X2012952Y1711608D02*
G54D13*
D03*
X2040652Y1711608D02*
G54D13*
D03*
X2068352Y1711608D02*
G54D13*
D03*
G36*
X2117560Y1731147D02*
X2184560Y1731147D01*
X2184560Y1664147D01*
X2117560Y1664147D01*
X2117560Y1731147D01*
G37*
G36*
X1785772Y1731147D02*
X1852772Y1731147D01*
X1852772Y1664147D01*
X1785772Y1664147D01*
X1785772Y1731147D01*
G37*
G36*
X1360324Y1731147D02*
X1427324Y1731147D01*
X1427324Y1664147D01*
X1360324Y1664147D01*
X1360324Y1731147D01*
G37*
G36*
X890424Y1731147D02*
X957424Y1731147D01*
X957424Y1664147D01*
X890424Y1664147D01*
X890424Y1731147D01*
G37*
G36*
X1000341Y1674608D02*
X983141Y1674608D01*
X983141Y1691808D01*
X1000341Y1691808D01*
X1000341Y1674608D01*
G37*
X1019441Y1683208D02*
G54D14*
D03*
X1047041Y1683208D02*
G54D14*
D03*
X1074741Y1683208D02*
G54D14*
D03*
X1102441Y1683208D02*
G54D14*
D03*
X1130141Y1683208D02*
G54D14*
D03*
X1157841Y1683208D02*
G54D14*
D03*
X1185541Y1683208D02*
G54D14*
D03*
X1213241Y1683208D02*
G54D14*
D03*
X1240841Y1683208D02*
G54D14*
D03*
X1268541Y1683208D02*
G54D14*
D03*
X1296241Y1683208D02*
G54D14*
D03*
X1323941Y1683208D02*
G54D14*
D03*
X1005641Y1711608D02*
G54D14*
D03*
X1033341Y1711608D02*
G54D14*
D03*
X1062041Y1711608D02*
G54D14*
D03*
X1088741Y1711608D02*
G54D14*
D03*
X1116441Y1711608D02*
G54D14*
D03*
X1144141Y1711608D02*
G54D14*
D03*
X1171841Y1711608D02*
G54D14*
D03*
X1199441Y1711608D02*
G54D14*
D03*
X1227141Y1711608D02*
G54D14*
D03*
X1254841Y1711608D02*
G54D14*
D03*
X1282541Y1711608D02*
G54D14*
D03*
X1310241Y1711608D02*
G54D14*
D03*
G36*
X2001400Y530950D02*
X2001400Y548150D01*
X2018600Y548150D01*
X2018600Y530950D01*
X2001400Y530950D01*
G37*
X2010000Y564950D02*
G54D15*
D03*
X2010000Y590350D02*
G54D15*
D03*
X2010000Y615750D02*
G54D15*
D03*
X2010000Y641150D02*
G54D15*
D03*
X2010000Y666550D02*
G54D15*
D03*
X2010000Y691950D02*
G54D15*
D03*
X2010000Y717350D02*
G54D15*
D03*
X2010000Y742750D02*
G54D15*
D03*
X2010000Y768150D02*
G54D15*
D03*
X2010000Y793550D02*
G54D15*
D03*
X2010000Y818950D02*
G54D15*
D03*
X2010000Y844350D02*
G54D15*
D03*
X2010000Y869750D02*
G54D15*
D03*
X2010000Y895150D02*
G54D15*
D03*
X2010000Y920550D02*
G54D15*
D03*
X2010000Y945950D02*
G54D15*
D03*
X2010000Y971350D02*
G54D15*
D03*
X2010000Y996750D02*
G54D15*
D03*
X2010000Y1022150D02*
G54D15*
D03*
X2010000Y1047550D02*
G54D15*
D03*
X2010000Y1072950D02*
G54D15*
D03*
X2010000Y1098350D02*
G54D15*
D03*
X2010000Y1123750D02*
G54D15*
D03*
X2010000Y1149150D02*
G54D15*
D03*
X2010000Y1174550D02*
G54D15*
D03*
X2010000Y1199950D02*
G54D15*
D03*
X2010000Y1225350D02*
G54D15*
D03*
X2010000Y1250750D02*
G54D15*
D03*
X2010000Y1276150D02*
G54D15*
D03*
G36*
X1899800Y530950D02*
X1899800Y548150D01*
X1917000Y548150D01*
X1917000Y530950D01*
X1899800Y530950D01*
G37*
X1908400Y564950D02*
G54D15*
D03*
X1908400Y590350D02*
G54D15*
D03*
X1908400Y615750D02*
G54D15*
D03*
X1908400Y641150D02*
G54D15*
D03*
X1908400Y666550D02*
G54D15*
D03*
X1908400Y691950D02*
G54D15*
D03*
X1908400Y717350D02*
G54D15*
D03*
X1908400Y742750D02*
G54D15*
D03*
X1908400Y768150D02*
G54D15*
D03*
X1908400Y793550D02*
G54D15*
D03*
X1908400Y818950D02*
G54D15*
D03*
X1908400Y844350D02*
G54D15*
D03*
X1908400Y869750D02*
G54D15*
D03*
X1908400Y895150D02*
G54D15*
D03*
X1908400Y920550D02*
G54D15*
D03*
X1908400Y945950D02*
G54D15*
D03*
X1908400Y971350D02*
G54D15*
D03*
X1908400Y996750D02*
G54D15*
D03*
X1908400Y1022150D02*
G54D15*
D03*
X1908400Y1047550D02*
G54D15*
D03*
X1908400Y1072950D02*
G54D15*
D03*
X1908400Y1098350D02*
G54D15*
D03*
X1908400Y1123750D02*
G54D15*
D03*
X1908400Y1149150D02*
G54D15*
D03*
X1908400Y1174550D02*
G54D15*
D03*
X1908400Y1199950D02*
G54D15*
D03*
X1908400Y1225350D02*
G54D15*
D03*
X1908400Y1250750D02*
G54D15*
D03*
X1908400Y1276150D02*
G54D15*
D03*
X1908400Y1369812D02*
G54D16*
D03*
X2010000Y1369812D02*
G54D16*
D03*
X1908400Y444300D02*
G54D17*
D03*
X2010000Y444300D02*
G54D17*
D03*
X1781674Y716222D02*
G54D15*
D03*
X1781674Y741622D02*
G54D15*
D03*
X1781674Y767022D02*
G54D15*
D03*
X1781674Y792422D02*
G54D15*
D03*
X1781674Y817822D02*
G54D15*
D03*
X1781674Y843222D02*
G54D15*
D03*
X1781674Y868622D02*
G54D15*
D03*
X1781674Y894022D02*
G54D15*
D03*
X1781674Y919422D02*
G54D15*
D03*
X1781674Y944822D02*
G54D15*
D03*
X1781674Y1021022D02*
G54D15*
D03*
X1781674Y1046422D02*
G54D15*
D03*
X1781674Y1071822D02*
G54D15*
D03*
X1781674Y1097222D02*
G54D15*
D03*
X1781674Y1122622D02*
G54D15*
D03*
X1781674Y1148022D02*
G54D15*
D03*
X1781674Y1173422D02*
G54D15*
D03*
X1781674Y1198822D02*
G54D15*
D03*
X1781674Y1224222D02*
G54D15*
D03*
X1781674Y1249622D02*
G54D15*
D03*
X1781674Y1275022D02*
G54D15*
D03*
X1781674Y1300422D02*
G54D15*
D03*
X1781674Y1325822D02*
G54D15*
D03*
X1781674Y1351222D02*
G54D15*
D03*
X1781674Y1376622D02*
G54D15*
D03*
X1781674Y1402022D02*
G54D15*
D03*
X1781674Y1427422D02*
G54D15*
D03*
X1807074Y728922D02*
G54D15*
D03*
X1807074Y754322D02*
G54D15*
D03*
X1807074Y779722D02*
G54D15*
D03*
X1807074Y805122D02*
G54D15*
D03*
X1807074Y830522D02*
G54D15*
D03*
X1807074Y855922D02*
G54D15*
D03*
X1807074Y881322D02*
G54D15*
D03*
X1807074Y906722D02*
G54D15*
D03*
X1807074Y932122D02*
G54D15*
D03*
X1807074Y957522D02*
G54D15*
D03*
X1807074Y1033722D02*
G54D15*
D03*
X1807074Y1059122D02*
G54D15*
D03*
X1807074Y1084522D02*
G54D15*
D03*
X1807074Y1109922D02*
G54D15*
D03*
X1807074Y1135322D02*
G54D15*
D03*
X1807074Y1160722D02*
G54D15*
D03*
X1807074Y1186122D02*
G54D15*
D03*
X1807074Y1211522D02*
G54D15*
D03*
X1807074Y1236922D02*
G54D15*
D03*
X1807074Y1262322D02*
G54D15*
D03*
X1807074Y1287722D02*
G54D15*
D03*
X1807074Y1313122D02*
G54D15*
D03*
X1807074Y1338522D02*
G54D15*
D03*
X1807074Y1363922D02*
G54D15*
D03*
X1807074Y1389322D02*
G54D15*
D03*
X1807074Y1414722D02*
G54D15*
D03*
X1807074Y1440122D02*
G54D15*
D03*
G36*
X1773074Y529822D02*
X1773074Y547022D01*
X1790274Y547022D01*
X1790274Y529822D01*
X1773074Y529822D01*
G37*
X1781674Y563822D02*
G54D15*
D03*
X1781674Y589222D02*
G54D15*
D03*
X1781674Y614622D02*
G54D15*
D03*
X1781674Y640022D02*
G54D15*
D03*
X1781674Y665422D02*
G54D15*
D03*
X1781674Y690822D02*
G54D15*
D03*
X1807074Y551122D02*
G54D15*
D03*
X1807074Y576522D02*
G54D15*
D03*
X1807074Y601922D02*
G54D15*
D03*
X1807074Y627322D02*
G54D15*
D03*
X1807074Y652722D02*
G54D15*
D03*
X1807074Y678122D02*
G54D15*
D03*
X1807074Y703522D02*
G54D15*
D03*
X1793306Y1522212D02*
G54D18*
D03*
X1793306Y988812D02*
G54D19*
D03*
X1793306Y457000D02*
G54D19*
D03*
X139925Y590350D02*
G54D20*
D03*
X139925Y615750D02*
G54D20*
D03*
X139925Y641150D02*
G54D20*
D03*
X139925Y666550D02*
G54D20*
D03*
X139925Y691950D02*
G54D20*
D03*
X139925Y717350D02*
G54D20*
D03*
X139925Y742750D02*
G54D20*
D03*
X139925Y768150D02*
G54D20*
D03*
X139925Y793550D02*
G54D20*
D03*
X139925Y818950D02*
G54D20*
D03*
X139925Y844350D02*
G54D20*
D03*
X139925Y869750D02*
G54D20*
D03*
X139925Y895150D02*
G54D20*
D03*
X139925Y920550D02*
G54D20*
D03*
X139925Y945950D02*
G54D20*
D03*
X139925Y971350D02*
G54D20*
D03*
X139925Y996750D02*
G54D20*
D03*
X139925Y1022150D02*
G54D20*
D03*
X139925Y1047550D02*
G54D20*
D03*
X139925Y1072950D02*
G54D20*
D03*
X139925Y1098350D02*
G54D20*
D03*
X139925Y1123750D02*
G54D20*
D03*
X139925Y1149150D02*
G54D20*
D03*
X139925Y1174550D02*
G54D20*
D03*
X139925Y1199950D02*
G54D20*
D03*
X139925Y1225350D02*
G54D20*
D03*
X139925Y1250750D02*
G54D20*
D03*
X139925Y1276150D02*
G54D20*
D03*
X139925Y1301550D02*
G54D20*
D03*
X139925Y1326950D02*
G54D20*
D03*
X114525Y590350D02*
G54D20*
D03*
X114525Y615750D02*
G54D20*
D03*
X114525Y641150D02*
G54D20*
D03*
X114525Y666550D02*
G54D20*
D03*
X114525Y691950D02*
G54D20*
D03*
X114525Y717350D02*
G54D20*
D03*
X114525Y742750D02*
G54D20*
D03*
X114525Y768150D02*
G54D20*
D03*
X114525Y793550D02*
G54D20*
D03*
X114525Y818950D02*
G54D20*
D03*
X114525Y844350D02*
G54D20*
D03*
X114525Y869750D02*
G54D20*
D03*
X114525Y895150D02*
G54D20*
D03*
X114525Y920550D02*
G54D20*
D03*
X114525Y945950D02*
G54D20*
D03*
X114525Y971350D02*
G54D20*
D03*
X114525Y996750D02*
G54D20*
D03*
X114525Y1022150D02*
G54D20*
D03*
X114525Y1047550D02*
G54D20*
D03*
X114525Y1072950D02*
G54D20*
D03*
X114525Y1098350D02*
G54D20*
D03*
X114525Y1123750D02*
G54D20*
D03*
X114525Y1149150D02*
G54D20*
D03*
X114525Y1174550D02*
G54D20*
D03*
X114525Y1199950D02*
G54D20*
D03*
X114525Y1225350D02*
G54D20*
D03*
X114525Y1250750D02*
G54D20*
D03*
X114525Y1276150D02*
G54D20*
D03*
X114525Y1301550D02*
G54D20*
D03*
X114525Y1326950D02*
G54D20*
D03*
X89125Y590350D02*
G54D20*
D03*
X89125Y615750D02*
G54D20*
D03*
X89125Y641150D02*
G54D20*
D03*
X89125Y666550D02*
G54D20*
D03*
X89125Y691950D02*
G54D20*
D03*
X89125Y717350D02*
G54D20*
D03*
X89125Y742750D02*
G54D20*
D03*
X89125Y768150D02*
G54D20*
D03*
X89125Y793550D02*
G54D20*
D03*
X89125Y818950D02*
G54D20*
D03*
X89125Y844350D02*
G54D20*
D03*
X89125Y869750D02*
G54D20*
D03*
X89125Y895150D02*
G54D20*
D03*
X89125Y920550D02*
G54D20*
D03*
X89125Y945950D02*
G54D20*
D03*
X89125Y971350D02*
G54D20*
D03*
X89125Y996750D02*
G54D20*
D03*
X89125Y1022150D02*
G54D20*
D03*
X89125Y1047550D02*
G54D20*
D03*
X89125Y1072950D02*
G54D20*
D03*
X89125Y1098350D02*
G54D20*
D03*
X89125Y1123750D02*
G54D20*
D03*
X89125Y1149150D02*
G54D20*
D03*
X89125Y1174550D02*
G54D20*
D03*
X89125Y1199950D02*
G54D20*
D03*
X89125Y1225350D02*
G54D20*
D03*
X89125Y1250750D02*
G54D20*
D03*
X89125Y1276150D02*
G54D20*
D03*
X89125Y1301550D02*
G54D20*
D03*
G36*
X80525Y1318350D02*
X80525Y1335550D01*
X97725Y1335550D01*
X97725Y1318350D01*
X80525Y1318350D01*
G37*
X139925Y539550D02*
G54D20*
D03*
X139925Y564950D02*
G54D20*
D03*
X114525Y539550D02*
G54D20*
D03*
X114525Y564950D02*
G54D20*
D03*
X89125Y539550D02*
G54D20*
D03*
X89125Y564950D02*
G54D20*
D03*
G36*
X495000Y378150D02*
X477000Y378150D01*
X477000Y396150D01*
X495000Y396150D01*
X495000Y378150D01*
G37*
X486000Y361750D02*
G54D13*
D03*
X460600Y387150D02*
G54D13*
D03*
X460600Y361750D02*
G54D13*
D03*
X435200Y387150D02*
G54D13*
D03*
X435200Y361750D02*
G54D13*
D03*
X840806Y1109859D02*
G54D12*
D03*
X840806Y1084459D02*
G54D12*
D03*
G36*
X1088725Y359100D02*
X1070725Y359100D01*
X1070725Y377100D01*
X1088725Y377100D01*
X1088725Y359100D01*
G37*
X1054325Y368100D02*
G54D13*
D03*
X1028925Y368100D02*
G54D13*
D03*
G36*
X1006175Y236862D02*
X988175Y236862D01*
X988175Y254862D01*
X1006175Y254862D01*
X1006175Y236862D01*
G37*
X971775Y245862D02*
G54D13*
D03*
X867000Y310950D02*
G54D21*
D03*
G36*
X560725Y321950D02*
X582725Y321950D01*
X582725Y299950D01*
X560725Y299950D01*
X560725Y321950D01*
G37*
G36*
X837500Y986562D02*
X820300Y986562D01*
X820300Y1003762D01*
X837500Y1003762D01*
X837500Y986562D01*
G37*
X778100Y995163D02*
G54D15*
D03*
X747938Y1604762D02*
G54D12*
D03*
X773338Y1604762D02*
G54D12*
D03*
X798738Y1604762D02*
G54D12*
D03*
X824138Y1604762D02*
G54D12*
D03*
X747938Y1528562D02*
G54D12*
D03*
X773338Y1528562D02*
G54D12*
D03*
X798738Y1528562D02*
G54D12*
D03*
X824137Y1528562D02*
G54D12*
D03*
X519301Y1641918D02*
G54D22*
D03*
X520301Y1641918D02*
G54D22*
D03*
X521301Y1641918D02*
G54D22*
D03*
X522301Y1641918D02*
G54D22*
D03*
X523301Y1641918D02*
G54D22*
D03*
X524301Y1641918D02*
G54D22*
D03*
X525301Y1641918D02*
G54D22*
D03*
X526301Y1641918D02*
G54D22*
D03*
X527301Y1641918D02*
G54D22*
D03*
X528301Y1641918D02*
G54D22*
D03*
X538351Y1679224D02*
G54D22*
D03*
X539351Y1679224D02*
G54D22*
D03*
X540351Y1679224D02*
G54D22*
D03*
X541351Y1679224D02*
G54D22*
D03*
X542351Y1679224D02*
G54D22*
D03*
X543351Y1679224D02*
G54D22*
D03*
X544351Y1679224D02*
G54D22*
D03*
X545351Y1679224D02*
G54D22*
D03*
X546351Y1679224D02*
G54D22*
D03*
X547351Y1679224D02*
G54D22*
D03*
X519301Y1699068D02*
G54D22*
D03*
X520301Y1699068D02*
G54D22*
D03*
X521301Y1699068D02*
G54D22*
D03*
X522301Y1699068D02*
G54D22*
D03*
X523301Y1699068D02*
G54D22*
D03*
X524301Y1699068D02*
G54D22*
D03*
X525301Y1699068D02*
G54D22*
D03*
X526301Y1699068D02*
G54D22*
D03*
X527301Y1699068D02*
G54D22*
D03*
X528301Y1699068D02*
G54D22*
D03*
X538351Y1735580D02*
G54D22*
D03*
X539351Y1735580D02*
G54D22*
D03*
X540351Y1735580D02*
G54D22*
D03*
X541351Y1735580D02*
G54D22*
D03*
X542351Y1735580D02*
G54D22*
D03*
X543351Y1735580D02*
G54D22*
D03*
X544351Y1735580D02*
G54D22*
D03*
X545351Y1735580D02*
G54D22*
D03*
X546351Y1735580D02*
G54D22*
D03*
X547351Y1735580D02*
G54D22*
D03*
X519301Y1759393D02*
G54D22*
D03*
X520301Y1759393D02*
G54D22*
D03*
X521301Y1759393D02*
G54D22*
D03*
X522301Y1759393D02*
G54D22*
D03*
X523301Y1759393D02*
G54D22*
D03*
X524301Y1759393D02*
G54D22*
D03*
X525301Y1759393D02*
G54D22*
D03*
X526301Y1759393D02*
G54D22*
D03*
X527301Y1759393D02*
G54D22*
D03*
X528301Y1759393D02*
G54D22*
D03*
X639426Y1641918D02*
G54D22*
D03*
X640426Y1641918D02*
G54D22*
D03*
X641426Y1641918D02*
G54D22*
D03*
X642426Y1641918D02*
G54D22*
D03*
X643426Y1641918D02*
G54D22*
D03*
X644426Y1641918D02*
G54D22*
D03*
X645426Y1641918D02*
G54D22*
D03*
X646426Y1641918D02*
G54D22*
D03*
X647426Y1641918D02*
G54D22*
D03*
X648426Y1641918D02*
G54D22*
D03*
X658476Y1679224D02*
G54D22*
D03*
X659476Y1679224D02*
G54D22*
D03*
X660476Y1679224D02*
G54D22*
D03*
X661476Y1679224D02*
G54D22*
D03*
X662476Y1679224D02*
G54D22*
D03*
X663476Y1679224D02*
G54D22*
D03*
X664476Y1679224D02*
G54D22*
D03*
X665476Y1679224D02*
G54D22*
D03*
X666476Y1679224D02*
G54D22*
D03*
X667476Y1679224D02*
G54D22*
D03*
X639426Y1699068D02*
G54D22*
D03*
X640426Y1699068D02*
G54D22*
D03*
X641426Y1699068D02*
G54D22*
D03*
X642426Y1699068D02*
G54D22*
D03*
X643426Y1699068D02*
G54D22*
D03*
X644426Y1699068D02*
G54D22*
D03*
X645426Y1699068D02*
G54D22*
D03*
X646426Y1699068D02*
G54D22*
D03*
X647426Y1699068D02*
G54D22*
D03*
X648426Y1699068D02*
G54D22*
D03*
X658476Y1735580D02*
G54D22*
D03*
X659476Y1735580D02*
G54D22*
D03*
X660476Y1735580D02*
G54D22*
D03*
X661476Y1735580D02*
G54D22*
D03*
X662476Y1735580D02*
G54D22*
D03*
X663476Y1735580D02*
G54D22*
D03*
X664476Y1735580D02*
G54D22*
D03*
X665476Y1735580D02*
G54D22*
D03*
X666476Y1735580D02*
G54D22*
D03*
X667476Y1735580D02*
G54D22*
D03*
X639426Y1759393D02*
G54D22*
D03*
X640426Y1759393D02*
G54D22*
D03*
X641426Y1759393D02*
G54D22*
D03*
X642426Y1759393D02*
G54D22*
D03*
X643426Y1759393D02*
G54D22*
D03*
X644426Y1759393D02*
G54D22*
D03*
X645426Y1759393D02*
G54D22*
D03*
X646426Y1759393D02*
G54D22*
D03*
X647426Y1759393D02*
G54D22*
D03*
X648426Y1759393D02*
G54D22*
D03*
X1590259Y1745179D02*
G54D23*
D03*
X1590259Y1744179D02*
G54D23*
D03*
X1590259Y1743179D02*
G54D23*
D03*
X1590259Y1742179D02*
G54D23*
D03*
X1590259Y1741179D02*
G54D23*
D03*
X1590259Y1740179D02*
G54D23*
D03*
X1590259Y1739179D02*
G54D23*
D03*
X1590259Y1738179D02*
G54D23*
D03*
X1590259Y1737179D02*
G54D23*
D03*
X1590259Y1736179D02*
G54D23*
D03*
X1590259Y1735179D02*
G54D23*
D03*
X1590259Y1734179D02*
G54D23*
D03*
X1590259Y1733179D02*
G54D23*
D03*
X1590259Y1732179D02*
G54D23*
D03*
X1590259Y1731179D02*
G54D23*
D03*
X1455321Y1745179D02*
G54D23*
D03*
X1455321Y1744179D02*
G54D23*
D03*
X1455321Y1743179D02*
G54D23*
D03*
X1455321Y1742179D02*
G54D23*
D03*
X1455321Y1741179D02*
G54D23*
D03*
X1455321Y1740179D02*
G54D23*
D03*
X1455321Y1739179D02*
G54D23*
D03*
X1455321Y1738179D02*
G54D23*
D03*
X1455321Y1737179D02*
G54D23*
D03*
X1455321Y1736179D02*
G54D23*
D03*
X1455321Y1735179D02*
G54D23*
D03*
X1455321Y1734179D02*
G54D23*
D03*
X1455321Y1733179D02*
G54D23*
D03*
X1455321Y1732179D02*
G54D23*
D03*
X1455321Y1731179D02*
G54D23*
D03*
X1529790Y1746116D02*
G54D23*
D03*
X1528790Y1746116D02*
G54D23*
D03*
X1527790Y1746116D02*
G54D23*
D03*
X1526790Y1746116D02*
G54D23*
D03*
X1525790Y1746116D02*
G54D23*
D03*
X1524790Y1746116D02*
G54D23*
D03*
X1523790Y1746116D02*
G54D23*
D03*
X1522790Y1746116D02*
G54D23*
D03*
X1521790Y1746116D02*
G54D23*
D03*
X1520790Y1746116D02*
G54D23*
D03*
X1519790Y1746116D02*
G54D23*
D03*
X1518790Y1746116D02*
G54D23*
D03*
X1517790Y1746116D02*
G54D23*
D03*
X1516790Y1746116D02*
G54D23*
D03*
X1515790Y1746116D02*
G54D23*
D03*
X1489865Y1682822D02*
G54D12*
D03*
X1509865Y1682822D02*
G54D12*
D03*
X1529865Y1682822D02*
G54D12*
D03*
X1489865Y1707822D02*
G54D12*
D03*
G36*
X1501365Y1716322D02*
X1518365Y1716322D01*
X1518365Y1699322D01*
X1501365Y1699322D01*
X1501365Y1716322D01*
G37*
X1535865Y1707822D02*
G54D12*
D03*
X1555865Y1707822D02*
G54D12*
D03*
X1555865Y1682822D02*
G54D12*
D03*
X1756946Y1745179D02*
G54D23*
D03*
X1756946Y1744179D02*
G54D23*
D03*
X1756946Y1743179D02*
G54D23*
D03*
X1756946Y1742179D02*
G54D23*
D03*
X1756946Y1741179D02*
G54D23*
D03*
X1756946Y1740179D02*
G54D23*
D03*
X1756946Y1739179D02*
G54D23*
D03*
X1756946Y1738179D02*
G54D23*
D03*
X1756946Y1737179D02*
G54D23*
D03*
X1756946Y1736179D02*
G54D23*
D03*
X1756946Y1735179D02*
G54D23*
D03*
X1756946Y1734179D02*
G54D23*
D03*
X1756946Y1733179D02*
G54D23*
D03*
X1756946Y1732179D02*
G54D23*
D03*
X1756946Y1731179D02*
G54D23*
D03*
X1622009Y1745179D02*
G54D23*
D03*
X1622009Y1744179D02*
G54D23*
D03*
X1622009Y1743179D02*
G54D23*
D03*
X1622009Y1742179D02*
G54D23*
D03*
X1622009Y1741179D02*
G54D23*
D03*
X1622009Y1740179D02*
G54D23*
D03*
X1622009Y1739179D02*
G54D23*
D03*
X1622009Y1738179D02*
G54D23*
D03*
X1622009Y1737179D02*
G54D23*
D03*
X1622009Y1736179D02*
G54D23*
D03*
X1622009Y1735179D02*
G54D23*
D03*
X1622009Y1734179D02*
G54D23*
D03*
X1622009Y1733179D02*
G54D23*
D03*
X1622009Y1732179D02*
G54D23*
D03*
X1622009Y1731179D02*
G54D23*
D03*
X1696477Y1746116D02*
G54D23*
D03*
X1695478Y1746116D02*
G54D23*
D03*
X1694478Y1746116D02*
G54D23*
D03*
X1693478Y1746116D02*
G54D23*
D03*
X1692478Y1746116D02*
G54D23*
D03*
X1691478Y1746116D02*
G54D23*
D03*
X1690477Y1746116D02*
G54D23*
D03*
X1689477Y1746116D02*
G54D23*
D03*
X1688478Y1746116D02*
G54D23*
D03*
X1687478Y1746116D02*
G54D23*
D03*
X1686478Y1746116D02*
G54D23*
D03*
X1685478Y1746116D02*
G54D23*
D03*
X1684478Y1746116D02*
G54D23*
D03*
X1683477Y1746116D02*
G54D23*
D03*
X1682477Y1746116D02*
G54D23*
D03*
X1656552Y1682822D02*
G54D12*
D03*
X1676552Y1682822D02*
G54D12*
D03*
X1696552Y1682822D02*
G54D12*
D03*
X1656552Y1707822D02*
G54D12*
D03*
G36*
X1668052Y1716322D02*
X1685052Y1716322D01*
X1685052Y1699322D01*
X1668052Y1699322D01*
X1668052Y1716322D01*
G37*
X1702552Y1707822D02*
G54D12*
D03*
X1722552Y1707822D02*
G54D12*
D03*
X1722552Y1682822D02*
G54D12*
D03*
X860803Y1745179D02*
G54D23*
D03*
X860803Y1744179D02*
G54D23*
D03*
X860803Y1743179D02*
G54D23*
D03*
X860803Y1742179D02*
G54D23*
D03*
X860803Y1741179D02*
G54D23*
D03*
X860803Y1740179D02*
G54D23*
D03*
X860803Y1739179D02*
G54D23*
D03*
X860803Y1738179D02*
G54D23*
D03*
X860803Y1737179D02*
G54D23*
D03*
X860803Y1736179D02*
G54D23*
D03*
X860803Y1735179D02*
G54D23*
D03*
X860803Y1734179D02*
G54D23*
D03*
X860803Y1733179D02*
G54D23*
D03*
X860803Y1732179D02*
G54D23*
D03*
X860803Y1731179D02*
G54D23*
D03*
X725865Y1745179D02*
G54D23*
D03*
X725865Y1744179D02*
G54D23*
D03*
X725865Y1743179D02*
G54D23*
D03*
X725865Y1742179D02*
G54D23*
D03*
X725865Y1741179D02*
G54D23*
D03*
X725865Y1740179D02*
G54D23*
D03*
X725865Y1739179D02*
G54D23*
D03*
X725865Y1738179D02*
G54D23*
D03*
X725865Y1737179D02*
G54D23*
D03*
X725865Y1736179D02*
G54D23*
D03*
X725865Y1735179D02*
G54D23*
D03*
X725865Y1734179D02*
G54D23*
D03*
X725865Y1733179D02*
G54D23*
D03*
X725865Y1732179D02*
G54D23*
D03*
X725865Y1731179D02*
G54D23*
D03*
X800334Y1746117D02*
G54D23*
D03*
X799334Y1746117D02*
G54D23*
D03*
X798334Y1746117D02*
G54D23*
D03*
X797334Y1746117D02*
G54D23*
D03*
X796334Y1746117D02*
G54D23*
D03*
X795334Y1746117D02*
G54D23*
D03*
X794334Y1746117D02*
G54D23*
D03*
X793334Y1746117D02*
G54D23*
D03*
X792334Y1746117D02*
G54D23*
D03*
X791334Y1746117D02*
G54D23*
D03*
X790334Y1746117D02*
G54D23*
D03*
X789334Y1746117D02*
G54D23*
D03*
X788334Y1746117D02*
G54D23*
D03*
X787334Y1746117D02*
G54D23*
D03*
X786334Y1746117D02*
G54D23*
D03*
X760409Y1682822D02*
G54D12*
D03*
G36*
X751909Y1716322D02*
X768909Y1716322D01*
X768909Y1699322D01*
X751909Y1699322D01*
X751909Y1716322D01*
G37*
X826409Y1707822D02*
G54D12*
D03*
X826409Y1682822D02*
G54D12*
D03*
X2134222Y707825D02*
G54D24*
D03*
X2134222Y747512D02*
G54D24*
D03*
X2134222Y787200D02*
G54D24*
D03*
X2134222Y826887D02*
G54D24*
D03*
X2134222Y906262D02*
G54D24*
D03*
G36*
X2116972Y963200D02*
X2151472Y963200D01*
X2151472Y928700D01*
X2116972Y928700D01*
X2116972Y963200D01*
G37*
G36*
X133274Y155674D02*
X159274Y155674D01*
X159274Y129674D01*
X133274Y129674D01*
X133274Y155674D01*
G37*
X187550Y142675D02*
G54D25*
D03*
X146275Y88700D02*
G54D25*
D03*
X187550Y88700D02*
G54D25*
D03*
X1509938Y1620638D02*
G54D10*
D03*
X1676625Y1620638D02*
G54D10*
D03*
X1740125Y1590475D02*
G54D10*
D03*
X1811562Y1552375D02*
G54D10*
D03*
X1846488Y1574600D02*
G54D10*
D03*
X1881412Y1585712D02*
G54D10*
D03*
X1879776Y1605196D02*
G54D10*
D03*
X1879825Y1626194D02*
G54D10*
D03*
X1879825Y1646038D02*
G54D10*
D03*
X1928244Y1584919D02*
G54D10*
D03*
X1933006Y1567456D02*
G54D10*
D03*
X1907606Y1567456D02*
G54D10*
D03*
X1882206Y1544437D02*
G54D10*
D03*
X1882206Y1516656D02*
G54D10*
D03*
X1978250Y1567456D02*
G54D10*
D03*
X2003650Y1567456D02*
G54D10*
D03*
X2028256Y1567456D02*
G54D10*
D03*
X2045719Y1569837D02*
G54D10*
D03*
X2066931Y1541897D02*
G54D10*
D03*
X2045167Y1483454D02*
G54D10*
D03*
X2075881Y1483319D02*
G54D10*
D03*
X2100487Y1483319D02*
G54D10*
D03*
X2004444Y1491256D02*
G54D10*
D03*
X2004444Y1466650D02*
G54D10*
D03*
X1552800Y1452362D02*
G54D10*
D03*
X1578200Y1452362D02*
G54D10*
D03*
X1603600Y1452362D02*
G54D10*
D03*
X1629000Y1452362D02*
G54D10*
D03*
X1664719Y1462681D02*
G54D10*
D03*
X1690119Y1462681D02*
G54D10*
D03*
X1715519Y1462681D02*
G54D10*
D03*
X1735362Y1462681D02*
G54D10*
D03*
X1740919Y1488081D02*
G54D10*
D03*
X1771081Y1497606D02*
G54D10*
D03*
X1760762Y1480938D02*
G54D10*
D03*
X1806800Y1481731D02*
G54D10*
D03*
X1847281Y1488875D02*
G54D10*
D03*
X1867125Y1488875D02*
G54D10*
D03*
X1867125Y1468238D02*
G54D10*
D03*
X1496444Y1467444D02*
G54D10*
D03*
X1481362Y1467444D02*
G54D10*
D03*
X1465488Y1467444D02*
G54D10*
D03*
X1527400Y1421406D02*
G54D10*
D03*
X1521844Y1442838D02*
G54D10*
D03*
X1502000Y1453950D02*
G54D10*
D03*
X1482156Y1442044D02*
G54D10*
D03*
X1466281Y1444425D02*
G54D10*
D03*
X1448025Y1444425D02*
G54D10*
D03*
X1436912Y1469031D02*
G54D10*
D03*
X1415481Y1467444D02*
G54D10*
D03*
X1415481Y1484112D02*
G54D10*
D03*
X1436119Y1484112D02*
G54D10*
D03*
X1528194Y1353938D02*
G54D10*
D03*
X1528194Y1370606D02*
G54D10*
D03*
X1528194Y1389656D02*
G54D10*
D03*
X1629794Y1417438D02*
G54D10*
D03*
X1629794Y1397594D02*
G54D10*
D03*
X1603600Y1392038D02*
G54D10*
D03*
X1588519Y1392038D02*
G54D10*
D03*
X1568675Y1387275D02*
G54D10*
D03*
X1598838Y1366638D02*
G54D10*
D03*
X1578994Y1372194D02*
G54D10*
D03*
X1557562Y1366638D02*
G54D10*
D03*
X1639319Y1346000D02*
G54D10*
D03*
X1644081Y1315838D02*
G54D10*
D03*
X1629794Y1290438D02*
G54D10*
D03*
X1629794Y1270594D02*
G54D10*
D03*
X1655194Y1270594D02*
G54D10*
D03*
X1730600Y1418231D02*
G54D10*
D03*
X1756000Y1426962D02*
G54D10*
D03*
X1756000Y1371400D02*
G54D10*
D03*
X1756000Y1335681D02*
G54D10*
D03*
X1756000Y1321394D02*
G54D10*
D03*
X1856806Y1392038D02*
G54D10*
D03*
X1963962Y1427756D02*
G54D10*
D03*
X1975281Y1366637D02*
G54D10*
D03*
X1425800Y1382512D02*
G54D10*
D03*
X1425800Y1402356D02*
G54D10*
D03*
X1425800Y1421406D02*
G54D10*
D03*
X1328963Y1396800D02*
G54D10*
D03*
X1328963Y1364256D02*
G54D10*
D03*
X1425800Y1344412D02*
G54D10*
D03*
X1445644Y1315838D02*
G54D10*
D03*
X1420244Y1315044D02*
G54D10*
D03*
X1395638Y1299962D02*
G54D10*
D03*
X1422625Y1249162D02*
G54D10*
D03*
X1451200Y1245194D02*
G54D10*
D03*
X1472631Y1244400D02*
G54D10*
D03*
X1467075Y1213444D02*
G54D10*
D03*
X1441675Y1214238D02*
G54D10*
D03*
X1487712Y1214238D02*
G54D10*
D03*
X1472631Y1168200D02*
G54D10*
D03*
X1502794Y1168200D02*
G54D10*
D03*
X1523431Y1194394D02*
G54D10*
D03*
X1538512Y1184075D02*
G54D10*
D03*
X1538512Y1204712D02*
G54D10*
D03*
X1553594Y1204712D02*
G54D10*
D03*
X1514700Y1155500D02*
G54D10*
D03*
X1502794Y1142800D02*
G54D10*
D03*
X1559150Y1112638D02*
G54D10*
D03*
X1578200Y1112638D02*
G54D10*
D03*
X1574231Y1133275D02*
G54D10*
D03*
X1589312Y1133275D02*
G54D10*
D03*
X1609950Y1127719D02*
G54D10*
D03*
X1629794Y1142800D02*
G54D10*
D03*
X1630587Y1163438D02*
G54D10*
D03*
X1645669Y1122956D02*
G54D10*
D03*
X1659956Y1133275D02*
G54D10*
D03*
X1676625Y1133275D02*
G54D10*
D03*
X1691706Y1123750D02*
G54D10*
D03*
X1731394Y1158675D02*
G54D10*
D03*
X1732187Y1179313D02*
G54D10*
D03*
X1752031Y1209475D02*
G54D10*
D03*
X1832200Y1199156D02*
G54D10*
D03*
X1731394Y1306312D02*
G54D10*
D03*
X1731394Y1284881D02*
G54D10*
D03*
X1732187Y1036437D02*
G54D10*
D03*
X1757588Y1062631D02*
G54D10*
D03*
X1726631Y1000719D02*
G54D10*
D03*
X1705994Y1006275D02*
G54D10*
D03*
X1665116Y1006275D02*
G54D10*
D03*
X1650431Y1006275D02*
G54D10*
D03*
X1645669Y986431D02*
G54D10*
D03*
X1630588Y1001512D02*
G54D10*
D03*
X1630587Y1016594D02*
G54D10*
D03*
X1630587Y1036437D02*
G54D10*
D03*
X1610744Y996750D02*
G54D10*
D03*
X1594869Y996750D02*
G54D10*
D03*
X1747269Y930075D02*
G54D10*
D03*
X1752825Y899912D02*
G54D10*
D03*
X1732187Y911025D02*
G54D10*
D03*
X1722662Y864194D02*
G54D10*
D03*
X1697262Y879275D02*
G54D10*
D03*
X1678212Y879275D02*
G54D10*
D03*
X1661544Y879275D02*
G54D10*
D03*
X1477394Y1117400D02*
G54D10*
D03*
X1477394Y1102319D02*
G54D10*
D03*
X1477394Y1082475D02*
G54D10*
D03*
X1513112Y1092000D02*
G54D10*
D03*
X1436912Y1092000D02*
G54D10*
D03*
X1426594Y1077712D02*
G54D10*
D03*
X1462312Y1056281D02*
G54D10*
D03*
X1498031Y1046756D02*
G54D10*
D03*
X1462312Y1031675D02*
G54D10*
D03*
X1447231Y1031675D02*
G54D10*
D03*
X1631381Y889594D02*
G54D10*
D03*
X1630587Y910231D02*
G54D10*
D03*
X1636144Y838794D02*
G54D10*
D03*
X1652812Y808631D02*
G54D10*
D03*
X1498031Y868956D02*
G54D10*
D03*
X1455169Y878481D02*
G54D10*
D03*
X1467869Y849112D02*
G54D10*
D03*
X1459138Y825300D02*
G54D10*
D03*
X1467075Y803075D02*
G54D10*
D03*
X1394844Y824506D02*
G54D10*
D03*
X1401194Y792756D02*
G54D10*
D03*
X1388494Y913406D02*
G54D10*
D03*
X1388494Y938806D02*
G54D10*
D03*
X1366269Y949919D02*
G54D10*
D03*
X1333725Y949919D02*
G54D10*
D03*
X1312294Y900706D02*
G54D10*
D03*
X1312294Y868956D02*
G54D10*
D03*
X1289275Y879275D02*
G54D10*
D03*
X1278956Y861019D02*
G54D10*
D03*
X1263875Y874512D02*
G54D10*
D03*
X1248794Y858638D02*
G54D10*
D03*
X1236888Y837206D02*
G54D10*
D03*
X1313088Y837206D02*
G54D10*
D03*
X1236094Y900706D02*
G54D10*
D03*
X1259113Y934838D02*
G54D10*
D03*
X1289275Y934838D02*
G54D10*
D03*
X1230538Y949919D02*
G54D10*
D03*
X1190056Y949125D02*
G54D10*
D03*
X1142431Y934838D02*
G54D10*
D03*
X1159100Y894356D02*
G54D10*
D03*
X1147987Y875306D02*
G54D10*
D03*
X1159894Y862606D02*
G54D10*
D03*
X1278956Y792756D02*
G54D10*
D03*
X1279750Y775294D02*
G54D10*
D03*
X1263875Y784025D02*
G54D10*
D03*
X1248794Y774500D02*
G54D10*
D03*
X1236094Y741956D02*
G54D10*
D03*
X1262288Y703856D02*
G54D10*
D03*
X1287688Y703062D02*
G54D10*
D03*
X1305150Y696713D02*
G54D10*
D03*
X1182119Y686394D02*
G54D10*
D03*
X1159894Y703856D02*
G54D10*
D03*
X1159894Y729256D02*
G54D10*
D03*
X1142431Y745925D02*
G54D10*
D03*
X1159894Y754656D02*
G54D10*
D03*
X1159894Y780056D02*
G54D10*
D03*
X1159894Y806250D02*
G54D10*
D03*
X1159894Y837206D02*
G54D10*
D03*
X1457550Y764975D02*
G54D10*
D03*
X1590106Y726875D02*
G54D10*
D03*
X1599631Y741956D02*
G54D10*
D03*
X1604394Y726875D02*
G54D10*
D03*
X1620269Y727669D02*
G54D10*
D03*
X1636144Y711794D02*
G54D10*
D03*
X1646462Y722112D02*
G54D10*
D03*
X1661544Y737194D02*
G54D10*
D03*
X1631381Y762594D02*
G54D10*
D03*
X1631381Y784025D02*
G54D10*
D03*
X1680991Y736400D02*
G54D10*
D03*
X1696469Y752275D02*
G54D10*
D03*
X1717106Y751481D02*
G54D10*
D03*
X1732187Y782438D02*
G54D10*
D03*
X1732188Y803869D02*
G54D10*
D03*
X1732187Y828475D02*
G54D10*
D03*
X1752031Y829269D02*
G54D10*
D03*
X1879825Y730050D02*
G54D10*
D03*
X1961581Y691156D02*
G54D10*
D03*
X1976663Y679250D02*
G54D10*
D03*
X1994919Y628450D02*
G54D10*
D03*
X1994919Y602256D02*
G54D10*
D03*
X2037781Y614956D02*
G54D10*
D03*
X2037781Y641150D02*
G54D10*
D03*
X2037781Y665756D02*
G54D10*
D03*
X1961581Y747512D02*
G54D10*
D03*
X1986981Y752275D02*
G54D10*
D03*
X1994125Y805456D02*
G54D10*
D03*
X1994125Y831650D02*
G54D10*
D03*
X1994125Y860225D02*
G54D10*
D03*
X2036988Y818156D02*
G54D10*
D03*
X2036988Y844350D02*
G54D10*
D03*
X2036988Y868956D02*
G54D10*
D03*
X2036988Y919756D02*
G54D10*
D03*
X2036988Y945156D02*
G54D10*
D03*
X1993331Y1031675D02*
G54D10*
D03*
X2036194Y1046756D02*
G54D10*
D03*
X1993331Y1059456D02*
G54D10*
D03*
X1993331Y1084856D02*
G54D10*
D03*
X2062388Y1072156D02*
G54D10*
D03*
X2062388Y1097556D02*
G54D10*
D03*
X2062388Y1122956D02*
G54D10*
D03*
X1992538Y1319012D02*
G54D10*
D03*
X1992538Y1289644D02*
G54D10*
D03*
X1992538Y1263450D02*
G54D10*
D03*
X1993331Y1133275D02*
G54D10*
D03*
X2102074Y1402357D02*
G54D10*
D03*
X2079850Y1402356D02*
G54D10*
D03*
X2121919Y1422994D02*
G54D10*
D03*
X2130650Y1300756D02*
G54D10*
D03*
X2132238Y1280912D02*
G54D10*
D03*
X2076675Y1275356D02*
G54D10*
D03*
X2067150Y1299962D02*
G54D10*
D03*
X2061594Y1249956D02*
G54D10*
D03*
X2061594Y1224556D02*
G54D10*
D03*
X2164781Y1226938D02*
G54D10*
D03*
X2158431Y1211856D02*
G54D10*
D03*
X2148112Y1199156D02*
G54D10*
D03*
X2137000Y1184869D02*
G54D10*
D03*
X2174306Y1168994D02*
G54D10*
D03*
X2168750Y1148356D02*
G54D10*
D03*
X2133031Y1168200D02*
G54D10*
D03*
X2127475Y1153119D02*
G54D10*
D03*
X2117950Y1143594D02*
G54D10*
D03*
X2107631Y1133275D02*
G54D10*
D03*
X2131444Y1102319D02*
G54D10*
D03*
X2175100Y849112D02*
G54D10*
D03*
X2133031Y657025D02*
G54D10*
D03*
X2133825Y538756D02*
G54D10*
D03*
X2171131Y442712D02*
G54D10*
D03*
X2094138Y468112D02*
G54D10*
D03*
X2094138Y508594D02*
G54D10*
D03*
X2083819Y493512D02*
G54D10*
D03*
X2068738Y508594D02*
G54D10*
D03*
X2068738Y483194D02*
G54D10*
D03*
X2099694Y410962D02*
G54D10*
D03*
X2129856Y387944D02*
G54D10*
D03*
X2121125Y304600D02*
G54D10*
D03*
X2050481Y305394D02*
G54D10*
D03*
X2013175Y317300D02*
G54D10*
D03*
X2006031Y245069D02*
G54D10*
D03*
X1947294Y295869D02*
G54D10*
D03*
X1945706Y316903D02*
G54D10*
D03*
X1890938Y330000D02*
G54D10*
D03*
X1881412Y346669D02*
G54D10*
D03*
X1886175Y366512D02*
G54D10*
D03*
X2027462Y410962D02*
G54D10*
D03*
X2006825Y410962D02*
G54D10*
D03*
X1964756Y410962D02*
G54D10*
D03*
X1921894Y475256D02*
G54D10*
D03*
X1977456Y544312D02*
G54D10*
D03*
X1936181Y538756D02*
G54D10*
D03*
X1886175Y529231D02*
G54D10*
D03*
X1875856Y509388D02*
G54D10*
D03*
X1855219Y530025D02*
G54D10*
D03*
X1855219Y463350D02*
G54D10*
D03*
X1825056Y437156D02*
G54D10*
D03*
X1732981Y676075D02*
G54D10*
D03*
X1732981Y702269D02*
G54D10*
D03*
X1732187Y655437D02*
G54D10*
D03*
X1758381Y604638D02*
G54D10*
D03*
X1753619Y522088D02*
G54D10*
D03*
X1732981Y529231D02*
G54D10*
D03*
X1732981Y575269D02*
G54D10*
D03*
X1651622Y559394D02*
G54D10*
D03*
X1631381Y551456D02*
G54D10*
D03*
X1631381Y529231D02*
G54D10*
D03*
X1631381Y509387D02*
G54D10*
D03*
X1631381Y656231D02*
G54D10*
D03*
X1630381Y635594D02*
G54D10*
D03*
X1595662Y625275D02*
G54D10*
D03*
X1579788Y625275D02*
G54D10*
D03*
X1575819Y605431D02*
G54D10*
D03*
X1559944Y599875D02*
G54D10*
D03*
X1555975Y630831D02*
G54D10*
D03*
X1604394Y475256D02*
G54D10*
D03*
X1734569Y453031D02*
G54D10*
D03*
X1517875Y1290438D02*
G54D10*
D03*
X1532956Y1284881D02*
G54D10*
D03*
X1989362Y1657150D02*
G54D10*
D03*
X2025875Y1666675D02*
G54D10*
D03*
X2152875Y1630163D02*
G54D10*
D03*
X2152875Y1610319D02*
G54D10*
D03*
X2160812Y1584125D02*
G54D10*
D03*
X2152081Y1554756D02*
G54D10*
D03*
X2082231Y1361875D02*
G54D10*
D03*
X1883794Y1148356D02*
G54D10*
D03*
X1828231Y995956D02*
G54D10*
D03*
X1832994Y910231D02*
G54D10*
D03*
X1916338Y76794D02*
G54D10*
D03*
X1982219Y76794D02*
G54D10*
D03*
X1732187Y955475D02*
G54D10*
D03*
X1732187Y1082475D02*
G54D10*
D03*
X1552006Y1327744D02*
G54D10*
D03*
X1543275Y1311075D02*
G54D10*
D03*
X1552800Y1290438D02*
G54D10*
D03*
X1553594Y1270594D02*
G54D10*
D03*
X1553594Y1163438D02*
G54D10*
D03*
X1553594Y1036437D02*
G54D10*
D03*
X1559150Y1011831D02*
G54D10*
D03*
X1553594Y991988D02*
G54D10*
D03*
X1554387Y909438D02*
G54D10*
D03*
X1559150Y874512D02*
G54D10*
D03*
X1578994Y874512D02*
G54D10*
D03*
X1554387Y782438D02*
G54D10*
D03*
X1554387Y655437D02*
G54D10*
D03*
X1554387Y529231D02*
G54D10*
D03*
X1441675Y453825D02*
G54D10*
D03*
X1474219Y476844D02*
G54D10*
D03*
X1450406Y478431D02*
G54D10*
D03*
X1435325Y474462D02*
G54D10*
D03*
X1406750Y459381D02*
G54D10*
D03*
X1389288Y455412D02*
G54D10*
D03*
X1398019Y478431D02*
G54D10*
D03*
X1465488Y501450D02*
G54D10*
D03*
X1439294Y491131D02*
G54D10*
D03*
X1412306Y491131D02*
G54D10*
D03*
X1552800Y1417438D02*
G54D10*
D03*
X788419Y97431D02*
G54D10*
D03*
X807469Y82350D02*
G54D10*
D03*
X828900Y82350D02*
G54D10*
D03*
X1005112Y76794D02*
G54D10*
D03*
X1005112Y118069D02*
G54D10*
D03*
X709044Y82350D02*
G54D10*
D03*
X590775Y82350D02*
G54D10*
D03*
X1374206Y455412D02*
G54D10*
D03*
X1359125Y455412D02*
G54D10*
D03*
X1344044Y455412D02*
G54D10*
D03*
X1325788Y451444D02*
G54D10*
D03*
X1309119Y454222D02*
G54D10*
D03*
X1294038Y465731D02*
G54D10*
D03*
X1281338Y473669D02*
G54D10*
D03*
X1374206Y470494D02*
G54D10*
D03*
X1392462Y514150D02*
G54D10*
D03*
X1386906Y532406D02*
G54D10*
D03*
X1428975Y533994D02*
G54D10*
D03*
X1433738Y549869D02*
G54D10*
D03*
X1447231Y559394D02*
G54D10*
D03*
X1440881Y573681D02*
G54D10*
D03*
X1467075Y573681D02*
G54D10*
D03*
X1444850Y590350D02*
G54D10*
D03*
X1458344Y599081D02*
G54D10*
D03*
X1351188Y555425D02*
G54D10*
D03*
X1310706Y553044D02*
G54D10*
D03*
X1310706Y573681D02*
G54D10*
D03*
X1310706Y588762D02*
G54D10*
D03*
X1260700Y573681D02*
G54D10*
D03*
X1264669Y591938D02*
G54D10*
D03*
X1294038Y631625D02*
G54D10*
D03*
X1273400Y637181D02*
G54D10*
D03*
X1245619Y555425D02*
G54D10*
D03*
X1182912Y564156D02*
G54D10*
D03*
X1182912Y514150D02*
G54D10*
D03*
X1112269Y514150D02*
G54D10*
D03*
X1214663Y641944D02*
G54D10*
D03*
X1180531Y634800D02*
G54D10*
D03*
X1360712Y1021356D02*
G54D10*
D03*
X1355156Y1067394D02*
G54D10*
D03*
X1335312Y1067394D02*
G54D10*
D03*
X1314675Y1067394D02*
G54D10*
D03*
X1253556Y1001512D02*
G54D10*
D03*
X1223394Y1020562D02*
G54D10*
D03*
X1223394Y1046756D02*
G54D10*
D03*
X1228156Y1067394D02*
G54D10*
D03*
X1381350Y686394D02*
G54D10*
D03*
X1116238Y1001512D02*
G54D10*
D03*
X1141638Y1001512D02*
G54D10*
D03*
X1141638Y1016594D02*
G54D10*
D03*
X1141638Y1031675D02*
G54D10*
D03*
X1161481Y1031675D02*
G54D10*
D03*
X1161481Y1047550D02*
G54D10*
D03*
X1161481Y1066600D02*
G54D10*
D03*
X1416275Y1168994D02*
G54D10*
D03*
X1395638Y1173756D02*
G54D10*
D03*
X1380556Y1173756D02*
G54D10*
D03*
X1365475Y1173756D02*
G54D10*
D03*
X1355156Y1127719D02*
G54D10*
D03*
X1340075Y1127719D02*
G54D10*
D03*
X1324994Y1127719D02*
G54D10*
D03*
X1309119Y1127719D02*
G54D10*
D03*
X1294038Y1127719D02*
G54D10*
D03*
X1293244Y1173756D02*
G54D10*
D03*
X1309119Y1182488D02*
G54D10*
D03*
X1325788Y1186456D02*
G54D10*
D03*
X1262288Y1198362D02*
G54D10*
D03*
X1258319Y1249956D02*
G54D10*
D03*
X1278956Y1249956D02*
G54D10*
D03*
X1325787Y1269006D02*
G54D10*
D03*
X1435325Y1565075D02*
G54D10*
D03*
X1435325Y1508719D02*
G54D10*
D03*
X1419450Y1600000D02*
G54D10*
D03*
X1394050Y1611112D02*
G54D10*
D03*
X1373412Y1611112D02*
G54D10*
D03*
X1394050Y1589681D02*
G54D10*
D03*
X1361506Y1565075D02*
G54D10*
D03*
X1366269Y1542056D02*
G54D10*
D03*
X1344838Y1549994D02*
G54D10*
D03*
X1328566Y1544041D02*
G54D10*
D03*
X1361506Y1518244D02*
G54D10*
D03*
X1374206Y1465062D02*
G54D10*
D03*
X1340075Y1469031D02*
G54D10*
D03*
X1323406Y1473000D02*
G54D10*
D03*
X1336900Y1443631D02*
G54D10*
D03*
X1287688Y1584919D02*
G54D10*
D03*
X1278162Y1565075D02*
G54D10*
D03*
X1262288Y1508719D02*
G54D10*
D03*
X1303562Y1477762D02*
G54D10*
D03*
X1309119Y1326156D02*
G54D10*
D03*
X1268638Y1295200D02*
G54D10*
D03*
X1263081Y1402356D02*
G54D10*
D03*
X1278162Y1420612D02*
G54D10*
D03*
X1394844Y1488081D02*
G54D10*
D03*
X1136875Y660994D02*
G54D10*
D03*
X1095600Y1117400D02*
G54D10*
D03*
X1039244Y1127719D02*
G54D10*
D03*
X1040038Y1102319D02*
G54D10*
D03*
X1054325Y1082475D02*
G54D10*
D03*
X1034481Y1066600D02*
G54D10*
D03*
X1055119Y1057075D02*
G54D10*
D03*
X1055119Y1041200D02*
G54D10*
D03*
X1055119Y1026119D02*
G54D10*
D03*
X1055119Y1005481D02*
G54D10*
D03*
X1029719Y1041994D02*
G54D10*
D03*
X1029719Y1026912D02*
G54D10*
D03*
X1029719Y1006275D02*
G54D10*
D03*
X1084488Y874513D02*
G54D10*
D03*
X1055119Y879275D02*
G54D10*
D03*
X1030512Y899912D02*
G54D10*
D03*
X1008288Y899119D02*
G54D10*
D03*
X995588Y885625D02*
G54D10*
D03*
X1089250Y785612D02*
G54D10*
D03*
X1055516Y807838D02*
G54D10*
D03*
X1095997Y742353D02*
G54D10*
D03*
X1045594Y722112D02*
G54D10*
D03*
X1076153Y696713D02*
G54D10*
D03*
X1106316Y670916D02*
G54D10*
D03*
X898750Y650675D02*
G54D10*
D03*
X903512Y676075D02*
G54D10*
D03*
X908275Y702269D02*
G54D10*
D03*
X908275Y741956D02*
G54D10*
D03*
X913038Y803075D02*
G54D10*
D03*
X918594Y828475D02*
G54D10*
D03*
X913038Y849112D02*
G54D10*
D03*
X926531Y869750D02*
G54D10*
D03*
X953312Y772119D02*
G54D10*
D03*
X973759Y990797D02*
G54D10*
D03*
X968997Y975716D02*
G54D10*
D03*
X963838Y960238D02*
G54D10*
D03*
X948359Y960238D02*
G54D10*
D03*
X938041Y945156D02*
G54D10*
D03*
X928119Y960238D02*
G54D10*
D03*
X918197Y944759D02*
G54D10*
D03*
X841203Y892372D02*
G54D10*
D03*
X753891Y884831D02*
G54D10*
D03*
X734047Y897531D02*
G54D10*
D03*
X714600Y889594D02*
G54D10*
D03*
X699122Y899516D02*
G54D10*
D03*
X715394Y823712D02*
G54D10*
D03*
X715394Y843556D02*
G54D10*
D03*
X709838Y777675D02*
G54D10*
D03*
X709838Y752275D02*
G54D10*
D03*
X664594Y741956D02*
G54D10*
D03*
X663800Y767753D02*
G54D10*
D03*
X663800Y793153D02*
G54D10*
D03*
X663800Y818553D02*
G54D10*
D03*
X663800Y843953D02*
G54D10*
D03*
X613000Y843556D02*
G54D10*
D03*
X613000Y818156D02*
G54D10*
D03*
X613000Y792756D02*
G54D10*
D03*
X557438Y777675D02*
G54D10*
D03*
X557438Y803075D02*
G54D10*
D03*
X557438Y828475D02*
G54D10*
D03*
X506638Y827681D02*
G54D10*
D03*
X486000Y827681D02*
G54D10*
D03*
X465760Y827681D02*
G54D10*
D03*
X1214266Y1191219D02*
G54D10*
D03*
X1203550Y1171375D02*
G54D10*
D03*
X1191247Y1178916D02*
G54D10*
D03*
X1178150Y1168200D02*
G54D10*
D03*
X1165450Y1178122D02*
G54D10*
D03*
X1152750Y1168994D02*
G54D10*
D03*
X1140050Y1179312D02*
G54D10*
D03*
X1128541Y1167406D02*
G54D10*
D03*
X1114650Y1176138D02*
G54D10*
D03*
X1101950Y1168597D02*
G54D10*
D03*
X1079725Y1168200D02*
G54D10*
D03*
X1039641Y1165819D02*
G54D10*
D03*
X1190850Y1291231D02*
G54D10*
D03*
X1171800Y1286072D02*
G54D10*
D03*
X1148781Y1283691D02*
G54D10*
D03*
X1134494Y1291231D02*
G54D10*
D03*
X1125366Y1278928D02*
G54D10*
D03*
X1107109Y1291231D02*
G54D10*
D03*
X1095203Y1280119D02*
G54D10*
D03*
X1082106Y1290041D02*
G54D10*
D03*
X1069406Y1280119D02*
G54D10*
D03*
X1058294Y1259481D02*
G54D10*
D03*
X1074963Y1249956D02*
G54D10*
D03*
X1059484Y1296788D02*
G54D10*
D03*
X1030512Y1302741D02*
G54D10*
D03*
X1030512Y1284881D02*
G54D10*
D03*
X1017416Y1295200D02*
G54D10*
D03*
X1004716Y1284881D02*
G54D10*
D03*
X989238Y1284881D02*
G54D10*
D03*
X974156Y1284881D02*
G54D10*
D03*
X952725Y1271784D02*
G54D10*
D03*
X999953Y1226541D02*
G54D10*
D03*
X1232522Y1623416D02*
G54D10*
D03*
X1221806Y1559519D02*
G54D10*
D03*
X1221806Y1534119D02*
G54D10*
D03*
X1191644Y1574600D02*
G54D10*
D03*
X1221806Y1507925D02*
G54D10*
D03*
X1221806Y1482525D02*
G54D10*
D03*
X1221806Y1453156D02*
G54D10*
D03*
X1248000Y1442044D02*
G54D10*
D03*
X1222600Y1426962D02*
G54D10*
D03*
X1222600Y1402356D02*
G54D10*
D03*
X1222600Y1376162D02*
G54D10*
D03*
X1217838Y1335681D02*
G54D10*
D03*
X1248000Y1310281D02*
G54D10*
D03*
X1192041Y1315441D02*
G54D10*
D03*
X1160688Y1544438D02*
G54D10*
D03*
X1165847Y1515862D02*
G54D10*
D03*
X1119016Y1551184D02*
G54D10*
D03*
X1120206Y1516259D02*
G54D10*
D03*
X1068612Y1515862D02*
G54D10*
D03*
X1043212Y1538484D02*
G54D10*
D03*
X1030116Y1551581D02*
G54D10*
D03*
X1017416Y1538087D02*
G54D10*
D03*
X1004716Y1551581D02*
G54D10*
D03*
X992412Y1538881D02*
G54D10*
D03*
X982094Y1551184D02*
G54D10*
D03*
X970188Y1541262D02*
G54D10*
D03*
X979712Y1528959D02*
G54D10*
D03*
X969791Y1516656D02*
G54D10*
D03*
X982888Y1503559D02*
G54D10*
D03*
X969791Y1490462D02*
G54D10*
D03*
X982491Y1477762D02*
G54D10*
D03*
X970188Y1465459D02*
G54D10*
D03*
X982491Y1453156D02*
G54D10*
D03*
X993206Y1437678D02*
G54D10*
D03*
X971378Y1427359D02*
G54D10*
D03*
X982491Y1414659D02*
G54D10*
D03*
X982491Y1389259D02*
G54D10*
D03*
X970584Y1401959D02*
G54D10*
D03*
X970188Y1376559D02*
G54D10*
D03*
X983284Y1364256D02*
G54D10*
D03*
X1069803Y1355922D02*
G54D10*
D03*
X1084884Y1366637D02*
G54D10*
D03*
X1048769Y1366638D02*
G54D10*
D03*
X1048769Y1473000D02*
G54D10*
D03*
X1120206Y1427756D02*
G54D10*
D03*
X1166244Y1361081D02*
G54D10*
D03*
X1166244Y1401562D02*
G54D10*
D03*
X1161481Y1452362D02*
G54D10*
D03*
X816200Y1087238D02*
G54D10*
D03*
X816200Y1109462D02*
G54D10*
D03*
X842394Y1026119D02*
G54D10*
D03*
X841600Y1188044D02*
G54D10*
D03*
X841600Y1203125D02*
G54D10*
D03*
X846362Y1234875D02*
G54D10*
D03*
X795562Y1205506D02*
G54D10*
D03*
X746350Y1186456D02*
G54D10*
D03*
X755081Y1234081D02*
G54D10*
D03*
X755081Y1249956D02*
G54D10*
D03*
X779688Y1244400D02*
G54D10*
D03*
X779688Y1259481D02*
G54D10*
D03*
X779688Y1275356D02*
G54D10*
D03*
X794769Y1280119D02*
G54D10*
D03*
X795562Y1306312D02*
G54D10*
D03*
X840806Y1278531D02*
G54D10*
D03*
X830488Y1326156D02*
G54D10*
D03*
X845966Y1335284D02*
G54D10*
D03*
X835044Y1351763D02*
G54D10*
D03*
X886844Y1389656D02*
G54D10*
D03*
X881288Y1407119D02*
G54D10*
D03*
X860650Y1407119D02*
G54D10*
D03*
X860650Y1427756D02*
G54D10*
D03*
X917006Y1473000D02*
G54D10*
D03*
X901131Y1482525D02*
G54D10*
D03*
X901131Y1498400D02*
G54D10*
D03*
X901131Y1513481D02*
G54D10*
D03*
X901131Y1528562D02*
G54D10*
D03*
X890019Y1544438D02*
G54D10*
D03*
X890019Y1559519D02*
G54D10*
D03*
X890019Y1580156D02*
G54D10*
D03*
X875731Y1600000D02*
G54D10*
D03*
X855094Y1605556D02*
G54D10*
D03*
X854300Y1625400D02*
G54D10*
D03*
X854300Y1640481D02*
G54D10*
D03*
X834456Y1584919D02*
G54D10*
D03*
X810644Y1543644D02*
G54D10*
D03*
X769369Y1566662D02*
G54D10*
D03*
X949153Y1567456D02*
G54D10*
D03*
X942009Y1579759D02*
G54D10*
D03*
X1049959Y949919D02*
G54D10*
D03*
X937644Y1320600D02*
G54D10*
D03*
X705869Y219669D02*
G54D10*
D03*
X757462Y219669D02*
G54D10*
D03*
X782069Y224431D02*
G54D10*
D03*
X805088Y222844D02*
G54D10*
D03*
X790006Y245069D02*
G54D10*
D03*
X770559Y254594D02*
G54D10*
D03*
X782069Y265309D02*
G54D10*
D03*
X763019Y275231D02*
G54D10*
D03*
X782069Y285550D02*
G54D10*
D03*
X652291Y310950D02*
G54D10*
D03*
X763812Y380403D02*
G54D10*
D03*
X705472Y341509D02*
G54D10*
D03*
X695153Y402231D02*
G54D10*
D03*
X715791Y424853D02*
G54D10*
D03*
X751112Y462953D02*
G54D10*
D03*
X461790Y417709D02*
G54D10*
D03*
X436390Y432791D02*
G54D10*
D03*
X548309Y462556D02*
G54D10*
D03*
X344712Y462953D02*
G54D10*
D03*
X491159Y868956D02*
G54D10*
D03*
X471316Y868956D02*
G54D10*
D03*
X409800Y843556D02*
G54D10*
D03*
X409800Y817759D02*
G54D10*
D03*
X419722Y889197D02*
G54D10*
D03*
X399878Y899119D02*
G54D10*
D03*
X378844Y909834D02*
G54D10*
D03*
X528069Y198634D02*
G54D10*
D03*
X750319Y975319D02*
G54D10*
D03*
X729681Y975319D02*
G54D10*
D03*
X683644Y975319D02*
G54D10*
D03*
X759844Y1021356D02*
G54D10*
D03*
X767781Y1039612D02*
G54D10*
D03*
X749525Y1051519D02*
G54D10*
D03*
X678881Y1059456D02*
G54D10*
D03*
X678881Y1084062D02*
G54D10*
D03*
X678881Y1109462D02*
G54D10*
D03*
X744762Y1095175D02*
G54D10*
D03*
X732062Y1371400D02*
G54D10*
D03*
X757462Y1371400D02*
G54D10*
D03*
X728888Y1320600D02*
G54D10*
D03*
X672531Y1290438D02*
G54D10*
D03*
X637606Y1280119D02*
G54D10*
D03*
X652688Y1311075D02*
G54D10*
D03*
X632050Y1311075D02*
G54D10*
D03*
X693963Y1234081D02*
G54D10*
D03*
X663006Y1229319D02*
G54D10*
D03*
X678088Y1184075D02*
G54D10*
D03*
X632844Y1234081D02*
G54D10*
D03*
X814612Y1384100D02*
G54D26*
D03*
X814612Y1503163D02*
G54D26*
D03*
X770162Y1415850D02*
G54D10*
D03*
X774131Y1432519D02*
G54D10*
D03*
X703488Y1350762D02*
G54D10*
D03*
X693169Y1391244D02*
G54D10*
D03*
X692375Y1442044D02*
G54D10*
D03*
X704281Y1454744D02*
G54D10*
D03*
X692375Y1472206D02*
G54D10*
D03*
X697138Y1569044D02*
G54D10*
D03*
X767781Y1640481D02*
G54D10*
D03*
X649512Y1361081D02*
G54D10*
D03*
X626494Y1334888D02*
G54D10*
D03*
X601888Y1334888D02*
G54D10*
D03*
X576488Y1325362D02*
G54D10*
D03*
X546325Y1234875D02*
G54D10*
D03*
X536006Y1249162D02*
G54D10*
D03*
X546325Y1265038D02*
G54D10*
D03*
X479650Y1198363D02*
G54D10*
D03*
X421706Y1198363D02*
G54D10*
D03*
X383606Y1193600D02*
G54D10*
D03*
X358206Y1193600D02*
G54D10*
D03*
X332012Y1193600D02*
G54D10*
D03*
X311375Y1193600D02*
G54D10*
D03*
X293912Y1193600D02*
G54D10*
D03*
X286769Y1178519D02*
G54D10*
D03*
X332806Y1163438D02*
G54D10*
D03*
X374081Y1153119D02*
G54D10*
D03*
X404244Y1153119D02*
G54D10*
D03*
X373288Y1132481D02*
G54D10*
D03*
X403450Y1132481D02*
G54D10*
D03*
X374081Y1112638D02*
G54D10*
D03*
X403450Y1112638D02*
G54D10*
D03*
X373288Y1092000D02*
G54D10*
D03*
X404244Y1092000D02*
G54D10*
D03*
X373288Y1072156D02*
G54D10*
D03*
X404244Y1072156D02*
G54D10*
D03*
X572519Y1072950D02*
G54D10*
D03*
X501081Y1072156D02*
G54D10*
D03*
X373288Y1052312D02*
G54D10*
D03*
X404244Y1052312D02*
G54D10*
D03*
X429644Y1046756D02*
G54D10*
D03*
X404244Y1031675D02*
G54D10*
D03*
X429644Y1021356D02*
G54D10*
D03*
X460600Y1026119D02*
G54D10*
D03*
X465362Y1046756D02*
G54D10*
D03*
X481238Y1021356D02*
G54D10*
D03*
X460600Y1006275D02*
G54D10*
D03*
X480444Y1000719D02*
G54D10*
D03*
X501875Y995956D02*
G54D10*
D03*
X239938Y1052709D02*
G54D10*
D03*
X312963Y1046756D02*
G54D10*
D03*
X344919Y970556D02*
G54D10*
D03*
X414562Y970556D02*
G54D10*
D03*
X461394Y970556D02*
G54D10*
D03*
X479650Y970556D02*
G54D10*
D03*
X501081Y975319D02*
G54D10*
D03*
X526481Y965794D02*
G54D10*
D03*
X551881Y954681D02*
G54D10*
D03*
X266925Y873719D02*
G54D10*
D03*
X262163Y965000D02*
G54D10*
D03*
X206600Y426838D02*
G54D10*
D03*
X190725Y453825D02*
G54D10*
D03*
X176438Y463350D02*
G54D10*
D03*
X221681Y396675D02*
G54D10*
D03*
X176438Y427631D02*
G54D10*
D03*
X219697Y335953D02*
G54D10*
D03*
X296294Y367306D02*
G54D10*
D03*
X380431Y323650D02*
G54D10*
D03*
X512987Y323650D02*
G54D10*
D03*
X538388Y386356D02*
G54D10*
D03*
X409800Y792756D02*
G54D10*
D03*
X282800Y691156D02*
G54D10*
D03*
X278038Y640356D02*
G54D10*
D03*
X278038Y614956D02*
G54D10*
D03*
X278038Y589556D02*
G54D10*
D03*
X268512Y564156D02*
G54D10*
D03*
X288356Y549075D02*
G54D10*
D03*
X273275Y539550D02*
G54D10*
D03*
X258194Y523675D02*
G54D10*
D03*
X257797Y498275D02*
G54D10*
D03*
X370113Y203794D02*
G54D10*
D03*
X443535Y225622D02*
G54D10*
D03*
X524894Y225622D02*
G54D10*
D03*
X293912Y203794D02*
G54D10*
D03*
X263353Y183950D02*
G54D10*
D03*
X283594Y143469D02*
G54D10*
D03*
X207394Y203794D02*
G54D10*
D03*
X263353Y91875D02*
G54D10*
D03*
X78806Y147834D02*
G54D10*
D03*
X78806Y177600D02*
G54D10*
D03*
X946772Y310553D02*
G54D10*
D03*
X415356Y1239638D02*
G54D10*
D03*
X409006Y1265037D02*
G54D10*
D03*
X337569Y1264244D02*
G54D10*
D03*
X510606Y1274562D02*
G54D10*
D03*
X510606Y1299962D02*
G54D10*
D03*
X536006Y1299962D02*
G54D10*
D03*
X180010Y1315441D02*
G54D10*
D03*
X138734Y1397197D02*
G54D10*
D03*
X83172Y1432916D02*
G54D10*
D03*
X116112Y1427359D02*
G54D10*
D03*
X139131Y1427756D02*
G54D10*
D03*
X192312Y1401562D02*
G54D10*
D03*
X217712Y1465062D02*
G54D10*
D03*
X243112Y1465062D02*
G54D10*
D03*
X260575Y1477762D02*
G54D10*
D03*
X309788Y1528562D02*
G54D10*
D03*
X255019Y1541262D02*
G54D10*
D03*
X229619Y1541262D02*
G54D10*
D03*
X204219Y1556344D02*
G54D10*
D03*
X255019Y1566662D02*
G54D10*
D03*
X255019Y1592062D02*
G54D10*
D03*
X229619Y1592062D02*
G54D10*
D03*
X128019Y1580156D02*
G54D10*
D03*
X102619Y1589681D02*
G54D10*
D03*
X83569Y1533325D02*
G54D10*
D03*
X128812Y1492844D02*
G54D10*
D03*
X151038Y1635719D02*
G54D10*
D03*
X128019Y1642862D02*
G54D10*
D03*
X128019Y1668262D02*
G54D10*
D03*
X293119Y1630162D02*
G54D10*
D03*
X331219Y1592062D02*
G54D10*
D03*
X351856Y1602381D02*
G54D10*
D03*
X332012Y1553962D02*
G54D10*
D03*
X360588Y1539381D02*
G54D10*
D03*
X433612Y1515862D02*
G54D10*
D03*
X433612Y1541262D02*
G54D10*
D03*
X413769Y1488081D02*
G54D10*
D03*
X420912Y1465062D02*
G54D10*
D03*
X446312Y1465062D02*
G54D10*
D03*
X471712Y1465062D02*
G54D10*
D03*
X447106Y1591269D02*
G54D10*
D03*
X428056Y1645244D02*
G54D10*
D03*
X463775Y1645244D02*
G54D10*
D03*
X419325Y1620638D02*
G54D10*
D03*
X524894Y1605556D02*
G54D10*
D03*
X555850Y1538881D02*
G54D10*
D03*
X615381Y1610319D02*
G54D10*
D03*
X597919Y1617462D02*
G54D10*
D03*
X597919Y1541262D02*
G54D10*
D03*
X597919Y1515862D02*
G54D10*
D03*
X605856Y1483319D02*
G54D10*
D03*
X610619Y1453156D02*
G54D10*
D03*
X611412Y1426962D02*
G54D10*
D03*
X598712Y1401562D02*
G54D10*
D03*
X598712Y1376162D02*
G54D10*
D03*
X525688Y1411881D02*
G54D10*
D03*
X505844Y1389259D02*
G54D10*
D03*
X490366Y1366241D02*
G54D10*
D03*
X434010Y1383703D02*
G54D10*
D03*
X434010Y1401959D02*
G54D10*
D03*
X409006Y1401959D02*
G54D10*
D03*
X382812Y1401562D02*
G54D10*
D03*
X307406Y1437281D02*
G54D10*
D03*
X307406Y1402356D02*
G54D10*
D03*
X204219Y1655562D02*
G54D10*
D03*
X509812Y1507925D02*
G54D10*
D03*
X955106Y463350D02*
G54D10*
D03*
X1483156Y1567956D02*
G54D10*
D03*
X1571262Y1567956D02*
G54D10*
D03*
X1571262Y1514775D02*
G54D10*
D03*
X1482656Y1523006D02*
G54D10*
D03*
X1610156Y1567956D02*
G54D10*
D03*
X1610156Y1514775D02*
G54D10*
D03*
X932829Y773261D02*
G54D27*
D03*
X901654Y773261D02*
G54D27*
D03*
X1131266Y767705D02*
G54D27*
D03*
X1100091Y767705D02*
G54D27*
D03*
X1213816Y710555D02*
G54D27*
D03*
X1182641Y710555D02*
G54D27*
D03*
X1213816Y741908D02*
G54D27*
D03*
X1182641Y741908D02*
G54D27*
D03*
X1213022Y773658D02*
G54D27*
D03*
X1181848Y773658D02*
G54D27*
D03*
X1213022Y805408D02*
G54D27*
D03*
X1181848Y805408D02*
G54D27*
D03*
X1213022Y837079D02*
G54D27*
D03*
X1181848Y837079D02*
G54D27*
D03*
X1213022Y869226D02*
G54D27*
D03*
X1181848Y869226D02*
G54D27*
D03*
X1213022Y900976D02*
G54D27*
D03*
X1181848Y900976D02*
G54D27*
D03*
X1290016Y837476D02*
G54D27*
D03*
X1258841Y837476D02*
G54D27*
D03*
X1290016Y900976D02*
G54D27*
D03*
X1258841Y900976D02*
G54D27*
D03*
X1366216Y803344D02*
G54D27*
D03*
X1335041Y803344D02*
G54D27*
D03*
X1366216Y837476D02*
G54D27*
D03*
X1335041Y837476D02*
G54D27*
D03*
X1366216Y869226D02*
G54D27*
D03*
X1335041Y869226D02*
G54D27*
D03*
X1366216Y900976D02*
G54D27*
D03*
X1335041Y900976D02*
G54D27*
D03*
X1442416Y913676D02*
G54D27*
D03*
X1411241Y913676D02*
G54D27*
D03*
X1442416Y950188D02*
G54D27*
D03*
X1411241Y950188D02*
G54D27*
D03*
X1443210Y983526D02*
G54D27*
D03*
X1412035Y983526D02*
G54D27*
D03*
X1290016Y741432D02*
G54D27*
D03*
X1258841Y741432D02*
G54D27*
D03*
X1518616Y803344D02*
G54D27*
D03*
X1487441Y803344D02*
G54D27*
D03*
X1518616Y848588D02*
G54D27*
D03*
X1487441Y848588D02*
G54D27*
D03*
X1138410Y1363732D02*
G54D27*
D03*
X1107235Y1363732D02*
G54D27*
D03*
X1138410Y1401832D02*
G54D27*
D03*
X1107235Y1401832D02*
G54D27*
D03*
X844722Y1046232D02*
G54D27*
D03*
X813548Y1046232D02*
G54D27*
D03*
X794716Y1078776D02*
G54D27*
D03*
X763541Y1078776D02*
G54D27*
D03*
X794716Y1109732D02*
G54D27*
D03*
X763541Y1109732D02*
G54D27*
D03*
X730422Y1077982D02*
G54D27*
D03*
X699248Y1077982D02*
G54D27*
D03*
X909016Y1122432D02*
G54D27*
D03*
X877841Y1122432D02*
G54D27*
D03*
X909016Y1027182D02*
G54D27*
D03*
X877841Y1027182D02*
G54D27*
D03*
X730422Y1046232D02*
G54D27*
D03*
X699248Y1046232D02*
G54D27*
D03*
X908619Y1198632D02*
G54D27*
D03*
X877444Y1198632D02*
G54D27*
D03*
X794716Y1185932D02*
G54D27*
D03*
X763541Y1185932D02*
G54D27*
D03*
X730422Y1185932D02*
G54D27*
D03*
X699248Y1185932D02*
G54D27*
D03*
X756616Y1350635D02*
G54D27*
D03*
X725441Y1350635D02*
G54D27*
D03*
X820116Y1350635D02*
G54D27*
D03*
X788941Y1350635D02*
G54D27*
D03*
X756616Y1414135D02*
G54D27*
D03*
X725441Y1414135D02*
G54D27*
D03*
X756616Y1452235D02*
G54D27*
D03*
X725441Y1452235D02*
G54D27*
D03*
X756616Y1489938D02*
G54D27*
D03*
X725441Y1489938D02*
G54D27*
D03*
X820910Y1476444D02*
G54D27*
D03*
X789735Y1476444D02*
G54D27*
D03*
X667716Y1489938D02*
G54D27*
D03*
X636541Y1489938D02*
G54D27*
D03*
X667716Y1452632D02*
G54D27*
D03*
X636541Y1452632D02*
G54D27*
D03*
X578419Y1452235D02*
G54D27*
D03*
X547244Y1452235D02*
G54D27*
D03*
X490313Y1490335D02*
G54D27*
D03*
X459138Y1490335D02*
G54D27*
D03*
X489519Y1426835D02*
G54D27*
D03*
X458344Y1426835D02*
G54D27*
D03*
X489916Y1388735D02*
G54D27*
D03*
X458741Y1388735D02*
G54D27*
D03*
X431972Y1427232D02*
G54D27*
D03*
X400798Y1427232D02*
G54D27*
D03*
X374822Y1427232D02*
G54D27*
D03*
X343648Y1427232D02*
G54D27*
D03*
X375616Y1464935D02*
G54D27*
D03*
X344441Y1464935D02*
G54D27*
D03*
X414113Y1515735D02*
G54D27*
D03*
X382938Y1515735D02*
G54D27*
D03*
X414113Y1541135D02*
G54D27*
D03*
X382938Y1541135D02*
G54D27*
D03*
X414113Y1566932D02*
G54D27*
D03*
X382938Y1566932D02*
G54D27*
D03*
X248220Y1389132D02*
G54D27*
D03*
X217044Y1389132D02*
G54D27*
D03*
X248220Y1414532D02*
G54D27*
D03*
X217044Y1414532D02*
G54D27*
D03*
X185116Y1452235D02*
G54D27*
D03*
X153941Y1452235D02*
G54D27*
D03*
X185116Y1478429D02*
G54D27*
D03*
X153941Y1478429D02*
G54D27*
D03*
X185116Y1503432D02*
G54D27*
D03*
X153941Y1503432D02*
G54D27*
D03*
X121220Y1401832D02*
G54D27*
D03*
X90044Y1401832D02*
G54D27*
D03*
X121220Y1452632D02*
G54D27*
D03*
X90044Y1452632D02*
G54D27*
D03*
X262110Y1693932D02*
G54D27*
D03*
X230935Y1693932D02*
G54D27*
D03*
X262110Y1630432D02*
G54D27*
D03*
X230935Y1630432D02*
G54D27*
D03*
X185910Y1693932D02*
G54D27*
D03*
X154735Y1693932D02*
G54D27*
D03*
X185910Y1579632D02*
G54D27*
D03*
X154735Y1579632D02*
G54D27*
D03*
X235520Y1319282D02*
G54D27*
D03*
X204344Y1319282D02*
G54D27*
D03*
X235122Y1285151D02*
G54D27*
D03*
X203948Y1285151D02*
G54D27*
D03*
X235122Y1230382D02*
G54D27*
D03*
X203948Y1230382D02*
G54D27*
D03*
X234726Y1179582D02*
G54D27*
D03*
X203551Y1179582D02*
G54D27*
D03*
X311322Y1262132D02*
G54D27*
D03*
X280148Y1262132D02*
G54D27*
D03*
X388316Y1262132D02*
G54D27*
D03*
X357141Y1262132D02*
G54D27*
D03*
X463722Y1262132D02*
G54D27*
D03*
X432548Y1262132D02*
G54D27*
D03*
X227979Y944632D02*
G54D27*
D03*
X196804Y944632D02*
G54D27*
D03*
X292272Y944632D02*
G54D27*
D03*
X261097Y944632D02*
G54D27*
D03*
X323229Y875179D02*
G54D27*
D03*
X292054Y875179D02*
G54D27*
D03*
X323229Y843826D02*
G54D27*
D03*
X292054Y843826D02*
G54D27*
D03*
X323626Y812076D02*
G54D27*
D03*
X292451Y812076D02*
G54D27*
D03*
X156938Y462429D02*
G54D27*
D03*
X125763Y462429D02*
G54D27*
D03*
X157732Y424329D02*
G54D27*
D03*
X126557Y424329D02*
G54D27*
D03*
X272032Y367576D02*
G54D27*
D03*
X240857Y367576D02*
G54D27*
D03*
X272429Y336620D02*
G54D27*
D03*
X241254Y336620D02*
G54D27*
D03*
X429591Y323126D02*
G54D27*
D03*
X398416Y323126D02*
G54D27*
D03*
X490710Y323126D02*
G54D27*
D03*
X459535Y323126D02*
G54D27*
D03*
X347835Y202476D02*
G54D27*
D03*
X316660Y202476D02*
G54D27*
D03*
X1290016Y1059726D02*
G54D27*
D03*
X1258841Y1059726D02*
G54D27*
D03*
X1290016Y1027976D02*
G54D27*
D03*
X1258841Y1027976D02*
G54D27*
D03*
X1513854Y1389926D02*
G54D27*
D03*
X1482679Y1389926D02*
G54D27*
D03*
X1709116Y818426D02*
G54D27*
D03*
X1677941Y818426D02*
G54D27*
D03*
X1709116Y1072426D02*
G54D27*
D03*
X1677941Y1072426D02*
G54D27*
D03*
X1875804Y1351826D02*
G54D27*
D03*
X1844629Y1351826D02*
G54D27*
D03*
X1875804Y1319282D02*
G54D27*
D03*
X1844629Y1319282D02*
G54D27*
D03*
X1875804Y1288326D02*
G54D27*
D03*
X1844629Y1288326D02*
G54D27*
D03*
X1875804Y1256576D02*
G54D27*
D03*
X1844629Y1256576D02*
G54D27*
D03*
X1874216Y1123226D02*
G54D27*
D03*
X1843041Y1123226D02*
G54D27*
D03*
X1874216Y1091476D02*
G54D27*
D03*
X1843041Y1091476D02*
G54D27*
D03*
X1874216Y1059726D02*
G54D27*
D03*
X1843041Y1059726D02*
G54D27*
D03*
X1874216Y1027976D02*
G54D27*
D03*
X1843041Y1027976D02*
G54D27*
D03*
X1874216Y869623D02*
G54D27*
D03*
X1843041Y869623D02*
G54D27*
D03*
X1874216Y837873D02*
G54D27*
D03*
X1843041Y837873D02*
G54D27*
D03*
X1874216Y806123D02*
G54D27*
D03*
X1843041Y806123D02*
G54D27*
D03*
X1874216Y774373D02*
G54D27*
D03*
X1843041Y774373D02*
G54D27*
D03*
X1874216Y660470D02*
G54D27*
D03*
X1843041Y660470D02*
G54D27*
D03*
X1874216Y628720D02*
G54D27*
D03*
X1843041Y628720D02*
G54D27*
D03*
X1874216Y596970D02*
G54D27*
D03*
X1843041Y596970D02*
G54D27*
D03*
X1874216Y565220D02*
G54D27*
D03*
X1843041Y565220D02*
G54D27*
D03*
X1932954Y1465332D02*
G54D27*
D03*
X1901779Y1465332D02*
G54D27*
D03*
X1932954Y1491129D02*
G54D27*
D03*
X1901779Y1491129D02*
G54D27*
D03*
X1869454Y1516926D02*
G54D27*
D03*
X1838279Y1516926D02*
G54D27*
D03*
X1932954Y1542326D02*
G54D27*
D03*
X1901779Y1542326D02*
G54D27*
D03*
X1933748Y1605826D02*
G54D27*
D03*
X1902572Y1605826D02*
G54D27*
D03*
X1990501Y1605826D02*
G54D27*
D03*
X1959326Y1605826D02*
G54D27*
D03*
X2047254Y1605826D02*
G54D27*
D03*
X2016079Y1605826D02*
G54D27*
D03*
X2129407Y1377226D02*
G54D27*
D03*
X2098232Y1377226D02*
G54D27*
D03*
X2167110Y1447076D02*
G54D27*
D03*
X2135935Y1447076D02*
G54D27*
D03*
X217316Y1503559D02*
G54D28*
D03*
X248669Y1503559D02*
G54D28*
D03*
X280816Y1503559D02*
G54D28*
D03*
X312169Y1503559D02*
G54D28*
D03*
X280816Y1478159D02*
G54D28*
D03*
X312169Y1478159D02*
G54D28*
D03*
X216522Y1440456D02*
G54D28*
D03*
X247875Y1440456D02*
G54D28*
D03*
X154610Y1618256D02*
G54D28*
D03*
X185963Y1618256D02*
G54D28*
D03*
X154213Y1655959D02*
G54D28*
D03*
X185566Y1655959D02*
G54D28*
D03*
X280816Y1579759D02*
G54D28*
D03*
X312169Y1579759D02*
G54D28*
D03*
X458616Y1516259D02*
G54D28*
D03*
X489969Y1516259D02*
G54D28*
D03*
X547516Y1490859D02*
G54D28*
D03*
X578869Y1490859D02*
G54D28*
D03*
X547516Y1516259D02*
G54D28*
D03*
X578869Y1516259D02*
G54D28*
D03*
X546722Y1414659D02*
G54D28*
D03*
X578075Y1414659D02*
G54D28*
D03*
X636019Y1427359D02*
G54D28*
D03*
X667372Y1427359D02*
G54D28*
D03*
X635622Y1389259D02*
G54D28*
D03*
X666975Y1389259D02*
G54D28*
D03*
X789213Y1450378D02*
G54D28*
D03*
X820566Y1450378D02*
G54D28*
D03*
X788816Y1567059D02*
G54D28*
D03*
X820169Y1567059D02*
G54D28*
D03*
X722935Y1567059D02*
G54D28*
D03*
X754288Y1567059D02*
G54D28*
D03*
X636416Y1605159D02*
G54D28*
D03*
X667769Y1605159D02*
G54D28*
D03*
X547516Y1605159D02*
G54D28*
D03*
X578869Y1605159D02*
G54D28*
D03*
X459410Y1605159D02*
G54D28*
D03*
X490763Y1605159D02*
G54D28*
D03*
X330822Y1211856D02*
G54D28*
D03*
X362175Y1211856D02*
G54D28*
D03*
X260178Y1049534D02*
G54D28*
D03*
X291532Y1049534D02*
G54D28*
D03*
X520925Y1072156D02*
G54D28*
D03*
X552278Y1072156D02*
G54D28*
D03*
X362572Y973334D02*
G54D28*
D03*
X393925Y973334D02*
G54D28*
D03*
X699122Y1109859D02*
G54D28*
D03*
X730475Y1109859D02*
G54D28*
D03*
X877716Y1090809D02*
G54D28*
D03*
X909069Y1090809D02*
G54D28*
D03*
X877716Y1059059D02*
G54D28*
D03*
X909069Y1059059D02*
G54D28*
D03*
X721347Y1643259D02*
G54D28*
D03*
X752700Y1643259D02*
G54D28*
D03*
X789610Y1643259D02*
G54D28*
D03*
X820963Y1643259D02*
G54D28*
D03*
X227634Y146246D02*
G54D28*
D03*
X258988Y146246D02*
G54D28*
D03*
X227634Y202603D02*
G54D28*
D03*
X258988Y202603D02*
G54D28*
D03*
X151434Y202603D02*
G54D28*
D03*
X182788Y202603D02*
G54D28*
D03*
X74441Y202603D02*
G54D28*
D03*
X105794Y202603D02*
G54D28*
D03*
X462982Y226018D02*
G54D28*
D03*
X494335Y226018D02*
G54D28*
D03*
X240334Y399453D02*
G54D28*
D03*
X271688Y399453D02*
G54D28*
D03*
X291134Y463350D02*
G54D28*
D03*
X322488Y463350D02*
G54D28*
D03*
X495128Y462953D02*
G54D28*
D03*
X526482Y462953D02*
G54D28*
D03*
X697932Y462953D02*
G54D28*
D03*
X729285Y462953D02*
G54D28*
D03*
X901528Y462953D02*
G54D28*
D03*
X932882Y462953D02*
G54D28*
D03*
X1130922Y513753D02*
G54D28*
D03*
X1162275Y513753D02*
G54D28*
D03*
X1130922Y564553D02*
G54D28*
D03*
X1162275Y564553D02*
G54D28*
D03*
X1410322Y514150D02*
G54D28*
D03*
X1441675Y514150D02*
G54D28*
D03*
X1270622Y678853D02*
G54D28*
D03*
X1301975Y678853D02*
G54D28*
D03*
X1270622Y653453D02*
G54D28*
D03*
X1301975Y653453D02*
G54D28*
D03*
X1576216Y526850D02*
G54D28*
D03*
X1607569Y526850D02*
G54D28*
D03*
X1677022Y527247D02*
G54D28*
D03*
X1708375Y527247D02*
G54D28*
D03*
X1677419Y653850D02*
G54D28*
D03*
X1708772Y653850D02*
G54D28*
D03*
X1576216Y653850D02*
G54D28*
D03*
X1607569Y653850D02*
G54D28*
D03*
X1099966Y875703D02*
G54D28*
D03*
X1131319Y875703D02*
G54D28*
D03*
X1258716Y977303D02*
G54D28*
D03*
X1290069Y977303D02*
G54D28*
D03*
X1258716Y951506D02*
G54D28*
D03*
X1290069Y951506D02*
G54D28*
D03*
X1093219Y1247575D02*
G54D28*
D03*
X1124572Y1247575D02*
G54D28*
D03*
X1296816Y1249956D02*
G54D28*
D03*
X1328169Y1249956D02*
G54D28*
D03*
X1246810Y1376956D02*
G54D28*
D03*
X1278163Y1376956D02*
G54D28*
D03*
X1310310Y1421803D02*
G54D28*
D03*
X1341663Y1421803D02*
G54D28*
D03*
X1367460Y1421803D02*
G54D28*
D03*
X1398813Y1421803D02*
G54D28*
D03*
X1387303Y1510703D02*
G54D28*
D03*
X1418656Y1510703D02*
G54D28*
D03*
X1387700Y1567456D02*
G54D28*
D03*
X1419053Y1567456D02*
G54D28*
D03*
X1481760Y1351556D02*
G54D28*
D03*
X1513113Y1351556D02*
G54D28*
D03*
X1577803Y1415453D02*
G54D28*
D03*
X1609156Y1415453D02*
G54D28*
D03*
X1678610Y1415453D02*
G54D28*
D03*
X1709963Y1415453D02*
G54D28*
D03*
X1577010Y1288453D02*
G54D28*
D03*
X1608363Y1288453D02*
G54D28*
D03*
X1678610Y1288453D02*
G54D28*
D03*
X1709963Y1288453D02*
G54D28*
D03*
X1577010Y1161453D02*
G54D28*
D03*
X1608363Y1161453D02*
G54D28*
D03*
X1677816Y1161453D02*
G54D28*
D03*
X1709169Y1161453D02*
G54D28*
D03*
X1577010Y1034453D02*
G54D28*
D03*
X1608363Y1034453D02*
G54D28*
D03*
X1677816Y1034453D02*
G54D28*
D03*
X1709169Y1034453D02*
G54D28*
D03*
X1576216Y907453D02*
G54D28*
D03*
X1607569Y907453D02*
G54D28*
D03*
X1677816Y907453D02*
G54D28*
D03*
X1709169Y907453D02*
G54D28*
D03*
X1411116Y824903D02*
G54D28*
D03*
X1442469Y824903D02*
G54D28*
D03*
X1576216Y780453D02*
G54D28*
D03*
X1607569Y780453D02*
G54D28*
D03*
X1677419Y780850D02*
G54D28*
D03*
X1708772Y780850D02*
G54D28*
D03*
X1945706Y1351953D02*
G54D28*
D03*
X1977060Y1351953D02*
G54D28*
D03*
X1945706Y1320203D02*
G54D28*
D03*
X1977060Y1320203D02*
G54D28*
D03*
X1945706Y1288453D02*
G54D28*
D03*
X1977060Y1288453D02*
G54D28*
D03*
X1945706Y1256306D02*
G54D28*
D03*
X1977060Y1256306D02*
G54D28*
D03*
X1945310Y1123353D02*
G54D28*
D03*
X1976663Y1123353D02*
G54D28*
D03*
X1945310Y1091603D02*
G54D28*
D03*
X1976663Y1091603D02*
G54D28*
D03*
X1945310Y1059853D02*
G54D28*
D03*
X1976663Y1059853D02*
G54D28*
D03*
X1945310Y1027706D02*
G54D28*
D03*
X1976663Y1027706D02*
G54D28*
D03*
X1944913Y869750D02*
G54D28*
D03*
X1976266Y869750D02*
G54D28*
D03*
X1944913Y838000D02*
G54D28*
D03*
X1976266Y838000D02*
G54D28*
D03*
X1944913Y806250D02*
G54D28*
D03*
X1976266Y806250D02*
G54D28*
D03*
X1944913Y774103D02*
G54D28*
D03*
X1976266Y774103D02*
G54D28*
D03*
X1944913Y660200D02*
G54D28*
D03*
X1976266Y660200D02*
G54D28*
D03*
X1944913Y628847D02*
G54D28*
D03*
X1976266Y628847D02*
G54D28*
D03*
X1944913Y596700D02*
G54D28*
D03*
X1976266Y596700D02*
G54D28*
D03*
X1944913Y564553D02*
G54D28*
D03*
X1976266Y564553D02*
G54D28*
D03*
X1963566Y387547D02*
G54D28*
D03*
X1994919Y387547D02*
G54D28*
D03*
X1963566Y317697D02*
G54D28*
D03*
X1994919Y317697D02*
G54D28*
D03*
X1963566Y222447D02*
G54D28*
D03*
X1994919Y222447D02*
G54D28*
D03*
X2065562Y304997D02*
G54D28*
D03*
X2096916Y304997D02*
G54D28*
D03*
X1931816Y76396D02*
G54D28*
D03*
X1963169Y76396D02*
G54D28*
D03*
X2014366Y76396D02*
G54D28*
D03*
X2045719Y76396D02*
G54D28*
D03*
X2097710Y1351556D02*
G54D28*
D03*
X2129062Y1351556D02*
G54D28*
D03*
X2059610Y1428153D02*
G54D28*
D03*
X2090963Y1428153D02*
G54D28*
D03*
X2059610Y1453553D02*
G54D28*
D03*
X2090963Y1453553D02*
G54D28*
D03*
X1958803Y1466253D02*
G54D28*
D03*
X1990156Y1466253D02*
G54D28*
D03*
X1958803Y1491653D02*
G54D28*
D03*
X1990156Y1491653D02*
G54D28*
D03*
X1958803Y1517053D02*
G54D28*
D03*
X1990156Y1517053D02*
G54D28*
D03*
X1901256Y1517053D02*
G54D28*
D03*
X1932610Y1517053D02*
G54D28*
D03*
X2135412Y1479350D02*
G54D28*
D03*
X2166766Y1479350D02*
G54D28*
D03*
X2098503Y1529753D02*
G54D28*
D03*
X2129856Y1529753D02*
G54D28*
D03*
X2098503Y1555153D02*
G54D28*
D03*
X2129856Y1555153D02*
G54D28*
D03*
X2099297Y1637703D02*
G54D28*
D03*
X2130650Y1637703D02*
G54D28*
D03*
X2016350Y1637703D02*
G54D28*
D03*
X2047703Y1637703D02*
G54D28*
D03*
X1959597Y1636909D02*
G54D28*
D03*
X1990950Y1636909D02*
G54D28*
D03*
X1902447Y1637703D02*
G54D28*
D03*
X1933800Y1637703D02*
G54D28*
D03*
X230412Y1655959D02*
G54D28*
D03*
X261766Y1655959D02*
G54D28*
D03*
X1099569Y1325759D02*
G54D29*
D03*
X1145606Y1325759D02*
G54D29*
D03*
X1240063Y1338459D02*
G54D29*
D03*
X1286100Y1338459D02*
G54D29*
D03*
X1475013Y1313456D02*
G54D29*
D03*
X1521050Y1313456D02*
G54D29*
D03*
X1290863Y1509909D02*
G54D29*
D03*
X1336900Y1509909D02*
G54D29*
D03*
X1181325Y976906D02*
G54D29*
D03*
X1227363Y976906D02*
G54D29*
D03*
X1333725Y659803D02*
G54D29*
D03*
X1379763Y659803D02*
G54D29*
D03*
X451869Y1567456D02*
G54D29*
D03*
X497906Y1567456D02*
G54D29*
D03*
X539975Y1567059D02*
G54D29*
D03*
X586013Y1567059D02*
G54D29*
D03*
X629669Y1567059D02*
G54D29*
D03*
X675706Y1567059D02*
G54D29*
D03*
X629669Y1528562D02*
G54D29*
D03*
X675706Y1528562D02*
G54D29*
D03*
X2027066Y387150D02*
G54D29*
D03*
X2073104Y387150D02*
G54D29*
D03*
X697534Y1008259D02*
G54D30*
D03*
X731666Y1008259D02*
G54D30*
D03*
X2091756Y1599604D02*
G54D31*
D03*
X2137397Y1599604D02*
G54D31*
D03*
X208743Y1694218D02*
G54D32*
D03*
X391306Y1602937D02*
G54D32*
D03*
X423849Y1592618D02*
G54D32*
D03*
X695312Y1498162D02*
G54D32*
D03*
X694518Y1417199D02*
G54D32*
D03*
X181756Y1427518D02*
G54D32*
D03*
X337569Y1264244D02*
G54D10*
D03*
X251447Y1223763D02*
G54D10*
D03*
X928674Y1122718D02*
G54D32*
D03*
G36*
X419325Y1730969D02*
X482825Y1730969D01*
X482825Y1666675D01*
X419325Y1666675D01*
X419325Y1730969D01*
G37*
G54D33*
X419325Y1730969D02*
X482825Y1730969D01*
X482825Y1666675D01*
X419325Y1666675D01*
X419325Y1730969D01*
M02*
